<svg width="273" height="273" viewBox="0 0 273 273" fill="none" xmlns="http://www.w3.org/2000/svg">
<rect width="273" height="272" rx="15" fill="#FFE3C5"/>
<path d="M79.494 121.847C80.2182 122.137 81.0001 122.255 81.7776 122.19C82.5552 122.125 83.3068 121.879 83.9729 121.472C84.8069 120.994 85.5011 120.306 85.986 119.475C86.471 118.644 86.7297 117.701 86.7364 116.739C86.7672 116.575 86.7321 116.406 86.6388 116.268C86.5455 116.131 86.4015 116.035 86.2383 116.004C86.0754 115.977 85.9084 116.014 85.7717 116.106C85.6351 116.199 85.5393 116.341 85.5041 116.502C85.2628 117.197 84.9188 117.852 84.4833 118.445C83.1527 120.358 81.6502 120.349 79.5308 120.165C78.8621 120.075 78.3995 119.927 78.1989 120.426C77.9232 121.039 78.8867 121.553 79.494 121.847Z" fill="#2C2C2C"/>
<path d="M80.1128 96.6333C80.6978 96.0031 81.4324 95.5311 82.2483 95.261C83.0642 94.9909 83.9351 94.9314 84.7801 95.0882C85.4897 95.2002 86.0356 95.5636 86.3222 94.9885C86.7057 94.2507 85.3751 93.6483 84.5931 93.3819C83.526 93.1166 82.405 93.1663 81.3656 93.5251C80.3261 93.884 79.4128 94.5364 78.7358 95.4038C78.4178 95.8273 77.771 97.147 78.3878 97.5213C78.8505 97.8 79.9763 96.7699 80.1128 96.6333Z" fill="#2C2C2C"/>
<path d="M86.2761 101.391C86.6118 102.074 85.7534 103.185 84.3655 103.85C82.9708 104.549 81.5774 104.561 81.2417 103.876C80.906 103.192 81.7644 102.1 83.1523 101.409C84.5402 100.718 85.9403 100.706 86.2761 101.391Z" fill="#2C2C2C"/>
<path d="M101.894 109.336C101.679 108.715 101.313 108.157 100.828 107.714C100.344 107.27 99.7563 106.954 99.1191 106.795C98.7965 106.717 98.4678 106.667 98.1365 106.645C96.8478 106.507 95.5462 106.732 94.3782 107.294C94.2626 107.342 94.1591 107.414 94.075 107.507C93.991 107.6 93.9286 107.71 93.8923 107.83C93.4654 109.227 93.6087 110.736 94.2908 112.028C94.2914 112.132 94.3193 112.233 94.3718 112.323C94.4243 112.412 94.4994 112.486 94.5897 112.537C95.1818 112.973 95.8724 113.254 96.5999 113.357C94.8763 126.745 89.2865 142.937 80.6957 154.154C73.4956 145.32 69.8028 134.139 70.324 122.749C70.3356 122.592 70.2845 122.437 70.1818 122.318C70.0792 122.199 69.9335 122.126 69.7768 122.114C69.6201 122.102 69.4652 122.154 69.3462 122.256C69.2272 122.359 69.1538 122.505 69.1422 122.662C68.9371 124.461 68.8332 126.27 68.8311 128.081C68.8993 138.393 73.2554 148.239 79.9806 156.321C80.0167 156.364 80.0564 156.405 80.0994 156.441C79.9269 161.353 80.1739 166.271 80.8376 171.141C81.1195 172.942 81.4976 174.726 81.9703 176.485C82.0049 176.643 82.0995 176.78 82.2338 176.868C82.3682 176.957 82.5318 176.989 82.6895 176.958C82.8473 176.927 82.9867 176.835 83.078 176.703C83.1693 176.571 83.2052 176.408 83.1781 176.249C82.0959 168.013 82.0099 158.724 81.6333 156.105C90.8518 144.37 96.3897 128.646 97.8909 113.391C100.186 113.181 102.493 111.582 101.894 109.336ZM99.7414 110.656C98.4931 111.51 96.9644 111.849 95.4727 111.604C95.1435 110.694 95.1219 109.7 95.4112 108.776C99.141 107.793 100.719 109.678 99.7414 110.656Z" fill="#2C2C2C"/>
<path d="M15.0612 178.196C16.052 178.521 18.0226 179.279 19.4664 179.928C25.2954 182.394 30.6192 185.916 35.17 190.318C37.4081 192.345 39.537 194.439 40.9017 195.873C41.0114 195.992 41.1627 196.065 41.3246 196.077C41.4864 196.089 41.6466 196.038 41.7724 195.935C41.8333 195.882 41.883 195.817 41.9186 195.744C41.9542 195.671 41.9749 195.591 41.9796 195.51C41.9843 195.429 41.9729 195.348 41.946 195.271C41.919 195.195 41.8772 195.124 41.8229 195.064C34.9298 186.247 26.7239 180.55 20.1447 178.196C18.583 177.661 16.9748 177.273 15.341 177.037C15.1892 177.003 15.03 177.029 14.8973 177.11C14.7647 177.192 14.6692 177.322 14.6313 177.473C14.5954 177.626 14.6202 177.787 14.7004 177.922C14.7806 178.056 14.9099 178.155 15.0612 178.196Z" fill="#2C2C2C"/>
<path d="M44.2659 192.49C48.2576 188.349 53.3547 185.439 58.415 182.711C65.5414 178.924 71.9787 176.039 79.9308 174.626C80.0893 174.605 80.2498 174.645 80.3796 174.739C80.5093 174.832 80.5984 174.972 80.6285 175.129C80.6587 175.286 80.6277 175.449 80.5419 175.584C80.4561 175.719 80.3219 175.816 80.1669 175.856C74.5792 177.123 69.185 179.13 64.1263 181.823C59.2016 184.225 54.4625 186.991 49.9484 190.098C44.6753 193.99 44.9168 195.486 43.7391 195.267C43.5721 195.23 43.4172 195.151 43.2888 195.038C43.1604 194.925 43.0627 194.781 43.0049 194.62C41.8866 191.549 40.1545 188.738 37.9146 186.36C32.8872 181.189 27.0489 176.876 20.6307 173.592C20.5586 173.562 20.4931 173.519 20.4378 173.464C20.3825 173.409 20.3386 173.344 20.3085 173.272C20.2785 173.201 20.2629 173.124 20.2627 173.046C20.2625 172.968 20.2776 172.891 20.3073 172.819C20.3705 172.674 20.4884 172.56 20.6351 172.502C20.7818 172.444 20.9456 172.446 21.0906 172.508C23.2078 173.339 25.255 174.339 27.2126 175.498C33.8123 179.188 41.3181 185.574 44.2659 192.49Z" fill="#2C2C2C"/>
<path d="M48.0142 195.747C49.7194 194.464 51.5069 193.295 53.3652 192.247C62.9658 186.602 76.3235 182.13 87.1018 179.515C87.2568 179.476 87.3905 179.378 87.4747 179.241C87.5589 179.105 87.5871 178.942 87.5534 178.785C87.5196 178.629 87.4265 178.491 87.2937 178.402C87.1609 178.313 86.9987 178.278 86.8412 178.306C78.7537 179.634 70.859 181.948 63.3329 185.196C57.0854 187.928 51.6498 190.335 47.2295 194.863C47.1124 194.967 47.0415 195.113 47.0323 195.27C47.0231 195.426 47.0763 195.58 47.1804 195.697C47.2845 195.815 47.4308 195.886 47.5871 195.895C47.7435 195.904 47.8971 195.851 48.0142 195.747Z" fill="#2C2C2C"/>
<path d="M8.35222 198.187C10.5869 196.817 13.0545 195.871 15.6315 195.395C16.5609 195.181 17.1982 195.17 17.175 194.536C17.1272 193.872 16.453 193.889 15.4827 193.889C12.648 193.854 9.89251 194.825 7.70399 196.629C7.02164 197.449 6.58494 197.979 6.98206 198.398C7.33142 198.786 7.69716 198.535 8.35222 198.187Z" fill="#2C2C2C"/>
<path d="M10.9653 201.679C13.4054 200.859 12.5907 200.485 18.9038 198.702C19.7649 198.447 20.5114 198.456 20.4595 197.755C20.3844 197.083 19.612 197.164 18.6677 197.195C15.7423 197.402 12.9255 198.389 10.5095 200.053C9.67978 200.816 9.21988 201.27 9.55423 201.735C9.85583 202.175 10.2366 201.952 10.9653 201.679Z" fill="#2C2C2C"/>
<path d="M16.0953 204.623C16.5141 204.522 16.9195 204.371 17.303 204.175C19.1317 203.407 20.9782 202.855 21.1979 202.78C23.0566 202.117 23.421 202.055 23.3377 201.471C23.2449 200.84 22.5844 200.925 21.771 200.96C19.502 201.178 17.3105 201.902 15.357 203.078C14.6555 203.71 14.1943 204.082 14.4617 204.535C14.7115 204.989 15.1414 204.873 16.0953 204.623Z" fill="#2C2C2C"/>
<path d="M22.4743 207.072C25.2297 206.153 26.2395 205.916 26.1331 205.191C26.028 204.625 25.4903 204.668 24.7684 204.668C23.0359 204.739 21.3512 205.256 19.8773 206.17C19.3192 206.658 18.8934 207.072 19.1554 207.515C19.5716 208.363 21.5791 207.371 22.4743 207.072Z" fill="#2C2C2C"/>
<path d="M116.933 190.321C115.615 189.28 114.136 188.463 112.553 187.904C110.894 187.305 109.117 187.109 107.367 187.331C102.102 187.982 97.0967 189.995 92.8457 193.173C92.7742 193.216 92.7121 193.273 92.6632 193.341C92.6143 193.409 92.5796 193.486 92.5612 193.568C92.5427 193.649 92.541 193.734 92.556 193.816C92.571 193.898 92.6025 193.976 92.6485 194.046C92.6945 194.116 92.7542 194.176 92.8239 194.222C92.8935 194.268 92.9718 194.299 93.054 194.314C93.1361 194.329 93.2205 194.328 93.302 194.309C93.3834 194.291 93.4603 194.256 93.5281 194.207C97.8828 191.697 102.663 190.012 107.628 189.237C108.789 189.086 109.968 189.162 111.1 189.461C112.889 189.979 114.643 190.611 116.351 191.355C116.487 191.422 116.644 191.434 116.789 191.389C116.934 191.344 117.056 191.245 117.13 191.113C117.205 190.98 117.226 190.825 117.189 190.677C117.152 190.53 117.06 190.402 116.933 190.321Z" fill="#2C2C2C"/>
<path d="M105.994 193.752C102.683 194.468 99.5533 195.854 96.7974 197.826C95.8094 198.568 95.2471 198.889 95.6019 199.459C96.0905 200.26 96.7606 199.348 101.974 197.091C103.865 196.271 105.743 195.756 106.926 195.185C107.561 194.912 108.193 194.733 108.059 194.176C107.955 193.651 107.438 193.596 105.994 193.752Z" fill="#2C2C2C"/>
<path d="M106.174 200.521C104.759 200.897 103.387 201.418 102.079 202.077C100.697 202.665 99.3992 203.436 98.2214 204.37C97.4476 204.983 96.8212 205.438 97.2129 205.976C97.6046 206.514 97.9676 206.184 100.15 205.129C105.165 202.688 105.452 202.834 106.808 202.103C107.803 201.49 108.298 201.3 108.102 200.737C107.905 200.174 107.182 200.327 106.174 200.521Z" fill="#2C2C2C"/>
<path d="M105.719 208.145C103.415 209.092 101.18 210.199 99.0316 211.459C98.9007 211.553 98.7386 211.592 98.5795 211.568C98.4205 211.544 98.2771 211.459 98.1797 211.331C98.0824 211.202 98.0388 211.041 98.0582 210.881C98.0776 210.722 98.1585 210.576 98.2837 210.474C100.424 208.742 102.795 207.317 105.328 206.239C106.049 205.914 105.615 206.16 118.293 211.545C118.442 211.597 118.566 211.702 118.64 211.841C118.713 211.98 118.732 212.142 118.691 212.294C118.67 212.369 118.634 212.439 118.585 212.499C118.536 212.56 118.476 212.61 118.408 212.647C118.339 212.684 118.264 212.707 118.187 212.715C118.11 212.723 118.031 212.715 117.957 212.692C113.901 212.014 111.879 210.868 105.719 208.145Z" fill="#2C2C2C"/>
<path d="M106.065 180.199C113.715 186.027 111.797 184.218 118.036 189.554C118.821 190.228 121.422 192.394 121.931 192.856C122.05 192.973 122.21 193.039 122.377 193.038C122.544 193.036 122.704 192.969 122.821 192.85C122.938 192.731 123.004 192.57 123.003 192.403C123.001 192.236 122.934 192.076 122.815 191.958C121.695 190.751 120.588 189.517 119.403 188.346C116.1 185.146 112.436 182.341 108.486 179.987C107.877 179.688 107.279 179.44 106.645 179.177C106.578 179.138 106.504 179.113 106.427 179.103C106.351 179.094 106.273 179.099 106.198 179.119C106.124 179.139 106.054 179.174 105.993 179.221C105.931 179.269 105.88 179.328 105.842 179.395C105.803 179.462 105.778 179.536 105.768 179.612C105.759 179.689 105.764 179.767 105.784 179.842C105.804 179.916 105.839 179.986 105.886 180.048C105.934 180.109 105.992 180.16 106.059 180.199H106.065Z" fill="#2C2C2C"/>
<path d="M79.9544 173.259C79.9412 173.168 79.9088 173.081 79.8594 173.004C79.81 172.927 79.7446 172.861 79.6678 172.811C79.5067 171.29 79.3812 169.759 79.2816 168.226C79.0332 164.439 78.9213 160.665 78.6729 156.887C78.6608 156.697 78.5758 156.518 78.4354 156.388C75.183 153.224 72.5861 149.448 70.7932 145.278C68.9982 141.093 67.8607 136.655 67.421 132.122C67.4054 131.959 67.3465 131.804 67.2505 131.673C67.1544 131.541 67.0247 131.438 66.8751 131.374C66.726 131.307 66.5613 131.282 66.3989 131.301C66.2365 131.321 66.0826 131.385 65.9539 131.486C64.7547 132.428 63.6152 133.443 62.5422 134.526C60.9619 136.146 59.5058 137.902 58.1247 139.622C52.6225 146.315 48.6435 154.129 46.4647 162.518C44.4935 170.903 43.8488 179.546 44.5542 188.131C44.5649 188.321 44.6315 188.504 44.7456 188.656C44.8596 188.809 45.0161 188.924 45.1954 188.988C45.3746 189.051 45.5687 189.061 45.7532 189.015C45.9378 188.968 46.1046 188.869 46.2327 188.728C47.5014 187.352 48.9065 186.108 50.4265 185.016C51.9814 183.922 53.5965 182.916 55.2643 182.004C57.4028 180.825 59.6001 179.757 61.8476 178.803C64.0818 177.849 66.3818 177.058 68.7297 176.435C68.8695 176.401 68.9994 176.335 69.1095 176.242C69.2195 176.149 69.3067 176.032 69.3643 175.9C69.4173 175.768 69.4402 175.626 69.4314 175.484C69.4227 175.343 69.3825 175.204 69.3138 175.08C68.9781 174.457 68.667 173.822 68.3804 173.187C68.0938 172.551 67.7963 171.879 67.522 171.206C67.1031 170.286 66.7417 169.342 66.4398 168.378C66.2668 167.801 66.1705 167.204 66.1532 166.602C66.3805 166.676 66.5888 166.799 66.7632 166.962C66.9985 167.285 67.1989 167.632 67.3609 167.997C67.6339 168.632 67.8577 169.316 68.1197 169.939C68.6055 171.11 69.0655 172.307 69.6127 173.478C69.9694 174.277 70.3769 175.053 70.8327 175.8C70.9174 175.957 71.0579 176.076 71.2264 176.134C71.3948 176.191 71.5787 176.184 71.7416 176.112C72.9708 175.585 74.2298 175.132 75.5123 174.754C76.7989 174.393 78.1083 174.119 79.4317 173.934C79.511 173.926 79.5878 173.902 79.6576 173.863C79.7273 173.824 79.7884 173.772 79.8373 173.708C79.8861 173.645 79.9217 173.573 79.9418 173.496C79.962 173.419 79.9662 173.338 79.9544 173.259Z" fill="#FFB769"/>
<path d="M84.7109 143.835C82.7018 142.475 81.0256 140.678 79.8075 138.578C79.3741 137.951 79.0723 137.243 78.9203 136.496C78.7683 135.748 78.7693 134.978 78.9232 134.231C78.9546 134.153 78.9676 134.068 78.9612 133.984C78.9548 133.899 78.9292 133.818 78.8863 133.745C78.8474 133.67 78.7927 133.605 78.726 133.553C78.6594 133.501 78.5823 133.465 78.5001 133.446C77.3139 132.999 76.2053 132.369 75.2153 131.577C74.2503 130.835 73.4636 129.886 72.9131 128.799C72.8114 128.603 72.6424 128.449 72.4369 128.367C72.2314 128.284 72.0032 128.279 71.794 128.351C71.5819 128.421 71.4025 128.565 71.2901 128.758C71.1776 128.951 71.1399 129.179 71.184 129.398C71.2454 129.783 71.3327 130.17 71.4201 130.556C71.6193 131.403 71.8554 132.25 72.0547 133.11C72.7948 136.283 73.7552 139.401 74.9287 142.44C76.1285 145.512 77.7089 148.421 79.6328 151.098C79.7221 151.225 79.8417 151.329 79.9809 151.398C80.12 151.468 80.2743 151.502 80.4298 151.497C80.5835 151.49 80.7336 151.447 80.8676 151.371C81.0016 151.296 81.1158 151.189 81.2009 151.061L84.9838 145.081C85.1081 144.879 85.1491 144.636 85.0983 144.403C85.0474 144.171 84.9085 143.967 84.7109 143.835Z" fill="#FFB769"/>
<path d="M191.694 201.829C191.674 201.718 191.629 201.615 191.561 201.526C191.492 201.438 191.404 201.367 191.302 201.32C191.201 201.274 191.089 201.252 190.978 201.258C190.866 201.264 190.758 201.297 190.662 201.355C188.014 203.03 185.054 204.15 181.961 204.647C178.867 205.144 175.706 205.007 172.667 204.245C170.271 203.306 168.086 201.898 166.239 200.103C164.393 198.308 162.923 196.163 161.915 193.793C160.979 191.415 160.551 188.867 160.658 186.313C160.764 183.76 161.403 181.256 162.532 178.964C163.662 176.672 165.258 174.642 167.218 173.004C169.177 171.365 171.457 170.155 173.912 169.451C176.298 168.657 178.845 168.469 181.322 168.904C183.799 169.339 186.13 170.383 188.104 171.943C188.253 172.066 188.436 172.14 188.629 172.154C188.822 172.167 189.014 172.119 189.177 172.017C189.341 171.915 189.469 171.764 189.542 171.585C189.615 171.406 189.63 171.208 189.585 171.021C186.382 157.131 169.388 141.364 151.423 140.024C157.103 147.957 160.813 159.781 163.539 168.291C163.57 168.369 163.585 168.452 163.584 168.536C163.583 168.619 163.564 168.702 163.53 168.779C163.496 168.855 163.447 168.924 163.386 168.981C163.324 169.038 163.252 169.082 163.173 169.111C163.095 169.139 163.011 169.152 162.928 169.147C162.844 169.142 162.762 169.121 162.687 169.084C162.612 169.047 162.545 168.995 162.49 168.932C162.436 168.868 162.394 168.794 162.369 168.715C158.632 159.288 157.059 154.925 154.691 149.804C153.201 146.318 151.327 143.009 149.104 139.939C137.927 128.576 115.744 118.339 100.657 123.857C100.451 123.936 100.278 124.082 100.165 124.272C100.052 124.462 100.006 124.684 100.035 124.903C101.085 132.234 95.8565 139.573 89.7181 143.652C89.6131 143.722 89.5229 143.812 89.4526 143.916C89.3824 144.021 89.3335 144.138 89.3087 144.262C88.4612 148.485 86.4674 153.814 82.6517 155.785C82.4916 155.87 82.358 155.998 82.2658 156.154C82.1736 156.31 82.1262 156.489 82.129 156.671C82.2652 162.042 82.7934 167.396 83.7093 172.69C83.7393 172.856 83.811 173.012 83.9177 173.143C84.0245 173.273 84.1627 173.375 84.3194 173.437C85.3347 173.82 86.4919 174.364 86.2108 175.406C86.173 175.543 86.1662 175.686 86.1907 175.826C86.2153 175.966 86.2707 176.099 86.3529 176.215C86.4351 176.33 86.5421 176.426 86.666 176.496C86.7899 176.565 86.9276 176.606 87.0692 176.615C88.6181 176.711 90.5738 177.689 90.006 179.193C89.949 179.343 89.9304 179.504 89.9521 179.663C89.9738 179.822 90.035 179.973 90.1301 180.102C90.2252 180.231 90.3512 180.334 90.4964 180.401C90.6417 180.469 90.8015 180.499 90.9613 180.488L93.7112 180.302C94.2844 182.381 94.6583 184.513 95.1796 186.606C95.6436 188.462 95.7105 188.764 96.2004 189.01C96.9796 189.322 96.9783 188.677 101.041 187.614C106.692 186.208 108.035 186.757 108.308 185.621C108.571 184.569 107.156 184.431 105.645 182.308C104.741 181.022 104.152 179.368 105.458 178.495C106.246 178.019 107.184 177.859 108.084 178.047C113.125 178.992 116.669 182.196 120.205 185.883C120.341 186.023 120.517 186.118 120.709 186.153C120.9 186.189 121.098 186.164 121.275 186.082C121.472 185.943 121.696 185.845 121.933 185.797C122.169 185.748 122.413 185.749 122.649 185.799C122.886 185.849 123.109 185.948 123.305 186.089C123.501 186.23 123.666 186.41 123.789 186.618C126.061 190.016 124.242 199.999 123.366 203.958C122.497 207.857 121.362 211.691 119.969 215.434C119.897 215.634 119.897 215.853 119.97 216.053C120.042 216.252 120.183 216.42 120.366 216.527C129.951 222.112 143.113 223.695 153.629 219.927C157.325 218.6 161.126 217.065 163.573 213.96C166.766 214.792 170.357 214.233 173.603 213.899C179.611 213.261 185.545 212.052 191.324 210.285C191.452 210.242 191.565 210.164 191.653 210.061C191.741 209.958 191.799 209.834 191.822 209.7C192.186 207.086 192.143 204.43 191.694 201.829ZM150.848 192.518C150.785 192.67 150.665 192.791 150.513 192.854C150.361 192.917 150.191 192.917 150.039 192.854C144.553 190.909 127.36 184.786 122.19 185.293C122.113 185.307 122.034 185.307 121.957 185.291C121.881 185.275 121.808 185.244 121.743 185.201C121.679 185.157 121.623 185.1 121.58 185.035C121.537 184.969 121.508 184.896 121.493 184.819C121.478 184.743 121.479 184.663 121.495 184.587C121.51 184.51 121.541 184.437 121.585 184.373C121.629 184.308 121.685 184.252 121.751 184.209C121.816 184.166 121.889 184.137 121.966 184.122C124.986 183.26 127.663 183.882 130.602 184.649C129.009 182.141 127.669 179.481 126.602 176.708C123.945 170.139 123.71 167.828 123.442 165.671C123.405 165.517 123.43 165.355 123.511 165.219C123.593 165.084 123.725 164.986 123.878 164.948C123.953 164.93 124.031 164.926 124.107 164.938C124.184 164.95 124.257 164.977 124.323 165.018C124.389 165.058 124.446 165.112 124.491 165.174C124.536 165.237 124.569 165.308 124.586 165.384C127.485 172.956 127.543 175.187 132.598 185.17C138.758 186.787 144.752 188.983 150.5 191.727C150.576 191.756 150.645 191.799 150.704 191.855C150.763 191.91 150.81 191.977 150.842 192.051C150.875 192.125 150.892 192.205 150.893 192.286C150.894 192.367 150.879 192.447 150.848 192.522V192.518Z" fill="#FFB769"/>
<path d="M192.296 181.135C186.26 168.542 168.216 168.755 163.662 182.257C162.351 186.231 162.614 190.558 164.397 194.343C166.18 198.128 169.348 201.084 173.245 202.599C186.516 207.663 198.437 193.961 192.296 181.135ZM183.698 193.384C183.361 193.849 182.991 193.55 182.28 193.36C182.015 193.297 181.744 193.259 181.471 193.248C178.9 193.026 177.41 195.244 176.618 194.494C176.132 194.032 176.923 192.854 177.228 192.637C177.854 192.109 178.591 191.729 179.384 191.527C180.177 191.324 181.005 191.303 181.807 191.466C182.635 191.674 184.259 192.653 183.698 193.384ZM185.154 189.998C184.302 189.171 183.272 188.549 182.144 188.179C180.836 187.733 179.418 187.725 178.104 188.156C176.791 188.587 175.653 189.435 174.863 190.57C174.405 191.136 173.981 191.729 173.594 192.346C173.537 192.489 173.427 192.605 173.287 192.668C173.146 192.732 172.987 192.738 172.842 192.687C172.697 192.635 172.578 192.529 172.509 192.391C172.44 192.253 172.428 192.094 172.474 191.947C172.776 190.497 173.496 189.168 174.545 188.123C175.595 187.079 176.927 186.365 178.377 186.071C179.827 185.777 181.332 185.915 182.705 186.468C184.077 187.021 185.258 187.964 186.1 189.182C186.208 189.308 186.262 189.472 186.249 189.638C186.236 189.803 186.159 189.957 186.033 190.065C185.907 190.173 185.743 190.227 185.578 190.214C185.412 190.202 185.258 190.124 185.15 189.998H185.154ZM188.042 186.483C187.905 186.573 187.738 186.608 187.576 186.58C187.414 186.552 187.269 186.464 187.17 186.332C185.845 184.481 184.012 183.053 181.894 182.222C179.992 181.699 177.973 181.802 176.133 182.515C174.294 183.229 172.732 184.514 171.678 186.183C171.089 187.002 170.593 187.884 170.197 188.812C170.157 188.963 170.058 189.092 169.923 189.172C169.788 189.251 169.627 189.274 169.476 189.235C169.401 189.217 169.331 189.183 169.27 189.137C169.208 189.091 169.156 189.034 169.117 188.968C169.078 188.902 169.052 188.829 169.041 188.753C169.03 188.677 169.034 188.599 169.052 188.525C169.99 182.089 176.889 178.661 182.467 180.428C184.911 181.437 186.93 183.264 188.179 185.597C188.273 185.735 188.312 185.903 188.286 186.068C188.259 186.233 188.171 186.381 188.038 186.483H188.042Z" fill="#2C2C2C"/>
<path d="M204.856 224.637C204.839 224.509 204.796 224.387 204.73 224.276C204.665 224.166 204.578 224.07 204.475 223.993C204.371 223.917 204.254 223.862 204.129 223.832C204.004 223.801 203.875 223.796 203.748 223.817C195.673 225.198 179.506 229.321 177.902 229.659C171.877 228.197 154.498 226.107 146.543 224.862C146.3 224.822 146.051 224.879 145.851 225.021C145.65 225.164 145.514 225.38 145.472 225.623C145.133 227.484 144.908 229.364 144.799 231.253C140.373 231.317 104.267 232.451 98.8359 232.575C95.9454 232.644 88.6184 232.258 86.2288 230.445C86.0572 230.345 85.9173 230.198 85.8249 230.022C85.7325 229.845 85.6913 229.647 85.7061 229.448C88.905 228.082 104.488 228.052 107.185 227.742C110.279 227.343 114.995 226.228 114.104 223.245C112.637 218.347 93.0536 220.412 88.9664 216.505C88.8525 216.406 88.705 216.354 88.5541 216.361C88.4033 216.367 88.2607 216.432 88.1558 216.54C88.0508 216.649 87.9914 216.793 87.9899 216.945C87.9884 217.096 88.0448 217.242 88.1476 217.352C92.6674 221.816 111.484 221.014 112.289 223.78C112.415 224.251 111.579 224.656 111.132 224.851C106.912 226.713 99.2821 225.601 88.9814 226.82C87.7068 226.929 86.4472 227.171 85.223 227.542C84.9415 227.621 84.6802 227.759 84.4567 227.948C84.2333 228.136 84.0529 228.371 83.9279 228.635C83.2319 230.653 84.6881 232.223 87.3506 233.12C91.1157 234.099 94.9972 234.556 98.8864 234.478C103.552 234.354 137.562 232.793 145.002 232.496C145.379 232.961 142.85 232.448 177.418 236.407C177.418 236.407 201.758 230.814 204.073 230.354C204.268 230.317 204.445 230.218 204.58 230.072C204.714 229.926 204.798 229.741 204.819 229.544C205.022 227.915 205.034 226.268 204.856 224.637Z" fill="#2C2C2C"/>
<path d="M198.667 223.131C193.393 222.414 191.662 220.794 169.796 218.833C169.694 218.814 169.588 218.822 169.491 218.857C169.393 218.891 169.305 218.951 169.238 219.03C167.066 219.197 164.904 219.48 162.762 219.877C159.557 220.394 156.405 221.203 153.346 222.294C151.757 223.001 151.162 223.305 151.367 223.888C151.596 224.499 152.239 224.246 153.869 223.9C154.244 223.821 154.627 223.739 155.001 223.639C162.811 221.632 161.49 222.137 165.728 221.223C165.864 221.191 170.014 220.209 170.153 220.158C175.499 221.613 178.801 221.582 185.711 222.57C189.293 223.066 193.232 223.949 198.516 224.363C198.679 224.383 198.844 224.338 198.973 224.236C199.103 224.135 199.187 223.986 199.207 223.823C199.227 223.66 199.182 223.495 199.08 223.365C198.979 223.235 198.831 223.151 198.667 223.131Z" fill="#2C2C2C"/>
<path d="M95.0496 207.522C94.6108 207.062 94.3497 206.461 94.3132 205.827C94.2767 205.192 94.4671 204.565 94.8504 204.058C94.9355 203.934 94.9878 203.791 95.0024 203.641C95.017 203.491 94.9934 203.34 94.9338 203.202C94.8742 203.064 94.7806 202.943 94.6617 202.851C94.5428 202.759 94.4025 202.699 94.254 202.676C91.9586 202.352 90.1859 200.422 91.0183 198.129C91.0591 198.012 91.0752 197.887 91.0656 197.763C91.0559 197.639 91.0208 197.518 90.9624 197.408C90.904 197.298 90.8235 197.201 90.7261 197.124C90.6286 197.047 90.5162 196.99 90.396 196.958C88.7052 196.504 87.8181 195.9 88.6915 194.391C90.1794 192.277 92.1562 190.555 94.4533 189.371C94.6361 189.279 94.7831 189.129 94.8709 188.944C94.9587 188.759 94.9822 188.55 94.9377 188.35L93.6686 182.782C93.6175 182.559 93.4868 182.363 93.301 182.229C93.1152 182.096 92.8873 182.036 92.66 182.059C78.8371 183.555 57.8849 192.822 45.6217 199.312C45.1477 199.532 44.6403 199.67 44.1206 199.722C43.4324 199.781 42.74 199.769 42.0544 199.685C32.9833 190.942 21.9934 186.132 11.0063 180.476C10.8162 180.383 10.601 180.354 10.3933 180.395C10.1857 180.436 9.99699 180.543 9.85603 180.701C9.71507 180.859 9.62956 181.059 9.61253 181.27C9.59549 181.481 9.64786 181.692 9.76167 181.871C11.2874 184.174 13.3099 187.671 14.6022 189.893C15.5766 191.581 18.3606 192.113 18.3606 193.394C18.3591 193.583 18.414 193.768 18.5183 193.926C18.6226 194.083 18.7716 194.206 18.9461 194.278C20.1388 194.77 21.4967 195.691 21.4967 196.982C21.4881 197.179 21.5443 197.373 21.6567 197.535C21.7691 197.697 21.9315 197.817 22.119 197.878C23.3158 198.288 25.2578 199.435 24.993 200.681C24.9455 200.885 24.969 201.098 25.0596 201.286C25.1503 201.475 25.3025 201.626 25.4911 201.715C27.6037 202.761 29.1663 205.213 27.2652 206.77C27.1491 206.868 27.0589 206.992 27.0028 207.133C26.9467 207.274 26.9264 207.427 26.9437 207.578C26.961 207.728 27.0154 207.872 27.102 207.997C27.1886 208.121 27.3047 208.222 27.4399 208.291C35.6619 212.82 42.5106 219.486 47.2635 227.586C47.6183 228.156 47.8981 227.67 49.9383 228.048C50.6469 228.166 51.3458 228.337 52.029 228.559V228.596C52.1236 228.63 52.2257 228.637 52.3243 228.618C52.4229 228.598 52.5143 228.552 52.5885 228.484C65.3061 218.611 78.7074 216.672 92.1988 212.5C92.3311 212.457 92.4518 212.384 92.551 212.287C92.6503 212.189 92.7255 212.07 92.7706 211.938C93.1405 210.715 93.9123 209.653 94.9609 208.925C95.0754 208.85 95.1709 208.75 95.2398 208.632C95.3086 208.514 95.349 208.382 95.3576 208.245C95.3663 208.109 95.3429 207.973 95.2894 207.847C95.2359 207.721 95.1538 207.61 95.0496 207.522ZM46.4897 220.227C46.4111 220.245 46.3296 220.248 46.25 220.234C46.1704 220.221 46.0942 220.192 46.0258 220.149C45.9574 220.106 45.8982 220.05 45.8516 219.984C45.8049 219.918 45.7718 219.844 45.7541 219.765C45.3693 218.482 44.9462 217.249 44.5846 215.966C44.2461 214.769 42.4406 207.211 42.2332 205.277C42.1841 204.741 42.1704 204.218 42.1459 203.683C42.1172 203.531 42.1483 203.375 42.2326 203.246C42.317 203.117 42.448 203.026 42.598 202.992C42.7481 202.958 42.9054 202.984 43.037 203.064C43.1685 203.144 43.2639 203.271 43.3031 203.42C43.4901 203.944 43.7016 204.418 43.8763 204.923C44.4222 206.511 46.1772 214.574 46.3519 215.561C46.5893 216.869 46.7613 218.165 46.9619 219.486C46.9794 219.566 46.981 219.648 46.9668 219.728C46.9525 219.809 46.9226 219.885 46.8787 219.954C46.8349 220.022 46.778 220.082 46.7112 220.128C46.6445 220.175 46.5692 220.208 46.4897 220.225V220.227ZM51.4026 225.903C51.2047 224.495 50.9427 223.1 50.7066 221.693C48.4357 208.415 48.6473 212.497 47.8571 206.382C47.8334 206.306 47.8255 206.225 47.8337 206.145C47.842 206.066 47.8663 205.989 47.9052 205.919C47.9441 205.849 47.9968 205.787 48.06 205.738C48.1233 205.689 48.1958 205.653 48.2733 205.633C48.3507 205.613 48.4314 205.608 48.5106 205.62C48.5897 205.632 48.6657 205.66 48.7338 205.702C48.8019 205.744 48.8608 205.8 48.9069 205.865C48.953 205.93 48.9854 206.005 49.0021 206.083C49.275 206.743 49.548 207.378 49.7977 208.052C51.5323 213.818 52.4866 219.791 52.6349 225.812C52.6408 225.972 52.5844 226.128 52.4776 226.247C52.3708 226.367 52.2219 226.44 52.0622 226.452C51.9025 226.463 51.7446 226.412 51.6215 226.31C51.4985 226.207 51.42 226.061 51.4026 225.902V225.903Z" fill="#2C2C2C"/>
<path d="M201.841 163.252C217.738 161.406 218.382 158.909 218.951 160.151C219.021 160.298 219.031 160.466 218.977 160.62C218.923 160.774 218.811 160.9 218.664 160.971C213.187 163.849 207.782 164.457 201.554 165.206C201.391 165.229 201.224 165.209 201.071 165.147C200.918 165.086 200.784 164.986 200.682 164.856C199.192 163.05 197.534 161.39 195.729 159.898C195.663 159.858 195.606 159.806 195.56 159.743C195.514 159.681 195.481 159.61 195.462 159.535C195.444 159.46 195.44 159.382 195.452 159.306C195.464 159.229 195.49 159.156 195.53 159.089C195.614 158.956 195.745 158.86 195.897 158.821C196.05 158.781 196.211 158.801 196.349 158.876C198.497 159.884 200.378 161.383 201.841 163.252Z" fill="#2C2C2C"/>
<path d="M231.256 135.53C234.487 143.472 236.913 151.718 238.499 160.145C239.23 165.056 239.571 170.017 239.518 174.981C238.571 193.811 216.156 195.107 200.195 199.348C200.113 199.366 200.037 199.4 199.969 199.448C199.901 199.496 199.844 199.557 199.8 199.628C199.756 199.698 199.727 199.777 199.714 199.859C199.701 199.941 199.704 200.025 199.724 200.106C199.744 200.187 199.78 200.263 199.83 200.329C199.88 200.396 199.942 200.452 200.014 200.494C200.086 200.536 200.165 200.563 200.247 200.574C200.33 200.585 200.413 200.579 200.493 200.557C213.945 197.37 240.464 196.31 241.448 175.081C241.506 169.982 241.153 164.887 240.39 159.846C238.885 151.227 236.17 142.864 232.326 135.006C232.292 134.936 232.244 134.873 232.186 134.821C232.127 134.769 232.059 134.73 231.985 134.704C231.911 134.679 231.833 134.668 231.755 134.673C231.677 134.678 231.6 134.698 231.53 134.732C231.46 134.767 231.397 134.815 231.345 134.873C231.293 134.932 231.254 135 231.228 135.074C231.203 135.148 231.192 135.227 231.197 135.305C231.202 135.383 231.222 135.459 231.256 135.53Z" fill="#2C2C2C"/>
<path d="M201.004 187.83C202.847 186.112 204.17 183.911 204.825 181.477C205.069 180.462 205.161 179.417 205.098 178.375C205.112 178.213 205.06 178.052 204.955 177.929C204.85 177.805 204.7 177.728 204.539 177.715C204.374 177.702 204.211 177.755 204.085 177.863C203.96 177.97 203.881 178.122 203.867 178.287C203.676 179.195 203.413 180.087 203.083 180.954C201.27 186.096 197.76 187.673 198.553 188.664C199.025 189.315 200.413 188.323 201.004 187.83Z" fill="#2C2C2C"/>
<path d="M265.785 97.2783C263.982 93.5064 258.301 90.8574 255.618 89.3546C250.668 86.6223 243.449 81.6373 237.911 82.3791C236.775 82.5437 235.698 82.9917 234.78 83.6819C233.863 84.372 233.133 85.2822 232.658 86.3286C231.82 87.9293 231.085 89.5821 230.457 91.2768C229.761 91.413 229.079 91.6105 228.418 91.867C228.285 91.9177 228.174 92.0144 228.106 92.1397C228.038 92.265 228.017 92.4106 228.047 92.5501C220.386 106.651 214.91 120.413 208.795 132.578C206.755 136.716 203.324 146.24 199.574 148.549C194.598 151.618 184.139 149.797 178.468 148.275C178.316 148.231 178.152 148.248 178.014 148.324C177.875 148.4 177.772 148.528 177.727 148.68C177.683 148.832 177.7 148.996 177.776 149.135C177.852 149.274 177.98 149.377 178.132 149.422C184.762 151.554 194.606 153.823 200.569 150.181C205.015 147.417 208.232 138.022 210.524 133.45C217.507 119.364 223.204 104.997 229.357 92.8288C230.688 92.4843 232.073 92.4094 233.433 92.6085C234.793 92.8076 236.099 93.2767 237.275 93.9883C238.451 94.6998 239.473 95.6395 240.282 96.752C241.09 97.8646 241.668 99.1276 241.982 100.467C241.615 101.515 238.739 107.608 235.622 114.507C227.722 132.003 223.75 145.263 218.512 158.867C218.449 159.021 218.45 159.193 218.514 159.346C218.578 159.499 218.7 159.621 218.854 159.683C219.007 159.746 219.179 159.746 219.332 159.681C219.485 159.617 219.606 159.495 219.669 159.341C222.594 152.34 224.769 146.722 227.571 139.384C235.878 117.581 234.308 122.469 242.828 103.307C243.312 102.236 243.647 101.438 243.783 101.053C243.895 100.798 243.925 100.515 243.869 100.243C243.73 99.6931 243.556 99.1528 243.348 98.6253C243.59 98.0173 243.941 97.4588 244.384 96.9778C244.995 97.1076 260.666 101.295 263.835 100.789C264.245 100.792 264.648 100.684 265.002 100.476C265.357 100.269 265.649 99.9706 265.848 99.6117C266.047 99.2528 266.147 98.8469 266.136 98.4364C266.124 98.0259 266.003 97.6259 265.785 97.2783Z" fill="#2C2C2C"/>
<path d="M225.634 87.7958C224.786 84.2739 216.416 84.8709 212.767 85.3053C206.712 86.0321 198.634 86.8654 196.999 92.8041C196.246 95.4613 197.4 98.5652 198.07 101.088C198.07 101.108 198.081 101.127 198.087 101.146C197.904 101.438 197.733 101.735 197.576 102.032C197.515 102.139 197.476 102.257 197.463 102.38C197.45 102.502 197.463 102.626 197.501 102.743C199.972 112.185 203.218 121.406 207.208 130.312C207.273 130.461 207.395 130.579 207.546 130.64C207.697 130.7 207.866 130.699 208.016 130.636C209.418 129.988 206.924 129.5 199.455 102.594C201.767 98.5365 206.815 95.255 211.376 96.4463C212.973 101.38 214.817 106.229 216.902 110.977C216.928 111.05 216.969 111.117 217.021 111.175C217.074 111.232 217.137 111.278 217.208 111.311C217.278 111.343 217.355 111.362 217.433 111.364C217.51 111.367 217.588 111.354 217.661 111.326C217.805 111.269 217.922 111.158 217.987 111.016C218.052 110.874 218.06 110.713 218.009 110.565C212.356 94.3656 212.984 95.1853 212.849 95.0309C215.69 94.2522 221.25 92.6729 223.717 91.0855C224.951 90.3136 225.963 89.2016 225.634 87.7958Z" fill="#2C2C2C"/>
<path d="M40.6583 89.4311C52.1449 71.6151 75.6286 76.2887 92.6532 67.63C104.716 61.481 112.999 50.5422 126.983 51.2991C127.146 51.3068 127.305 51.2514 127.428 51.1446C127.551 51.0377 127.628 50.8875 127.643 50.7253C127.649 50.644 127.64 50.5622 127.615 50.4847C127.589 50.4072 127.549 50.3355 127.495 50.274C127.442 50.2125 127.377 50.1623 127.304 50.1265C127.23 50.0907 127.151 50.0699 127.069 50.0654C112.34 48.8441 103.324 60.1121 91.7907 65.9237C74.5041 74.6848 51.0423 69.3295 39.6498 88.8081C39.5673 88.942 39.5413 89.1032 39.5775 89.2563C39.6137 89.4094 39.7092 89.5418 39.8429 89.6244C39.9766 89.707 40.1377 89.733 40.2906 89.6968C40.4435 89.6605 40.5758 89.565 40.6583 89.4311Z" fill="#FFB769"/>
<path d="M47.6387 96.8648C47.8693 96.6449 49.0825 95.5779 49.567 95.1079C53.0145 91.687 57.2693 89.1932 61.9366 87.8578C62.0963 87.8192 62.2343 87.719 62.3207 87.5791C62.4071 87.4392 62.4348 87.2708 62.3978 87.1105C62.379 87.0303 62.3441 86.9547 62.2953 86.8884C62.2466 86.822 62.1849 86.7662 62.114 86.7244C62.0431 86.6825 61.9645 86.6554 61.8828 86.6448C61.8012 86.6341 61.7183 86.6401 61.6391 86.6624C56.4685 87.4234 51.7247 89.965 48.2241 93.8497C47.6452 94.5587 47.1366 95.3223 46.7052 96.1298C46.657 96.1912 46.6213 96.2614 46.6002 96.3366C46.5792 96.4117 46.5731 96.4903 46.5823 96.5678C46.601 96.7244 46.681 96.8671 46.8048 96.9645C46.9286 97.062 47.086 97.1062 47.2424 97.0875C47.3987 97.0688 47.5413 96.9887 47.6387 96.8648Z" fill="#FFB769"/>
<path d="M96.0598 76.8806C108.781 74.916 119.827 59.3597 131.65 59.9881C131.732 59.9989 131.817 59.9927 131.897 59.9699C131.977 59.9472 132.052 59.9083 132.117 59.8557C132.182 59.8031 132.236 59.7379 132.275 59.664C132.314 59.59 132.337 59.509 132.344 59.4257C132.351 59.3423 132.34 59.2585 132.314 59.1793C132.287 59.1 132.245 59.027 132.189 58.9646C132.134 58.9023 132.066 58.8518 131.99 58.8164C131.915 58.781 131.833 58.7613 131.749 58.7586C121.636 57.555 113.214 66.6713 103.278 72.3613C100.909 73.7329 98.406 74.859 95.8087 75.7221C95.6546 75.7571 95.5202 75.8509 95.4341 75.9836C95.3479 76.1162 95.3168 76.2773 95.3474 76.4325C95.3832 76.5861 95.4781 76.7193 95.6115 76.8032C95.7449 76.8871 95.906 76.9149 96.0598 76.8806Z" fill="#FFB769"/>
<path d="M53.7186 108.744C58.4636 105.577 56.9325 105.794 64.8436 101.954C64.9928 101.894 65.1127 101.778 65.1783 101.631C65.2438 101.483 65.2498 101.316 65.1951 101.165C65.1403 101.013 65.0291 100.889 64.8846 100.818C64.7402 100.747 64.5739 100.734 64.4205 100.783C63.3043 101.043 62.2065 101.376 61.1344 101.781C58.5596 102.849 56.1927 104.363 54.1417 106.252C53.6566 106.762 53.227 107.321 52.8602 107.922C52.7513 108.036 52.692 108.188 52.6955 108.346C52.6989 108.504 52.7648 108.653 52.8786 108.762C52.9925 108.871 53.1449 108.931 53.3024 108.927C53.46 108.924 53.6097 108.858 53.7186 108.744Z" fill="#FFB769"/>
<path d="M108.652 86.7413C119.854 81.9789 125.873 75.2383 136.628 70.6467C140.765 68.7885 145.235 67.7845 149.769 67.6944C149.85 67.6961 149.931 67.6817 150.008 67.652C150.084 67.6222 150.153 67.5778 150.212 67.5211C150.271 67.4645 150.319 67.3968 150.351 67.3218C150.384 67.2469 150.402 67.1662 150.404 67.0844C150.405 67.0026 150.391 66.9213 150.361 66.845C150.332 66.7688 150.287 66.6992 150.231 66.6401C150.174 66.5811 150.106 66.5337 150.032 66.5009C149.957 66.468 149.876 66.4502 149.794 66.4485C133.531 65.6288 122.451 77.819 108.143 85.6702C108.001 85.7378 107.891 85.859 107.839 86.0073C107.786 86.1555 107.795 86.3185 107.862 86.4606C107.93 86.6026 108.051 86.712 108.199 86.7646C108.347 86.8173 108.51 86.8089 108.652 86.7413Z" fill="#FFB769"/>
<path d="M159.032 36.5312C155.321 39.3482 149.632 35.4929 144.702 37.3399C144.501 37.4136 144.331 37.5538 144.22 37.7374C144.109 37.9209 144.064 38.1369 144.092 38.3495C144.59 42.366 145.72 49.0287 146.355 51.9332C143.317 50.3703 140.428 55.1354 140.428 55.7652H140.454C139.814 58.4552 142.388 60.4238 145.394 60.1506C148.482 59.8924 150.121 57.4483 148.455 54.2584C148.058 53.5193 148.297 54.3185 148.062 51.9031C147.754 48.511 146.697 43.5696 146.096 38.9096C150.242 37.9246 155.71 40.9999 159.822 37.4779C159.947 37.373 160.026 37.2226 160.04 37.0596C160.055 36.8967 160.004 36.7346 159.9 36.609C159.795 36.4835 159.644 36.4048 159.482 36.3902C159.319 36.3756 159.157 36.4263 159.032 36.5312ZM141.63 56.0521C142.329 54.9682 143.305 54.0906 144.455 53.5097C145.239 53.2242 145.997 53.6217 146.758 55.1491C148.94 59.3391 141.884 58.9729 141.63 56.0521Z" fill="#2C2C2C"/>
<path d="M44.7677 105.604C42.531 105.877 36.6832 103.471 33.9129 104.545C33.1732 102.777 32.6038 100.942 32.2125 99.0655C32.1948 98.8674 32.1252 98.6228 32.2384 98.5491C36.3066 95.8632 39.9339 102.253 44.5207 101.418C44.6744 101.382 44.8086 101.289 44.8964 101.157C44.9842 101.026 45.0189 100.866 44.9937 100.71C44.9684 100.554 44.8849 100.414 44.7602 100.317C44.6354 100.22 44.4786 100.174 44.3214 100.188C40.3638 100.71 36.645 93.7211 31.1917 97.0613C29.7588 97.881 30.4971 100.415 31.0061 102.007C32.4841 106.659 37.9579 118.127 34.5652 121.353C33.0095 122.856 31.6694 122.309 31.017 120.494C30.6957 119.593 30.6447 118.617 30.8702 117.687C31.0957 116.758 31.5879 115.914 32.2862 115.261C32.347 115.21 32.3969 115.148 32.4331 115.077C32.4693 115.007 32.491 114.93 32.4968 114.851C32.5027 114.772 32.4927 114.693 32.4673 114.618C32.442 114.542 32.4018 114.473 32.3492 114.414C32.2967 114.355 32.2328 114.307 32.1613 114.273C32.0898 114.239 32.0122 114.219 31.9332 114.216C31.8541 114.213 31.7751 114.225 31.701 114.253C31.6268 114.281 31.559 114.323 31.5015 114.377C27.3842 117.703 28.9673 124.201 32.9576 124.119C34.073 124.043 35.1177 123.545 35.8794 122.726C39.545 119.237 36.3325 110.989 34.5434 106.227C38.2281 105.857 41.5961 107.96 45.0284 106.816C45.1889 106.781 45.3291 106.684 45.4181 106.546C45.5072 106.408 45.5378 106.24 45.5033 106.079C45.4687 105.919 45.3718 105.778 45.2338 105.689C45.0959 105.6 44.9282 105.569 44.7677 105.604Z" fill="#2C2C2C"/>
<path d="M74.7054 107.272C74.0818 107.816 73.6067 108.511 73.3243 109.289C73.1996 109.695 73.156 110.121 73.1961 110.544C73.2362 110.966 73.3591 111.377 73.5579 111.752C73.7567 112.126 74.0273 112.458 74.3544 112.728C74.6816 112.998 75.0587 113.201 75.4641 113.325C76.3894 113.623 78.0817 113.691 77.9779 112.728C77.9111 112.138 77.4184 112.27 76.5095 111.967C75.8626 111.694 74.8337 110.829 75.1544 109.888C75.4318 109.298 75.8002 108.755 76.2461 108.28C76.4617 107.925 77.1127 106.748 76.545 106.386C76.0605 106.09 75.4232 106.673 74.7054 107.272Z" fill="#2C2C2C"/>
<path d="M84.8939 136.823C83.8021 134.66 84.0833 130.372 81.0373 130.402C76.2868 130.549 74.0609 126.895 73.0101 122.193C71.9037 116.482 71.2801 110.688 71.146 104.872C72.1572 105.469 74.1769 106.053 74.6519 105.105C75.0995 104.191 73.2544 102.382 71.1405 102.126C71.1623 100.32 71.2497 98.1086 71.4325 96.3258C71.5802 96.379 71.7305 96.4246 71.8829 96.4624C73.3486 96.8285 74.0732 98.0936 74.7692 97.6086C75.2714 97.2425 74.8907 96.5594 74.5591 95.9761C74.2201 95.5327 73.7827 95.1744 73.2815 94.9294C72.7803 94.6845 72.2291 94.5597 71.6714 94.5648C71.6932 94.4378 71.7164 94.3107 71.741 94.185C71.7701 94.0341 71.7397 93.8777 71.6563 93.7486C71.5729 93.6195 71.4428 93.5278 71.2933 93.4925C71.1438 93.4572 70.9865 93.4811 70.8543 93.5593C70.722 93.6374 70.6251 93.7637 70.5837 93.9118C69.5231 97.6476 69.0778 101.531 69.2654 105.411C69.3809 111.19 70.0093 116.947 71.1432 122.615C72.2964 127.497 74.6628 131.644 79.7053 132.032C81.2583 132.116 81.5299 131.75 82.0581 132.715C83.0707 134.552 83.3313 138.293 84.651 137.66C84.7911 137.578 84.8944 137.446 84.9396 137.29C84.9849 137.134 84.9685 136.967 84.8939 136.823Z" fill="#2C2C2C"/>
<path d="M101.737 103.363C102.82 99.3702 103.596 95.2999 104.057 91.1882C104.259 88.199 103.266 85.49 100.509 84.2864C99.3122 80.8205 95.9483 79.263 92.4942 78.0458C85.3978 75.5867 74.6167 76.8231 68.5643 82.0199C65.6493 84.4968 65.0052 89.5447 68.739 91.0762C71.6349 92.2346 74.9293 91.2906 87.2811 89.0078C87.6724 92.6382 88.709 96.1692 90.3421 99.4343C91.4109 101.479 92.894 103.279 94.6968 104.717C95.1963 105.127 95.9251 104.668 99.1062 104.328C99.4944 104.287 99.8869 104.327 100.259 104.444C100.632 104.562 100.976 104.755 101.271 105.011C104.568 107.872 104.151 111.556 101.766 113.66C101.633 113.755 101.542 113.897 101.512 114.057C101.482 114.217 101.515 114.383 101.604 114.519C101.648 114.588 101.705 114.647 101.773 114.693C101.84 114.739 101.916 114.771 101.996 114.787C102.076 114.804 102.158 114.804 102.238 114.788C102.318 114.772 102.394 114.74 102.462 114.694C107.487 111.944 105.763 104.714 101.737 103.363ZM85.2245 80.3204C77.1073 82.3505 75.9541 83.0855 73.3653 84.5309C73.1524 84.647 71.4397 85.5214 71.3865 85.5514C71.2654 85.6421 71.114 85.6825 70.9638 85.6643C70.8136 85.6462 70.6762 85.5708 70.5802 85.4538C70.4841 85.3369 70.4367 85.1874 70.4478 85.0364C70.459 84.8854 70.5278 84.7445 70.64 84.6429C71.0264 84.1765 71.4465 83.739 71.8969 83.3342C74.7083 81.3618 77.9263 80.0466 81.3133 79.4857C82.5415 79.274 83.7902 79.1742 85.0348 79.0868C85.1189 79.0662 85.2064 79.0633 85.2916 79.0784C85.3769 79.0935 85.4581 79.1261 85.5301 79.1743C85.602 79.2225 85.6632 79.2852 85.7096 79.3584C85.756 79.4315 85.7867 79.5136 85.7998 79.5992C85.8128 79.6849 85.8079 79.7724 85.7853 79.8561C85.7627 79.9398 85.7229 80.0178 85.6686 80.0853C85.6142 80.1527 85.5464 80.2081 85.4695 80.2479C85.3926 80.2877 85.3082 80.311 85.2218 80.3163L85.2245 80.3204ZM92.2813 81.1032C92.1067 81.9776 89.7771 81.6497 89.294 81.3765C89.1576 81.2972 88.4042 80.6852 88.4861 80.2672C88.5789 79.7904 89.5479 79.5745 89.6925 79.5704C90.0981 79.6141 90.4985 79.6974 90.888 79.8191C91.4516 80.0049 92.4069 80.4857 92.2841 81.1032H92.2813Z" fill="#2C2C2C"/>
<path d="M0 193.207H258C266.284 193.207 273 199.923 273 208.207V258.001C273 266.285 266.284 273.001 258 273.001H15C6.71573 273.001 0 266.285 0 258.001V193.207Z" fill="#2D2D2D"/>
<path fill-rule="evenodd" clip-rule="evenodd" d="M0 193.133H14.589C6.50158 192.915 0.0109721 186.297 1.34457e-06 178.159L0 193.133Z" fill="#2D2D2D"/>
<path d="M57.1318 212.215C57.1318 212.815 57.5878 213.103 58.2358 213.103H60.0598L59.4118 216.511H57.6118C56.8198 216.511 56.2198 216.823 56.2198 217.615C56.2198 218.119 56.6278 218.527 57.2998 218.527H59.0278L58.1638 223.015C58.1398 223.111 58.1398 223.207 58.1398 223.303C58.1398 223.759 58.4038 224.311 59.0998 224.311C59.8438 224.311 60.2518 223.807 60.3958 223.111L61.2598 218.527H65.0518L64.1878 223.015C64.1638 223.111 64.1638 223.207 64.1638 223.303C64.1638 223.759 64.4278 224.311 65.1238 224.311C65.8678 224.311 66.2758 223.807 66.4198 223.111L67.2838 218.527H68.9158C69.7798 218.527 70.3318 217.975 70.3318 217.471C70.3318 216.895 69.9718 216.511 69.2278 216.511H67.6678L68.3158 213.103H69.8758C70.5718 213.103 71.2438 212.791 71.2438 211.999C71.2438 211.495 71.0038 211.087 70.1878 211.087H68.6998L69.5158 206.839C69.5398 206.719 69.5638 206.599 69.5638 206.479C69.5638 206.023 69.3238 205.543 68.5798 205.543C67.8838 205.543 67.4038 206.071 67.2838 206.743L66.4678 211.087H62.6758L63.4918 206.839C63.5158 206.719 63.5398 206.599 63.5398 206.479C63.5398 206.023 63.2998 205.543 62.5558 205.543C61.8598 205.543 61.3798 206.071 61.2598 206.743L60.4438 211.087H58.5478C57.6838 211.087 57.1318 211.447 57.1318 212.215ZM61.6438 216.511L62.2918 213.103H66.0838L65.4358 216.511H61.6438ZM81.007 218.191C82.687 218.191 84.727 217.783 86.167 216.247V223.063C86.167 223.759 86.719 224.311 87.415 224.311C88.159 224.311 88.663 223.759 88.663 223.063V206.815C88.663 206.071 88.159 205.567 87.415 205.567C86.719 205.567 86.167 206.071 86.167 206.815V213.199C86.167 214.879 84.127 216.031 81.151 216.031C77.575 216.031 76.399 213.847 76.399 210.199V206.815C76.399 206.071 75.895 205.567 75.151 205.567C74.455 205.567 73.903 206.071 73.903 206.815V210.199C73.903 215.119 76.399 218.191 81.007 218.191ZM95.6295 212.407C95.6295 211.663 95.1495 211.183 94.4055 211.183C93.7095 211.183 93.2295 211.663 93.2295 212.407V223.087C93.2295 223.831 93.5415 224.311 94.1895 224.311C94.7175 224.311 95.1255 223.999 95.5575 223.519L103.046 215.263V223.087C103.046 223.783 103.574 224.311 104.27 224.311C105.014 224.311 105.446 223.783 105.446 223.087V212.407C105.446 211.663 105.134 211.183 104.486 211.183C103.958 211.183 103.55 211.495 103.118 211.975L95.6295 220.231V212.407ZM112.464 211.183C111.768 211.183 111.264 211.735 111.216 212.407L110.784 218.407C110.592 220.927 110.448 222.103 109.272 222.103C108.6 222.103 108.096 222.535 108.096 223.231C108.096 223.879 108.648 224.311 109.392 224.311C111.336 224.311 112.728 223.183 112.968 219.703L113.424 213.343H119.16V223.087C119.16 223.759 119.712 224.311 120.384 224.311C121.08 224.311 121.56 223.759 121.56 223.087V212.407C121.56 211.735 121.032 211.183 120.336 211.183H112.464ZM128.278 212.407C128.278 211.663 127.798 211.183 127.054 211.183C126.358 211.183 125.878 211.663 125.878 212.407V223.087C125.878 223.831 126.19 224.311 126.838 224.311C127.366 224.311 127.774 223.999 128.206 223.519L135.694 215.263V223.087C135.694 223.783 136.222 224.311 136.918 224.311C137.662 224.311 138.094 223.783 138.094 223.087V212.407C138.094 211.663 137.782 211.183 137.134 211.183C136.606 211.183 136.198 211.495 135.766 211.975L128.278 220.231V212.407ZM143.649 229.927C144.393 229.927 144.873 229.399 144.873 228.703V222.223C146.001 223.567 147.609 224.407 149.505 224.407C153.009 224.407 155.649 221.527 155.649 217.759C155.649 213.967 152.793 211.087 149.025 211.087C145.281 211.087 142.425 213.967 142.425 217.759V228.703C142.425 229.399 142.953 229.927 143.649 229.927ZM149.025 222.247C146.601 222.247 144.777 220.303 144.777 217.759C144.777 215.167 146.601 213.247 149.025 213.247C151.449 213.247 153.297 215.167 153.297 217.759C153.297 220.303 151.449 222.247 149.025 222.247ZM164.772 224.407C166.572 224.407 168.276 223.615 169.404 222.223V223.111C169.404 223.807 169.932 224.335 170.628 224.335C171.324 224.335 171.852 223.807 171.852 223.111V217.759C171.852 213.967 168.972 211.087 165.252 211.087C161.508 211.087 158.628 213.967 158.628 217.759C158.628 221.527 161.268 224.407 164.772 224.407ZM165.252 222.247C162.852 222.247 160.98 220.303 160.98 217.759C160.98 215.167 162.852 213.247 165.252 213.247C167.7 213.247 169.5 215.167 169.5 217.759C169.5 220.303 167.7 222.247 165.252 222.247ZM190.207 224.551C193.423 224.551 195.679 222.487 195.679 219.631C195.679 216.943 193.615 215.335 190.687 215.335H187.231V212.407C187.231 211.663 186.799 211.183 186.055 211.183C185.311 211.183 184.831 211.687 184.831 212.383V215.695H177.895V212.407C177.895 211.663 177.439 211.183 176.695 211.183C175.951 211.183 175.495 211.663 175.495 212.407V223.087C175.495 223.783 175.975 224.311 176.671 224.311C177.415 224.311 177.895 223.783 177.895 223.087V217.855H184.831V219.247C184.831 222.319 187.039 224.551 190.207 224.551ZM187.231 217.399H190.687C192.223 217.399 193.327 218.191 193.327 219.631C193.327 221.167 192.031 222.271 190.207 222.271C188.455 222.271 187.231 220.999 187.231 219.199V217.399ZM205.007 224.407C206.471 224.407 208.271 223.807 209.351 222.943C209.615 222.751 209.735 222.511 209.735 222.247C209.735 221.671 209.207 221.143 208.655 221.143C208.583 221.143 208.271 221.071 207.791 221.431C207.143 221.911 205.991 222.343 205.007 222.343C202.607 222.343 200.783 220.855 200.399 218.599H209.519C210.167 218.599 210.623 218.143 210.623 217.543C210.623 213.775 208.415 211.087 204.647 211.087C200.855 211.087 198.167 213.847 198.167 217.759C198.167 221.647 201.023 224.407 205.007 224.407ZM200.423 216.679C200.783 214.591 202.319 213.151 204.647 213.151C206.879 213.151 208.151 214.687 208.415 216.679H200.423Z" fill="#FAFAFA"/>
<path d="M105.073 257.943C105.617 257.943 106.125 257.843 106.598 257.643C107.078 257.435 107.472 257.131 107.78 256.729C108.095 256.321 108.274 255.824 108.317 255.236H109.541C109.506 255.974 109.28 256.633 108.865 257.213C108.456 257.786 107.919 258.237 107.253 258.566C106.594 258.889 105.867 259.05 105.073 259.05C104.263 259.05 103.547 258.903 102.924 258.609C102.308 258.316 101.793 257.908 101.377 257.385C100.962 256.855 100.647 256.239 100.432 255.537C100.224 254.828 100.12 254.065 100.12 253.249V252.798C100.12 251.981 100.224 251.222 100.432 250.521C100.647 249.812 100.962 249.196 101.377 248.673C101.793 248.143 102.308 247.731 102.924 247.438C103.54 247.144 104.253 246.997 105.062 246.997C105.893 246.997 106.637 247.165 107.296 247.502C107.962 247.839 108.492 248.315 108.886 248.931C109.287 249.547 109.506 250.277 109.541 251.122H108.317C108.281 250.499 108.116 249.962 107.823 249.511C107.529 249.06 107.142 248.712 106.662 248.469C106.183 248.225 105.649 248.104 105.062 248.104C104.403 248.104 103.841 248.232 103.375 248.49C102.91 248.741 102.53 249.088 102.237 249.532C101.95 249.969 101.739 250.47 101.603 251.036C101.467 251.595 101.399 252.182 101.399 252.798V253.249C101.399 253.872 101.463 254.466 101.592 255.032C101.728 255.591 101.939 256.089 102.226 256.525C102.52 256.962 102.899 257.31 103.365 257.567C103.837 257.818 104.407 257.943 105.073 257.943ZM113.409 242.335V258.835H112.13V242.335H113.409ZM113.118 252.304L112.549 251.981C112.592 251.294 112.732 250.649 112.968 250.048C113.204 249.446 113.523 248.916 113.924 248.458C114.332 248 114.809 247.642 115.353 247.384C115.904 247.126 116.513 246.997 117.179 246.997C117.759 246.997 118.278 247.076 118.737 247.233C119.195 247.391 119.585 247.642 119.908 247.985C120.23 248.329 120.473 248.77 120.638 249.307C120.81 249.844 120.896 250.499 120.896 251.272V258.835H119.607V251.262C119.607 250.46 119.496 249.833 119.274 249.382C119.052 248.924 118.737 248.598 118.328 248.404C117.92 248.211 117.437 248.114 116.878 248.114C116.262 248.114 115.722 248.25 115.256 248.522C114.798 248.787 114.411 249.135 114.096 249.564C113.788 249.987 113.552 250.442 113.387 250.929C113.222 251.409 113.133 251.867 113.118 252.304ZM125.633 247.212V258.835H124.355V247.212H125.633ZM124.129 243.85C124.129 243.606 124.204 243.402 124.355 243.237C124.512 243.065 124.727 242.979 124.999 242.979C125.271 242.979 125.486 243.065 125.644 243.237C125.809 243.402 125.891 243.606 125.891 243.85C125.891 244.086 125.809 244.29 125.644 244.462C125.486 244.627 125.271 244.709 124.999 244.709C124.727 244.709 124.512 244.627 124.355 244.462C124.204 244.29 124.129 244.086 124.129 243.85ZM130.575 242.335V258.835H129.296V242.335H130.575ZM135.516 242.335V258.835H134.238V242.335H135.516ZM140.457 247.212V258.835H139.179V247.212H140.457ZM138.953 243.85C138.953 243.606 139.029 243.402 139.179 243.237C139.337 243.065 139.551 242.979 139.824 242.979C140.096 242.979 140.311 243.065 140.468 243.237C140.633 243.402 140.715 243.606 140.715 243.85C140.715 244.086 140.633 244.29 140.468 244.462C140.311 244.627 140.096 244.709 139.824 244.709C139.551 244.709 139.337 244.627 139.179 244.462C139.029 244.29 138.953 244.086 138.953 243.85ZM145.248 249.693V258.835H143.97V247.212H145.195L145.248 249.693ZM144.958 252.304L144.389 251.981C144.432 251.294 144.572 250.649 144.808 250.048C145.044 249.446 145.363 248.916 145.764 248.458C146.172 248 146.648 247.642 147.193 247.384C147.744 247.126 148.353 246.997 149.019 246.997C149.599 246.997 150.118 247.076 150.576 247.233C151.035 247.391 151.425 247.642 151.747 247.985C152.07 248.329 152.313 248.77 152.478 249.307C152.65 249.844 152.736 250.499 152.736 251.272V258.835H151.447V251.262C151.447 250.46 151.336 249.833 151.114 249.382C150.892 248.924 150.576 248.598 150.168 248.404C149.76 248.211 149.277 248.114 148.718 248.114C148.102 248.114 147.562 248.25 147.096 248.522C146.638 248.787 146.251 249.135 145.936 249.564C145.628 249.987 145.392 250.442 145.227 250.929C145.062 251.409 144.973 251.867 144.958 252.304ZM163.714 247.212H164.907V258.631C164.907 259.641 164.713 260.507 164.326 261.23C163.947 261.954 163.406 262.509 162.704 262.896C162.01 263.282 161.19 263.476 160.244 263.476C159.765 263.476 159.27 263.4 158.762 263.25C158.261 263.107 157.784 262.885 157.333 262.584C156.889 262.29 156.51 261.925 156.195 261.488L156.914 260.704C157.387 261.277 157.892 261.696 158.429 261.961C158.966 262.233 159.546 262.369 160.169 262.369C160.907 262.369 161.53 262.222 162.038 261.929C162.554 261.635 162.944 261.213 163.209 260.661C163.481 260.11 163.617 259.447 163.617 258.674V249.769L163.714 247.212ZM155.55 253.142V252.916C155.55 252.014 155.65 251.201 155.851 250.478C156.059 249.747 156.356 249.124 156.742 248.608C157.129 248.086 157.598 247.688 158.15 247.416C158.708 247.137 159.339 246.997 160.04 246.997C160.714 246.997 161.312 247.108 161.834 247.33C162.357 247.552 162.808 247.871 163.188 248.286C163.567 248.701 163.872 249.196 164.101 249.769C164.337 250.341 164.509 250.979 164.617 251.681V254.549C164.531 255.208 164.373 255.813 164.144 256.364C163.915 256.909 163.61 257.385 163.231 257.793C162.851 258.194 162.393 258.506 161.856 258.728C161.326 258.942 160.714 259.05 160.019 259.05C159.324 259.05 158.701 258.907 158.15 258.62C157.598 258.334 157.129 257.929 156.742 257.406C156.356 256.876 156.059 256.25 155.851 255.526C155.65 254.803 155.55 254.008 155.55 253.142ZM156.839 252.916V253.142C156.839 253.822 156.907 254.452 157.043 255.032C157.179 255.612 157.387 256.117 157.666 256.547C157.946 256.977 158.3 257.313 158.73 257.557C159.159 257.8 159.664 257.922 160.244 257.922C160.982 257.922 161.602 257.782 162.103 257.503C162.604 257.216 163.002 256.84 163.295 256.375C163.589 255.902 163.804 255.387 163.94 254.828V251.487C163.861 251.108 163.739 250.721 163.575 250.327C163.417 249.933 163.195 249.572 162.909 249.242C162.629 248.906 162.271 248.637 161.834 248.437C161.405 248.229 160.882 248.125 160.266 248.125C159.679 248.125 159.167 248.247 158.73 248.49C158.3 248.734 157.946 249.074 157.666 249.511C157.387 249.94 157.179 250.445 157.043 251.025C156.907 251.605 156.839 252.236 156.839 252.916Z" fill="#FAFAFA"/>
</svg>
