<svg width="354" height="354" viewBox="0 0 354 354" fill="none" xmlns="http://www.w3.org/2000/svg">
<path d="M260.558 118.385C261.583 98.2529 277.019 82.0999 296.181 82.0538C315.703 82.0007 332.148 98.9166 332.148 120.744L332.098 122.955C341.392 127.599 346.012 139.57 341.447 150.418C343.043 151.726 344.196 153.494 344.75 155.481C345.304 157.469 345.232 159.578 344.543 161.523C343.854 163.468 342.583 165.153 340.901 166.348C339.22 167.543 337.211 168.191 335.148 168.203C305.323 168.104 277.433 159.475 248.161 159.155C247.898 159.15 247.648 159.042 247.464 158.854C247.28 158.667 247.177 158.414 247.177 158.151C247.176 158.022 247.201 157.893 247.25 157.773C247.299 157.652 247.371 157.543 247.462 157.451C247.554 157.359 247.663 157.286 247.783 157.236C247.903 157.187 248.031 157.162 248.161 157.162C277.393 157.362 306.412 165.624 335.148 165.527C336.101 165.525 337.044 165.334 337.922 164.965C338.8 164.596 339.597 164.056 340.265 163.376C341.035 162.599 341.619 161.658 341.976 160.623C342.332 159.589 342.451 158.488 342.323 157.401C342.196 156.314 341.825 155.27 341.239 154.347C340.653 153.423 339.866 152.643 338.937 152.064C338.639 151.882 338.419 151.596 338.319 151.261C338.219 150.926 338.246 150.566 338.396 150.25C342.998 141.598 339.58 129.214 330.031 125.176C329.751 125.062 329.514 124.862 329.355 124.605C329.196 124.347 329.123 124.046 329.146 123.744L329.293 120.744C329.293 100.78 314.272 84.9124 296.181 84.8611C279.239 84.815 264.098 98.6104 262.822 119.417C262.811 119.694 262.7 119.958 262.511 120.16C262.321 120.363 262.064 120.49 261.788 120.519C248.69 121.974 242.639 138.396 249.832 149.094C249.958 149.302 249.997 149.55 249.942 149.787C249.888 150.023 249.743 150.229 249.538 150.36C249.441 150.427 249.33 150.473 249.214 150.497C249.098 150.52 248.979 150.519 248.863 150.494C248.747 150.47 248.637 150.422 248.54 150.354C248.443 150.286 248.361 150.199 248.299 150.098C240.322 138.274 246.584 120.896 260.558 118.385Z" fill="#FAFAFA"/>
<path d="M239.252 186.989C239.203 181.178 238.907 160.297 238.808 152.13C238.807 151.114 238.543 150.115 238.044 149.23C237.544 148.345 236.824 147.603 235.955 147.077C231.822 144.53 224.59 140.078 224.59 140.078C224.59 140.078 211.748 133.581 167.95 133.126C124.21 132.669 110.63 140.482 110.63 140.482C110.63 140.482 102.955 144.818 98.4773 147.328C97.5504 147.864 96.7806 148.635 96.2451 149.562C95.7095 150.489 95.427 151.541 95.4258 152.612C95.4771 160.98 95.624 181.733 95.6718 187.909C95.6828 188.756 95.8726 189.592 96.2289 190.361C96.5852 191.13 97.0998 191.815 97.7392 192.371C112.823 205.405 175.088 204.163 195.13 202.623C195.163 201.626 195.218 200.561 195.259 199.412L202.916 199.159C203.021 200.067 203.215 200.962 203.495 201.832C226.372 199.223 234.647 194.263 237.619 191.196C238.156 190.638 238.578 189.979 238.858 189.256C239.139 188.534 239.273 187.763 239.252 186.989ZM113.028 145.994C113.497 144.415 113.913 147.557 135.07 149.806C156.786 151.851 178.647 151.846 200.362 149.792C221.365 147.603 221.887 144.563 222.354 145.994C222.388 146.063 222.407 146.138 222.41 146.214C222.414 146.291 222.401 146.368 222.374 146.439C222.346 146.511 222.304 146.576 222.25 146.631C222.196 146.685 222.132 146.728 222.06 146.756C215.109 149.173 207.888 150.729 200.558 151.39C178.73 153.795 156.703 153.795 134.874 151.39C127.548 150.752 120.328 149.22 113.374 146.829C113.293 146.8 113.22 146.755 113.158 146.697C113.097 146.638 113.048 146.567 113.015 146.488C112.983 146.409 112.967 146.325 112.969 146.239C112.972 146.154 112.992 146.071 113.028 145.994ZM235.445 154.313C225.71 160.359 203.714 163.086 192.294 164.048C177.253 165.222 162.148 165.326 147.092 164.359C134.431 163.525 111.943 161.06 100.677 155.175C100.533 155.091 100.426 154.955 100.38 154.795C100.334 154.634 100.352 154.462 100.431 154.315C100.51 154.168 100.643 154.057 100.802 154.006C100.961 153.955 101.133 153.968 101.283 154.042C112.386 159.667 134.709 161.83 147.152 162.589C162.129 163.464 177.148 163.35 192.11 162.248C233.351 159.079 234.413 151.709 235.622 153.514C235.699 153.646 235.723 153.801 235.69 153.95C235.658 154.098 235.57 154.229 235.445 154.316V154.313Z" fill="#FFB769"/>
<path d="M239.251 317.951C239.151 311.283 238.955 293.999 238.856 285.634C238.833 284.198 238.446 282.792 237.732 281.546C237.018 280.3 236 279.256 234.773 278.51C223.494 271.545 224.74 272.173 222.62 271.471C196.436 278.613 137.736 278.181 112.458 271.807C111.042 272.356 111.765 271.956 99.7639 278.761C98.4435 279.504 97.3457 280.586 96.5841 281.896C95.8226 283.205 95.4251 284.695 95.4327 286.209C95.4841 294.737 95.631 311.859 95.6788 318.797C95.6804 320.19 96.0275 321.561 96.6888 322.787C97.3501 324.013 98.3051 325.056 99.4683 325.822C105.865 329.927 122.79 335.713 167.76 335.713C213.271 335.713 229.852 329.302 235.856 324.854C236.926 324.053 237.792 323.01 238.382 321.81C238.972 320.61 239.27 319.288 239.251 317.951ZM113.027 278.14C113.496 276.561 113.912 279.705 135.068 281.954C156.784 284 178.645 283.994 200.36 281.938C221.363 279.751 221.885 276.712 222.352 278.14C222.386 278.209 222.406 278.284 222.409 278.361C222.413 278.438 222.4 278.514 222.373 278.586C222.345 278.658 222.303 278.723 222.249 278.777C222.195 278.832 222.13 278.875 222.059 278.903C215.107 281.32 207.886 282.877 200.557 283.539C178.728 285.942 156.701 285.942 134.872 283.539C127.546 282.899 120.326 281.367 113.372 278.977C113.291 278.948 113.218 278.903 113.156 278.844C113.095 278.785 113.046 278.714 113.013 278.635C112.981 278.556 112.965 278.472 112.967 278.386C112.97 278.301 112.99 278.217 113.027 278.14ZM235.443 286.459C225.722 292.493 203.794 295.226 192.292 296.194C177.251 297.368 162.146 297.472 147.09 296.506C134.442 295.674 111.942 293.206 100.675 287.323C100.536 287.237 100.435 287.101 100.392 286.943C100.35 286.784 100.369 286.616 100.446 286.472C100.523 286.327 100.652 286.217 100.807 286.165C100.962 286.112 101.132 286.12 101.281 286.188C112.382 291.812 134.7 293.976 147.15 294.736C162.128 295.611 177.146 295.497 192.108 294.394C233.349 291.227 234.411 283.855 235.62 285.661C235.696 285.792 235.721 285.947 235.688 286.095C235.655 286.243 235.568 286.374 235.443 286.461V286.459Z" fill="#FFB769"/>
<path d="M37.4283 285.954C38.839 281.121 41.768 276.871 45.782 273.831C49.796 270.792 54.6817 269.126 59.7162 269.079C65.4854 269.209 71.0076 271.446 75.2407 275.368C79.4738 279.29 82.1251 284.626 82.6943 290.369C85.7476 292.491 87.9928 295.585 89.0649 299.145C90.137 302.706 89.9728 306.525 88.599 309.98L89.238 309.955C89.5016 309.942 89.7596 310.034 89.9553 310.212C90.151 310.389 90.2683 310.636 90.2814 310.9C90.2946 311.163 90.2025 311.421 90.0254 311.617C89.8483 311.813 89.6007 311.93 89.3371 311.943L87.0733 312.06C86.8934 312.077 86.7124 312.044 86.5493 311.967C86.3861 311.889 86.2469 311.769 86.1462 311.619C86.0455 311.469 85.987 311.295 85.977 311.115C85.967 310.934 86.0057 310.755 86.0892 310.594C87.6956 307.414 88.0668 303.752 87.1309 300.314C86.195 296.877 84.0185 293.908 81.0217 291.981C80.8743 291.892 80.7518 291.768 80.6658 291.619C80.5797 291.47 80.5329 291.302 80.5296 291.13C78.7047 274.315 59.9392 265.67 46.9739 276.35C43.4089 279.347 40.8922 283.403 39.7895 287.928C39.7437 288.108 39.6627 288.278 39.5513 288.427C39.44 288.576 39.3003 288.701 39.1404 288.796C38.9804 288.891 38.8034 288.954 38.6192 288.98C38.4351 289.007 38.2476 288.997 38.0673 288.951C25.0808 285.882 14.9918 300.847 22.0771 312.798C22.2099 313.009 22.2853 313.251 22.296 313.5C22.3067 313.749 22.2522 313.997 22.138 314.218C22.0239 314.44 21.8539 314.628 21.6448 314.764C21.4358 314.9 21.195 314.979 20.9461 314.993L17.2556 315.136C15.7674 315.195 14.3586 315.824 13.3209 316.892C12.5377 317.65 12.0012 318.626 11.7816 319.693C11.5621 320.76 11.6696 321.869 12.0903 322.874C12.511 323.88 13.2251 324.734 14.1394 325.327C15.0537 325.92 16.1256 326.223 17.2149 326.197C31.1378 325.643 86.8361 323.096 90.723 322.93C90.9665 322.924 91.2031 323.011 91.3855 323.172C91.5679 323.334 91.6827 323.558 91.7072 323.8C91.7091 324.042 91.6185 324.276 91.454 324.453C91.2895 324.63 91.0635 324.738 90.8222 324.754C77.7242 325.415 21.3974 328.825 17.3671 329.011C15.709 329.065 14.073 328.619 12.6719 327.731C11.2708 326.843 10.1695 325.553 9.51128 324.03C8.85307 322.508 8.66843 320.822 8.98138 319.193C9.29433 317.563 10.0904 316.066 11.266 314.896C12.8142 313.278 14.9312 312.326 17.1689 312.241L18.5477 312.193C12.7793 299.615 22.3515 283.844 37.4283 285.954Z" fill="#FAFAFA"/>
<path d="M247.521 241.495C247.969 240.806 248.497 240.172 249.094 239.607C251.236 237.589 253.91 236.904 256.031 238.971C257.793 241.21 258.778 243.961 258.836 246.809C264.474 246.398 266.693 252.358 264.888 257.673C266.217 258.317 276.765 263.737 280.731 265.743C281.023 265.901 281.251 266.155 281.377 266.463C281.502 266.771 281.517 267.112 281.42 267.429C281.313 267.748 281.095 268.017 280.806 268.188C280.517 268.359 280.176 268.42 279.846 268.36C270.309 266.525 258.907 264.112 248.11 263.935C247.847 263.929 247.596 263.82 247.413 263.631C247.229 263.443 247.126 263.19 247.126 262.927C247.125 262.797 247.151 262.669 247.2 262.549C247.249 262.43 247.322 262.321 247.413 262.23C247.505 262.138 247.613 262.066 247.733 262.016C247.852 261.967 247.981 261.942 248.11 261.942C255.814 262.004 263.499 262.705 271.086 264.038C261.767 259.374 262.015 259.673 261.689 258.873C261.575 258.505 261.61 258.107 261.789 257.765C263.736 253.763 262.589 248.512 257.803 249.692C257.599 249.741 257.387 249.741 257.183 249.692C256.98 249.643 256.791 249.546 256.632 249.409C256.474 249.273 256.35 249.1 256.271 248.906C256.192 248.712 256.161 248.502 256.179 248.294C256.411 245.97 255.941 242.299 254.358 240.647C252.7 238.916 250.015 241.297 248.751 243.302C248.609 243.525 248.387 243.686 248.131 243.751C247.875 243.817 247.604 243.783 247.372 243.656C246.805 243.324 246.175 243.116 245.522 243.045C244.869 242.975 244.209 243.044 243.584 243.248C243.362 243.326 243.118 243.316 242.903 243.219C242.688 243.122 242.518 242.946 242.43 242.728C242.341 242.509 242.34 242.265 242.427 242.046C242.513 241.826 242.681 241.649 242.896 241.55C244.381 240.978 246.022 240.958 247.521 241.495Z" fill="#FAFAFA"/>
<path d="M164.296 30.4302C164.933 29.6814 166.014 30.1859 166.271 30.3611C166.469 30.521 166.719 30.6034 166.974 30.593C167.228 30.5826 167.471 30.48 167.655 30.3045C168.986 28.8743 164.115 25.2901 162.724 29.5575C162.368 30.6532 163.469 31.4001 164.296 30.4302Z" fill="#FAFAFA"/>
<path d="M172.602 30.0138C173.004 29.7435 173.477 29.6016 173.961 29.607C174.445 29.6124 174.915 29.7648 175.311 30.0439C175.472 30.2428 175.702 30.3736 175.956 30.4103C176.209 30.4471 176.468 30.387 176.679 30.2421C178.353 28.9306 173.684 24.7658 171.192 28.8492C171.037 29.0362 170.964 29.277 170.987 29.5185C171.01 29.7599 171.128 29.9824 171.315 30.1368C171.502 30.2913 171.743 30.3651 171.984 30.342C172.226 30.3189 172.448 30.2009 172.602 30.0138Z" fill="#FAFAFA"/>
<path d="M173.99 35.7402C174.338 35.7619 174.683 35.6119 174.948 35.3231C175.213 35.0344 175.377 34.6305 175.404 34.2004C175.431 33.7703 175.318 33.3492 175.091 33.0297C174.864 32.7102 174.541 32.5185 174.193 32.4967C173.845 32.475 173.5 32.625 173.235 32.9138C172.97 33.2025 172.806 33.6064 172.779 34.0365C172.752 34.4666 172.865 34.8877 173.092 35.2072C173.319 35.5267 173.642 35.7184 173.99 35.7402Z" fill="#FAFAFA"/>
<path d="M164.949 35.6484C165.297 35.6701 165.642 35.5201 165.907 35.2313C166.172 34.9426 166.336 34.5387 166.363 34.1086C166.39 33.6785 166.277 33.2574 166.05 32.9379C165.823 32.6184 165.5 32.4267 165.152 32.405C164.804 32.3832 164.459 32.5332 164.194 32.822C163.929 33.1107 163.765 33.5146 163.738 33.9447C163.711 34.3748 163.824 34.7959 164.051 35.1154C164.278 35.4349 164.601 35.6266 164.949 35.6484Z" fill="#FAFAFA"/>
<path d="M155.537 59.3237C138.521 62.8814 126.655 80.0663 121.318 96.5397C119.799 101.228 118.629 107.358 120.304 111.997C122.465 117.985 131.365 120.934 137.63 120.316C137.861 120.298 138.089 120.369 138.269 120.515C138.449 120.661 138.565 120.87 138.595 121.099C138.625 121.328 138.566 121.56 138.43 121.747C138.294 121.934 138.091 122.062 137.864 122.104C130.673 122.946 120.957 119.709 118.286 112.749C116.313 107.616 117.417 101.108 119.045 95.8211C124.626 77.698 137.436 59.6777 156.169 56.3076C156.496 56.2544 156.831 56.3157 157.117 56.4812C157.404 56.6467 157.624 56.9061 157.741 57.2156C161.782 67.7736 176.829 71.2145 183.339 56.2155C183.451 55.9581 183.639 55.7404 183.876 55.5905C184.114 55.4406 184.391 55.3655 184.672 55.3748C201.696 55.7589 211.243 70.995 218.224 86.4755C223.003 97.0866 225.481 108.59 216.808 116.226C212.931 119.494 208.204 121.591 203.179 122.274C202.93 122.3 202.681 122.231 202.482 122.08C202.282 121.928 202.149 121.707 202.107 121.46C202.066 121.213 202.121 120.96 202.26 120.753C202.399 120.545 202.613 120.398 202.857 120.343C207.5 119.704 211.856 117.723 215.388 114.641C223.217 107.7 220.353 96.9415 215.999 87.4932C209.627 73.6394 200.713 59.0104 185.539 58.1944C183.666 62.4457 180.359 65.9035 176.195 67.963C168.241 71.4163 159.065 67.0497 155.537 59.3237Z" fill="#FAFAFA"/>
<path d="M143.162 87.7441C142.705 90.3093 142.658 92.9308 143.023 95.5108C143.037 95.766 143.15 96.0056 143.338 96.1791C143.526 96.3527 143.773 96.4467 144.029 96.4414C144.285 96.4362 144.528 96.332 144.708 96.1509C144.889 95.9697 144.992 95.7257 144.996 95.4701C145.325 92.8993 145.325 90.2972 144.996 87.7264C144.995 87.606 144.97 87.487 144.923 87.3762C144.876 87.2654 144.807 87.165 144.721 87.0807C144.635 86.9964 144.534 86.9298 144.422 86.8848C144.31 86.8398 144.191 86.8172 144.07 86.8184C143.95 86.8196 143.831 86.8444 143.72 86.8916C143.609 86.9387 143.509 87.0072 143.425 87.0932C143.34 87.1792 143.274 87.2809 143.229 87.3926C143.184 87.5043 143.161 87.6237 143.162 87.7441Z" fill="#FAFAFA"/>
<path d="M188.957 85.452C188.385 88.0352 188.336 90.7065 188.812 93.309C188.817 93.4356 188.848 93.5598 188.901 93.6747C188.955 93.7895 189.03 93.8927 189.124 93.9783C189.217 94.064 189.326 94.1304 189.445 94.1738C189.564 94.2171 189.691 94.2367 189.817 94.2312C189.944 94.2257 190.068 94.1954 190.183 94.1419C190.298 94.0884 190.401 94.0129 190.486 93.9195C190.572 93.8261 190.639 93.7168 190.682 93.5978C190.725 93.4788 190.745 93.3524 190.739 93.2258C190.917 90.6811 190.911 88.127 190.723 85.583C190.732 85.467 190.718 85.3505 190.681 85.24C190.645 85.1296 190.587 85.0274 190.511 84.9393C190.435 84.8512 190.343 84.7789 190.239 84.7266C190.135 84.6742 190.022 84.6429 189.906 84.6343C189.79 84.6257 189.673 84.64 189.563 84.6764C189.452 84.7129 189.35 84.7707 189.262 84.8466C189.174 84.9226 189.102 85.0151 189.049 85.119C188.997 85.2229 188.966 85.336 188.957 85.452Z" fill="#FAFAFA"/>
<path d="M173.322 114.054C173.276 112.663 172.691 111.345 171.69 110.378C170.689 109.411 169.351 108.871 167.959 108.873C167.266 108.858 166.577 108.981 165.932 109.234C165.286 109.487 164.697 109.865 164.199 110.347C163.7 110.828 163.302 111.404 163.027 112.04C162.752 112.676 162.605 113.361 162.596 114.054C162.564 114.778 162.679 115.502 162.934 116.181C163.189 116.859 163.579 117.479 164.08 118.003C164.581 118.527 165.183 118.944 165.85 119.229C166.517 119.514 167.234 119.661 167.959 119.661C168.684 119.661 169.402 119.514 170.069 119.229C170.735 118.944 171.338 118.527 171.839 118.003C172.34 117.479 172.73 116.859 172.985 116.181C173.24 115.502 173.355 114.778 173.322 114.054Z" fill="#FAFAFA"/>
<path d="M169.854 103.535C169.375 103.925 168.995 104.423 168.745 104.987C168.494 105.552 168.381 106.168 168.413 106.785C168.354 106.938 168.334 107.104 168.356 107.267C168.379 107.43 168.441 107.584 168.539 107.716C168.637 107.848 168.767 107.954 168.916 108.022C169.065 108.091 169.23 108.121 169.394 108.109C170.599 108.226 171.805 107.897 172.784 107.184C173.762 106.471 174.445 105.424 174.704 104.241C175.132 102.165 171.633 101.919 169.854 103.535Z" fill="#FAFAFA"/>
<path d="M180.488 41.1323C181.36 41.037 182.177 40.6592 182.814 40.0564C183.451 39.4536 183.874 38.6588 184.017 37.7934C184.161 36.9281 184.017 36.0395 183.608 35.2634C183.199 34.4872 182.548 33.8661 181.753 33.4947C181.493 33.3661 181.217 33.2687 180.934 33.2044C181.092 31.3274 181.078 29.4397 180.891 27.5652C179.197 13.5486 158.138 15.5186 158.428 32.8062C152.543 34.3001 153.839 41.2066 158.448 41.7287C157.432 44.0563 155.849 48.2777 158.023 49.5628L157.988 50.1504C157.848 52.3824 158.481 54.6604 160.71 54.7099C160.896 55.4249 161.347 56.0423 161.971 56.4368C162.596 56.8313 163.347 56.9733 164.073 56.8339C165.351 60.5509 167.894 61.0271 169.829 59.3845C170.152 59.6504 170.528 59.845 170.932 59.9554C171.336 60.0658 171.758 60.0897 172.172 60.0253C172.586 59.961 172.981 59.8099 173.332 59.582C173.683 59.3541 173.982 59.0546 174.21 58.703C174.73 57.9976 175.099 57.1926 175.295 56.3383C177.19 56.7153 178.585 55.14 179.229 53.3382C180.334 53.6001 181.52 52.9328 181.688 51.0531C181.74 50.3514 181.684 49.6459 181.523 48.961C182.022 48.7529 182.443 48.3946 182.729 47.9359C183.014 47.4772 183.15 46.9408 183.116 46.4015C183.116 44.8599 181.297 42.3305 180.314 41.1376C180.372 41.1402 180.43 41.1384 180.488 41.1323ZM172.378 44.8493C171.778 44.6873 171.187 44.4935 170.608 44.2687C169.055 43.5607 169.733 43.4386 168.983 43.9147C168.21 44.3899 167.331 44.6654 166.425 44.7165C166.302 44.7332 166.178 44.7021 166.077 44.6297C165.976 44.5573 165.907 44.449 165.884 44.3271C165.867 44.2048 165.898 44.0808 165.972 43.9816C166.045 43.8823 166.155 43.8158 166.276 43.7961C167.258 43.3734 168.17 42.8054 168.983 42.1111C169.116 42.0022 169.283 41.9439 169.455 41.9465C169.627 41.9491 169.793 42.0124 169.923 42.1252C170.771 42.8392 171.715 43.4314 172.726 43.8846C172.79 43.9075 172.849 43.9427 172.899 43.9882C172.949 44.0338 172.989 44.0887 173.018 44.1499C173.047 44.2112 173.064 44.2775 173.067 44.3451C173.07 44.4127 173.06 44.4802 173.037 44.5439C173.014 44.6076 172.979 44.6662 172.933 44.7163C172.888 44.7663 172.833 44.807 172.772 44.8358C172.71 44.8646 172.644 44.8811 172.577 44.8844C172.509 44.8876 172.441 44.8775 172.378 44.8546V44.8493ZM180.213 39.1853C180.056 39.2083 179.906 39.2698 179.778 39.3644C179.65 39.459 179.547 39.5837 179.478 39.7275C179.41 39.8713 179.377 40.0299 179.385 40.189C179.392 40.3482 179.438 40.5032 179.52 40.6402C179.39 40.6478 179.263 40.6853 179.15 40.7498C179.037 40.8142 178.941 40.9039 178.868 41.0119H178.773C177.357 42.8315 175.233 37.1321 170.565 36.5356C170.713 35.4123 170.704 34.2739 170.539 33.1531C170.353 31.4185 170.307 30.5671 169.477 30.4822C168.572 30.3901 168.312 31.4539 167.986 33.0451C167.726 34.2712 167.733 35.5391 168.008 36.7621C165.756 37.5215 164.965 39.3923 162.975 40.6703C162.078 41.2332 161.71 40.9853 161.366 40.3694C161.279 40.184 161.148 40.0223 160.985 39.8977C160.822 39.7731 160.631 39.6893 160.429 39.6533C160.228 39.6173 160.02 39.6301 159.824 39.6906C159.628 39.7511 159.449 39.8576 159.303 40.0012L158.471 39.9216C158.109 39.836 157.77 39.6699 157.481 39.4357C157.192 39.2014 156.959 38.9051 156.8 38.5685C156.641 38.232 156.56 37.864 156.563 37.4919C156.565 37.1197 156.652 36.7529 156.816 36.4187C157.166 35.9727 157.613 35.613 158.124 35.3675C158.635 35.122 159.196 34.9972 159.763 35.0027C160.071 34.9767 160.358 34.834 160.565 34.6038C160.772 34.3736 160.883 34.0732 160.876 33.7637C160.681 20.3295 173.716 17.9594 177.353 24.8819C178.438 27.5041 178.853 30.3552 178.56 33.1779C178.489 34.3178 178.383 34.608 178.789 35.0435C179.286 35.5745 179.727 35.3408 180.295 35.424C180.756 35.4862 181.178 35.7159 181.48 36.0694C181.782 36.4228 181.944 36.8752 181.934 37.3401C181.924 37.8051 181.743 38.25 181.425 38.59C181.108 38.9301 180.677 39.1413 180.213 39.1835V39.1853Z" fill="#FAFAFA"/>
<path d="M239.251 253.352C239.152 246.866 238.956 228.612 238.807 220.263C238.797 218.954 238.453 217.669 237.807 216.53C237.162 215.39 236.236 214.435 235.118 213.753C230.936 211.165 224.589 207.259 224.589 207.259C221.837 206.086 218.966 205.213 216.027 204.655C213.082 205.241 209.765 205.783 206.028 206.261C207.48 208.013 211.924 212.195 212.638 215.236C215.696 214.711 218.701 213.912 221.615 212.847C221.759 212.788 221.921 212.789 222.065 212.849C222.209 212.91 222.323 213.025 222.382 213.169C222.44 213.313 222.44 213.475 222.379 213.619C222.319 213.763 222.204 213.876 222.059 213.935C219.025 215.108 215.892 216.007 212.698 216.62C212.231 219.32 209.473 218.775 206.981 217.67C185.404 221.129 155.663 221.125 133.972 218.454C128.662 221.325 126.991 219.444 127.679 217.569C122.797 216.897 118.001 215.705 113.373 214.011C113.216 213.946 113.091 213.821 113.026 213.664C112.961 213.507 112.961 213.33 113.027 213.173C113.092 213.016 113.217 212.892 113.374 212.827C113.531 212.762 113.708 212.762 113.865 212.827C118.595 214.462 123.487 215.583 128.456 216.173C130.933 213.384 133.052 210.298 134.765 206.985C128.439 206.399 123.139 205.654 118.707 204.818C115.913 205.442 113.203 206.4 110.638 207.671C110.638 207.671 103.898 211.47 99.3701 214.013C98.1752 214.703 97.1826 215.694 96.4917 216.889C95.8008 218.083 95.4359 219.438 95.4336 220.817C95.4849 229.345 95.6318 247.441 95.6796 254.215C95.6767 255.463 95.9804 256.693 96.564 257.797C97.1477 258.9 97.9933 259.843 99.0267 260.543C104.979 264.657 121.61 270.752 167.761 270.752C214.454 270.752 230.69 263.998 236.299 259.539C237.241 258.811 237.999 257.871 238.511 256.797C239.024 255.722 239.278 254.542 239.251 253.352ZM235.444 221.492C225.723 227.524 203.795 230.258 192.293 231.227C177.252 232.4 162.147 232.504 147.091 231.536C134.444 230.704 111.942 228.239 100.676 222.354C100.532 222.27 100.425 222.134 100.379 221.974C100.333 221.813 100.351 221.641 100.43 221.494C100.509 221.346 100.642 221.236 100.801 221.185C100.96 221.134 101.132 221.147 101.282 221.221C112.385 226.846 134.706 229.009 147.151 229.768C162.128 230.642 177.147 230.528 192.109 229.426C203.329 228.564 225.121 226.258 234.835 220.499C234.965 220.42 235.121 220.397 235.268 220.434C235.416 220.47 235.543 220.563 235.621 220.693C235.697 220.825 235.721 220.98 235.689 221.128C235.656 221.276 235.569 221.406 235.444 221.493V221.492Z" fill="#FFB769"/>
<path d="M136.15 217.088C158.947 219.174 181.895 218.966 204.649 216.469C200.249 213.968 196.286 212.044 195.364 207.334C178.144 208.51 160.867 208.611 143.634 207.637C143.568 211.84 139.938 214.577 136.15 217.088Z" fill="#FFB769"/>
<path d="M128.943 218.3L128.994 218.345L128.943 218.3Z" fill="#FAFAFA"/>
<path d="M213.717 214.048C212.399 210.685 208.062 207.025 206.239 204.667C205.233 203.175 204.481 201.527 204.014 199.789C204.609 199.688 205.2 199.566 205.784 199.417C206.025 199.366 206.243 199.241 206.41 199.061C206.578 198.881 206.685 198.654 206.719 198.41C207.85 191.245 208.983 184.121 209.868 176.958C210.928 168.589 211.552 160.172 211.737 151.739C211.642 146.319 209.757 141.083 206.374 136.848C203.814 133.438 200.842 130.359 197.524 127.683C197.393 127.579 197.239 127.508 197.076 127.475L202.296 96.2261C202.329 96.0172 202.316 95.8034 202.256 95.6005C202.196 95.3975 202.091 95.2106 201.95 95.0533C201.808 94.8961 201.633 94.7726 201.437 94.6919C201.242 94.6112 201.031 94.5754 200.819 94.5871L134.883 98.0032C134.707 98.0117 134.535 98.0595 134.38 98.1432C134.225 98.2268 134.091 98.3442 133.987 98.4867C133.883 98.6292 133.813 98.7931 133.781 98.9665C133.749 99.1398 133.756 99.3181 133.802 99.4883L141.678 129.433C136.05 131.872 129.586 134.439 125.925 139.395C120.215 147.289 120.748 157.411 123.122 166.819C125.802 178.624 129.338 190.219 133.701 201.511C133.824 201.769 134.008 201.994 134.236 202.166C134.465 202.337 134.732 202.451 135.014 202.497C133.828 209.449 128.352 213.248 126.577 216.48C126.233 216.992 126.045 217.592 126.036 218.209C126.027 218.825 126.197 219.431 126.525 219.953C126.853 220.475 127.326 220.89 127.885 221.148C128.445 221.407 129.068 221.498 129.678 221.409C131.844 221.078 133.91 220.274 135.729 219.054C138.976 216.853 142.278 214.551 143.797 211.54C144.418 210.355 144.751 209.041 144.768 207.704C144.785 206.366 144.486 205.044 143.896 203.844C143.432 202.81 142.018 203.49 144.132 202.959C144.435 202.876 144.704 202.698 144.899 202.451C145.093 202.205 145.204 201.902 145.213 201.587C145.487 183.887 144.016 170.738 144.082 154.169C147.834 151.211 151.853 148.609 156.088 146.397C156.382 146.37 170.207 145.542 175.128 145.239C179.937 144.942 184.509 148.08 189.052 150.372C189.642 156.682 192.005 188.958 192.592 198.858C192.601 199.17 192.728 199.467 192.947 199.69C193.166 199.913 193.461 200.045 193.773 200.06L194.341 200.091C193.785 207.062 193.607 210.635 198.902 214.637C200.023 215.438 201.189 216.174 202.395 216.841C204.687 218.456 207.307 219.544 210.069 220.027C213.535 220.19 214.951 217.004 213.717 214.048ZM142.032 204.557C144.112 210.446 139.469 213.324 134.209 216.675C132.811 217.596 131.235 218.215 129.584 218.491C129.338 218.501 129.092 218.535 128.994 218.344V218.363C128.846 218.363 129.042 218.103 129.092 217.96C129.782 216.4 133.612 212.582 135.536 208.002C136.198 206.406 136.633 204.725 136.828 203.008C138.718 203.443 140.671 203.528 142.592 203.258C142.345 203.357 142.148 203.548 142.043 203.792C141.938 204.035 141.933 204.31 142.031 204.557H142.032ZM143.349 128.568L136.467 100.327C140.797 100.15 194.575 97.7236 199.249 97.4952L194.47 126.844L143.349 128.568ZM211.307 216.537C211.061 217.379 210.225 217.197 209.39 216.99C207.431 216.343 205.563 215.451 203.828 214.335C200.741 212.478 197.596 211.05 196.646 207.579C196.178 205.137 196.024 202.646 196.187 200.166C198.126 200.255 200.068 200.215 202.002 200.045C203.66 207.81 208.298 209.108 210.963 214.591C211.297 215.183 211.417 215.872 211.305 216.542L211.307 216.537Z" fill="#FAFAFA"/>
</svg>
