<svg width="354" height="354" viewBox="0 0 354 354" fill="none" xmlns="http://www.w3.org/2000/svg">
<path d="M260.558 118.385C261.583 98.2529 277.019 82.0999 296.181 82.0538C315.702 82.0007 332.147 98.9166 332.147 120.744L332.098 122.955C341.392 127.599 346.012 139.57 341.447 150.418C343.042 151.726 344.196 153.494 344.75 155.481C345.304 157.469 345.232 159.578 344.543 161.523C343.854 163.468 342.582 165.153 340.901 166.348C339.219 167.543 337.21 168.191 335.147 168.203C305.323 168.104 277.433 159.475 248.161 159.155C247.898 159.15 247.648 159.042 247.464 158.854C247.28 158.667 247.177 158.414 247.177 158.151C247.175 158.022 247.2 157.893 247.249 157.773C247.298 157.652 247.37 157.543 247.462 157.451C247.553 157.359 247.662 157.286 247.782 157.236C247.902 157.187 248.031 157.162 248.161 157.162C277.392 157.362 306.411 165.624 335.147 165.527C336.1 165.525 337.043 165.334 337.922 164.965C338.8 164.596 339.596 164.056 340.264 163.376C341.034 162.599 341.619 161.658 341.975 160.623C342.331 159.589 342.45 158.488 342.323 157.401C342.195 156.314 341.825 155.27 341.238 154.347C340.652 153.423 339.866 152.643 338.937 152.064C338.639 151.882 338.418 151.596 338.318 151.261C338.218 150.926 338.246 150.566 338.395 150.25C342.997 141.598 339.579 129.214 330.03 125.176C329.75 125.062 329.514 124.862 329.354 124.605C329.195 124.347 329.122 124.046 329.145 123.744L329.292 120.744C329.292 100.78 314.272 84.9124 296.181 84.8611C279.238 84.815 264.098 98.6104 262.822 119.417C262.81 119.694 262.7 119.958 262.51 120.16C262.32 120.363 262.064 120.49 261.788 120.519C248.69 121.974 242.638 138.396 249.832 149.094C249.957 149.302 249.997 149.55 249.942 149.787C249.887 150.023 249.742 150.229 249.538 150.36C249.44 150.427 249.33 150.473 249.214 150.497C249.098 150.52 248.978 150.519 248.862 150.494C248.746 150.47 248.637 150.422 248.54 150.354C248.443 150.286 248.361 150.199 248.299 150.098C240.321 138.274 246.584 120.896 260.558 118.385Z" fill="#2D2D2D"/>
<path d="M239.252 186.989C239.202 181.178 238.907 160.297 238.807 152.13C238.806 151.114 238.543 150.115 238.043 149.23C237.543 148.345 236.824 147.603 235.954 147.077C231.821 144.53 224.589 140.078 224.589 140.078C224.589 140.078 211.748 133.581 167.949 133.126C124.209 132.669 110.629 140.482 110.629 140.482C110.629 140.482 102.955 144.818 98.4765 147.328C97.5496 147.864 96.7799 148.635 96.2443 149.562C95.7088 150.489 95.4263 151.541 95.425 152.612C95.4764 160.98 95.6233 181.733 95.6711 187.909C95.6821 188.756 95.8719 189.592 96.2282 190.361C96.5844 191.13 97.0991 191.815 97.7384 192.371C112.822 205.405 175.087 204.163 195.129 202.623C195.163 201.626 195.218 200.561 195.258 199.412L202.915 199.159C203.02 200.067 203.214 200.962 203.494 201.832C226.371 199.223 234.646 194.263 237.618 191.196C238.156 190.638 238.577 189.979 238.858 189.256C239.138 188.534 239.272 187.763 239.252 186.989ZM113.028 145.994C113.497 144.415 113.913 147.557 135.069 149.806C156.786 151.851 178.646 151.846 200.361 149.792C221.364 147.603 221.886 144.563 222.354 145.994C222.387 146.063 222.406 146.138 222.41 146.214C222.413 146.291 222.401 146.368 222.373 146.439C222.345 146.511 222.303 146.576 222.249 146.631C222.196 146.685 222.131 146.728 222.06 146.756C215.108 149.173 207.887 150.729 200.558 151.39C178.729 153.795 156.702 153.795 134.873 151.39C127.547 150.752 120.327 149.22 113.373 146.829C113.293 146.8 113.219 146.755 113.158 146.697C113.096 146.638 113.047 146.567 113.015 146.488C112.982 146.409 112.966 146.325 112.969 146.239C112.971 146.154 112.991 146.071 113.028 145.994ZM235.444 154.313C225.709 160.359 203.714 163.086 192.294 164.048C177.253 165.222 162.147 165.326 147.091 164.359C134.431 163.525 111.943 161.06 100.677 155.175C100.532 155.091 100.425 154.955 100.379 154.795C100.333 154.634 100.352 154.462 100.43 154.315C100.509 154.168 100.642 154.057 100.801 154.006C100.96 153.955 101.132 153.968 101.282 154.042C112.385 159.667 134.708 161.83 147.152 162.589C162.129 163.464 177.147 163.35 192.11 162.248C233.351 159.079 234.413 151.709 235.621 153.514C235.698 153.646 235.722 153.801 235.69 153.95C235.657 154.098 235.569 154.229 235.444 154.316V154.313Z" fill="#FFB769"/>
<path d="M239.251 317.951C239.152 311.283 238.955 293.999 238.856 285.634C238.833 284.198 238.446 282.792 237.732 281.546C237.018 280.3 236 279.256 234.773 278.51C223.494 271.545 224.74 272.173 222.62 271.471C196.436 278.613 137.736 278.181 112.459 271.807C111.043 272.356 111.765 271.956 99.7642 278.761C98.4438 279.504 97.3459 280.586 96.5844 281.896C95.8228 283.205 95.4253 284.695 95.433 286.209C95.4843 294.737 95.6312 311.859 95.679 318.797C95.6807 320.19 96.0277 321.561 96.6891 322.787C97.3504 324.013 98.3054 325.056 99.4686 325.822C105.865 329.927 122.79 335.713 167.761 335.713C213.271 335.713 229.852 329.302 235.856 324.854C236.926 324.053 237.792 323.01 238.382 321.81C238.972 320.61 239.27 319.288 239.251 317.951ZM113.027 278.14C113.496 276.561 113.912 279.705 135.069 281.954C156.785 284 178.645 283.994 200.36 281.938C221.363 279.751 221.885 276.712 222.353 278.14C222.387 278.209 222.406 278.284 222.41 278.361C222.413 278.438 222.401 278.514 222.373 278.586C222.345 278.658 222.303 278.723 222.249 278.777C222.195 278.832 222.13 278.875 222.059 278.903C215.108 281.32 207.886 282.877 200.557 283.539C178.728 285.942 156.701 285.942 134.872 283.539C127.546 282.899 120.326 281.367 113.372 278.977C113.292 278.948 113.218 278.903 113.157 278.844C113.095 278.785 113.046 278.714 113.014 278.635C112.981 278.556 112.965 278.472 112.968 278.386C112.97 278.301 112.99 278.217 113.027 278.14ZM235.444 286.459C225.723 292.493 203.794 295.226 192.293 296.194C177.252 297.368 162.146 297.472 147.09 296.506C134.442 295.674 111.942 293.206 100.676 287.323C100.536 287.237 100.435 287.101 100.392 286.943C100.35 286.784 100.369 286.616 100.446 286.472C100.523 286.327 100.652 286.217 100.808 286.165C100.963 286.112 101.132 286.12 101.281 286.188C112.382 291.812 134.7 293.976 147.151 294.736C162.128 295.611 177.146 295.497 192.109 294.394C233.35 291.227 234.412 283.855 235.621 285.661C235.697 285.792 235.721 285.947 235.688 286.095C235.655 286.243 235.568 286.374 235.444 286.461V286.459Z" fill="#FFB769"/>
<path d="M37.4283 285.954C38.839 281.121 41.768 276.87 45.782 273.831C49.796 270.792 54.6817 269.126 59.7162 269.079C65.4854 269.209 71.0076 271.446 75.2407 275.368C79.4738 279.29 82.1251 284.626 82.6943 290.368C85.7476 292.491 87.9928 295.584 89.0649 299.145C90.137 302.706 89.9728 306.524 88.599 309.98L89.238 309.955C89.5016 309.942 89.7596 310.034 89.9553 310.211C90.151 310.388 90.2683 310.636 90.2814 310.899C90.2946 311.163 90.2025 311.421 90.0254 311.617C89.8483 311.812 89.6007 311.93 89.3371 311.943L87.0733 312.06C86.8934 312.076 86.7124 312.044 86.5493 311.966C86.3861 311.889 86.2469 311.769 86.1462 311.619C86.0455 311.469 85.987 311.295 85.977 311.114C85.967 310.934 86.0057 310.754 86.0892 310.594C87.6956 307.414 88.0668 303.751 87.1309 300.314C86.195 296.876 84.0185 293.907 81.0217 291.981C80.8743 291.892 80.7518 291.767 80.6658 291.618C80.5797 291.47 80.5329 291.301 80.5296 291.129C78.7047 274.314 59.9392 265.67 46.9739 276.35C43.4089 279.347 40.8922 283.402 39.7895 287.927C39.7437 288.108 39.6627 288.277 39.5513 288.426C39.44 288.575 39.3003 288.701 39.1404 288.796C38.9804 288.891 38.8034 288.953 38.6192 288.98C38.4351 289.006 38.2476 288.996 38.0673 288.95C25.0808 285.881 14.9918 300.847 22.0771 312.798C22.2099 313.009 22.2853 313.251 22.296 313.5C22.3067 313.749 22.2522 313.996 22.138 314.218C22.0239 314.439 21.8539 314.627 21.6448 314.763C21.4358 314.899 21.195 314.978 20.9461 314.992L17.2556 315.136C15.7674 315.194 14.3586 315.823 13.3209 316.892C12.5377 317.649 12.0012 318.625 11.7816 319.693C11.5621 320.76 11.6696 321.869 12.0903 322.874C12.511 323.879 13.2251 324.734 14.1394 325.327C15.0537 325.919 16.1256 326.223 17.2149 326.196C31.1378 325.642 86.8361 323.095 90.723 322.929C90.9665 322.924 91.2031 323.011 91.3855 323.172C91.5679 323.333 91.6827 323.558 91.7072 323.8C91.7091 324.042 91.6185 324.275 91.454 324.453C91.2895 324.63 91.0635 324.738 90.8222 324.754C77.7242 325.414 21.3974 328.825 17.3671 329.011C15.709 329.065 14.073 328.619 12.6719 327.731C11.2708 326.842 10.1695 325.553 9.51128 324.03C8.85307 322.507 8.66843 320.821 8.98138 319.192C9.29433 317.563 10.0904 316.066 11.266 314.895C12.8142 313.277 14.9312 312.325 17.1689 312.24L18.5477 312.192C12.7793 299.615 22.3515 283.844 37.4283 285.954Z" fill="#2D2D2D"/>
<path d="M247.52 241.495C247.968 240.806 248.497 240.172 249.094 239.607C251.236 237.589 253.91 236.904 256.031 238.971C257.793 241.21 258.777 243.961 258.836 246.809C264.473 246.398 266.693 252.358 264.888 257.673C266.217 258.317 276.764 263.737 280.731 265.743C281.023 265.901 281.251 266.155 281.377 266.463C281.502 266.771 281.517 267.112 281.419 267.429C281.313 267.748 281.095 268.017 280.806 268.188C280.517 268.359 280.176 268.42 279.846 268.36C270.309 266.525 258.907 264.112 248.11 263.935C247.847 263.929 247.596 263.82 247.412 263.631C247.228 263.443 247.126 263.19 247.126 262.927C247.125 262.797 247.15 262.669 247.2 262.549C247.249 262.43 247.321 262.321 247.413 262.23C247.504 262.138 247.613 262.066 247.733 262.016C247.852 261.967 247.98 261.942 248.11 261.942C255.813 262.004 263.499 262.705 271.086 264.038C261.767 259.374 262.015 259.673 261.689 258.873C261.575 258.505 261.61 258.107 261.788 257.765C263.735 253.763 262.588 248.512 257.802 249.692C257.599 249.741 257.387 249.741 257.183 249.692C256.98 249.643 256.791 249.546 256.632 249.409C256.473 249.273 256.35 249.1 256.271 248.906C256.192 248.712 256.161 248.502 256.179 248.294C256.411 245.97 255.94 242.299 254.358 240.647C252.699 238.916 250.014 241.297 248.751 243.302C248.608 243.525 248.387 243.686 248.131 243.751C247.875 243.817 247.604 243.783 247.372 243.656C246.805 243.324 246.175 243.116 245.522 243.045C244.869 242.975 244.208 243.044 243.584 243.248C243.362 243.326 243.117 243.316 242.902 243.219C242.687 243.122 242.518 242.946 242.429 242.728C242.341 242.509 242.34 242.265 242.426 242.046C242.513 241.826 242.681 241.649 242.895 241.55C244.381 240.978 246.022 240.958 247.52 241.495Z" fill="#2D2D2D"/>
<path d="M164.296 30.4302C164.933 29.6814 166.014 30.1859 166.271 30.3611C166.469 30.521 166.719 30.6034 166.974 30.593C167.228 30.5826 167.47 30.48 167.655 30.3045C168.986 28.8743 164.115 25.2901 162.724 29.5575C162.368 30.6532 163.469 31.4001 164.296 30.4302Z" fill="#2D2D2D"/>
<path d="M172.602 30.0138C173.003 29.7435 173.477 29.6016 173.96 29.607C174.444 29.6124 174.915 29.7648 175.31 30.0439C175.471 30.2428 175.702 30.3736 175.955 30.4104C176.209 30.4471 176.467 30.387 176.678 30.2421C178.352 28.9306 173.683 24.7658 171.191 28.8492C171.037 29.0362 170.963 29.277 170.986 29.5185C171.009 29.76 171.127 29.9824 171.314 30.1368C171.501 30.2913 171.742 30.3651 171.983 30.342C172.225 30.3189 172.447 30.2009 172.602 30.0138Z" fill="#2D2D2D"/>
<path d="M173.99 35.7397C174.338 35.7614 174.683 35.6114 174.948 35.3226C175.213 35.0339 175.377 34.63 175.404 34.1999C175.431 33.7698 175.318 33.3487 175.091 33.0292C174.864 32.7097 174.541 32.518 174.193 32.4963C173.845 32.4745 173.5 32.6245 173.235 32.9133C172.97 33.2021 172.806 33.6059 172.779 34.036C172.752 34.4661 172.865 34.8872 173.092 35.2067C173.319 35.5262 173.642 35.7179 173.99 35.7397Z" fill="#2D2D2D"/>
<path d="M164.95 35.6489C165.298 35.6706 165.642 35.5206 165.907 35.2318C166.172 34.9431 166.337 34.5392 166.363 34.1091C166.39 33.679 166.278 33.2579 166.051 32.9384C165.823 32.6189 165.5 32.4272 165.152 32.4054C164.804 32.3837 164.459 32.5337 164.194 32.8225C163.929 33.1112 163.765 33.5151 163.738 33.9452C163.711 34.3753 163.824 34.7964 164.051 35.1159C164.278 35.4354 164.601 35.6271 164.95 35.6489Z" fill="#2D2D2D"/>
<path d="M155.537 59.3237C138.52 62.8814 126.654 80.0663 121.318 96.5397C119.799 101.228 118.629 107.358 120.303 111.997C122.465 117.985 131.364 120.934 137.63 120.316C137.86 120.298 138.089 120.369 138.269 120.515C138.448 120.661 138.565 120.87 138.595 121.099C138.625 121.328 138.566 121.56 138.43 121.747C138.293 121.934 138.091 122.062 137.864 122.104C130.672 122.946 120.957 119.709 118.286 112.749C116.312 107.616 117.417 101.108 119.045 95.8211C124.626 77.698 137.435 59.6777 156.169 56.3076C156.495 56.2544 156.83 56.3157 157.117 56.4812C157.403 56.6467 157.624 56.9061 157.741 57.2156C161.782 67.7736 176.828 71.2145 183.338 56.2155C183.451 55.9581 183.638 55.7404 183.876 55.5905C184.113 55.4406 184.39 55.3655 184.671 55.3748C201.695 55.7589 211.242 70.995 218.223 86.4755C223.002 97.0866 225.48 108.59 216.807 116.226C212.93 119.494 208.203 121.591 203.178 122.274C202.93 122.3 202.68 122.231 202.481 122.08C202.282 121.928 202.148 121.707 202.107 121.46C202.066 121.213 202.12 120.96 202.26 120.753C202.399 120.545 202.612 120.398 202.856 120.343C207.5 119.704 211.856 117.723 215.388 114.641C223.216 107.7 220.353 96.9415 215.998 87.4932C209.626 73.6394 200.713 59.0104 185.538 58.1944C183.666 62.4457 180.359 65.9035 176.195 67.963C168.24 71.4163 159.065 67.0497 155.537 59.3237Z" fill="#2D2D2D"/>
<path d="M143.163 87.7441C142.706 90.3093 142.658 92.9308 143.023 95.5108C143.038 95.766 143.151 96.0056 143.339 96.1791C143.526 96.3527 143.774 96.4467 144.029 96.4414C144.285 96.4362 144.529 96.332 144.709 96.1509C144.889 95.9697 144.992 95.7257 144.997 95.4701C145.325 92.8993 145.325 90.2972 144.997 87.7264C144.995 87.606 144.971 87.487 144.923 87.3762C144.876 87.2654 144.808 87.165 144.722 87.0807C144.636 86.9964 144.534 86.9298 144.422 86.8848C144.311 86.8398 144.191 86.8172 144.071 86.8184C143.95 86.8196 143.831 86.8444 143.721 86.8916C143.61 86.9387 143.509 87.0072 143.425 87.0932C143.341 87.1792 143.274 87.2809 143.229 87.3926C143.184 87.5043 143.162 87.6237 143.163 87.7441Z" fill="#2D2D2D"/>
<path d="M188.957 85.452C188.385 88.0352 188.336 90.7065 188.812 93.309C188.817 93.4356 188.848 93.5599 188.901 93.6747C188.955 93.7895 189.03 93.8927 189.124 93.9783C189.217 94.064 189.326 94.1304 189.445 94.1738C189.564 94.2172 189.691 94.2367 189.817 94.2312C189.944 94.2257 190.068 94.1954 190.183 94.1419C190.298 94.0884 190.401 94.0129 190.486 93.9195C190.572 93.8262 190.639 93.7169 190.682 93.5978C190.725 93.4788 190.745 93.3524 190.739 93.2258C190.917 90.6811 190.911 88.127 190.723 85.583C190.732 85.467 190.718 85.3505 190.681 85.24C190.645 85.1296 190.587 85.0274 190.511 84.9393C190.435 84.8512 190.343 84.7789 190.239 84.7266C190.135 84.6742 190.022 84.6429 189.906 84.6343C189.79 84.6257 189.673 84.64 189.563 84.6764C189.452 84.7129 189.35 84.7707 189.262 84.8466C189.174 84.9226 189.102 85.0151 189.049 85.119C188.997 85.2229 188.966 85.336 188.957 85.452Z" fill="#2D2D2D"/>
<path d="M173.323 114.055C173.277 112.664 172.691 111.345 171.69 110.378C170.689 109.411 169.351 108.872 167.96 108.874C167.266 108.859 166.577 108.982 165.932 109.234C165.286 109.487 164.697 109.865 164.199 110.347C163.7 110.829 163.302 111.404 163.027 112.041C162.752 112.677 162.606 113.361 162.596 114.055C162.564 114.779 162.679 115.502 162.934 116.181C163.189 116.86 163.579 117.48 164.08 118.004C164.581 118.528 165.183 118.945 165.85 119.23C166.517 119.515 167.234 119.662 167.96 119.662C168.685 119.662 169.402 119.515 170.069 119.23C170.736 118.945 171.338 118.528 171.839 118.004C172.34 117.48 172.73 116.86 172.985 116.181C173.24 115.502 173.355 114.779 173.323 114.055Z" fill="#2D2D2D"/>
<path d="M169.854 103.535C169.375 103.926 168.995 104.423 168.744 104.988C168.494 105.553 168.38 106.168 168.413 106.785C168.354 106.939 168.334 107.104 168.356 107.267C168.378 107.43 168.441 107.585 168.539 107.717C168.637 107.849 168.766 107.954 168.916 108.023C169.065 108.091 169.23 108.121 169.393 108.109C170.599 108.226 171.805 107.897 172.783 107.184C173.762 106.472 174.445 105.425 174.703 104.242C175.132 102.165 171.632 101.919 169.854 103.535Z" fill="#2D2D2D"/>
<path d="M180.488 41.1323C181.36 41.037 182.177 40.6592 182.814 40.0564C183.452 39.4536 183.874 38.6588 184.018 37.7934C184.161 36.9281 184.017 36.0395 183.609 35.2634C183.2 34.4872 182.549 33.8661 181.754 33.4947C181.493 33.3661 181.218 33.2687 180.934 33.2044C181.093 31.3274 181.079 29.4397 180.892 27.5652C179.198 13.5486 158.138 15.5186 158.429 32.8062C152.544 34.3001 153.839 41.2066 158.448 41.7287C157.432 44.0563 155.85 48.2777 158.023 49.5628L157.988 50.1504C157.848 52.3824 158.482 54.6604 160.71 54.7099C160.896 55.4249 161.347 56.0423 161.972 56.4368C162.596 56.8313 163.348 56.9733 164.073 56.8339C165.351 60.5509 167.895 61.0271 169.829 59.3845C170.153 59.6504 170.529 59.845 170.932 59.9554C171.336 60.0658 171.759 60.0897 172.172 60.0253C172.586 59.961 172.981 59.8099 173.333 59.582C173.684 59.3541 173.983 59.0546 174.21 58.703C174.73 57.9976 175.099 57.1926 175.295 56.3383C177.191 56.7153 178.586 55.14 179.23 53.3382C180.334 53.6001 181.52 52.9328 181.688 51.0531C181.74 50.3514 181.685 49.6459 181.524 48.961C182.022 48.7529 182.444 48.3946 182.729 47.9359C183.015 47.4772 183.15 46.9408 183.117 46.4015C183.117 44.8599 181.297 42.3305 180.315 41.1376C180.373 41.1402 180.431 41.1384 180.488 41.1323ZM172.378 44.8493C171.778 44.6873 171.187 44.4935 170.608 44.2687C169.056 43.5607 169.734 43.4386 168.983 43.9147C168.21 44.3899 167.331 44.6654 166.426 44.7165C166.303 44.7332 166.178 44.7021 166.077 44.6297C165.977 44.5573 165.907 44.449 165.884 44.3271C165.867 44.2048 165.899 44.0808 165.972 43.9816C166.046 43.8823 166.155 43.8158 166.277 43.7961C167.259 43.3734 168.171 42.8054 168.983 42.1111C169.116 42.0022 169.284 41.9439 169.456 41.9465C169.628 41.9491 169.793 42.0124 169.923 42.1252C170.771 42.8392 171.715 43.4314 172.727 43.8846C172.791 43.9075 172.849 43.9427 172.899 43.9882C172.949 44.0338 172.99 44.0887 173.019 44.1499C173.048 44.2112 173.064 44.2775 173.067 44.3451C173.071 44.4127 173.06 44.4802 173.037 44.5439C173.015 44.6076 172.979 44.6662 172.934 44.7163C172.888 44.7663 172.833 44.807 172.772 44.8358C172.711 44.8646 172.645 44.8811 172.577 44.8844C172.509 44.8876 172.442 44.8775 172.378 44.8546V44.8493ZM180.214 39.1853C180.056 39.2083 179.907 39.2698 179.778 39.3644C179.65 39.459 179.547 39.5837 179.479 39.7275C179.41 39.8713 179.378 40.0299 179.385 40.189C179.392 40.3482 179.439 40.5032 179.52 40.6402C179.39 40.6478 179.264 40.6853 179.151 40.7498C179.038 40.8142 178.941 40.9039 178.869 41.0119H178.773C177.357 42.8315 175.233 37.1321 170.566 36.5356C170.714 35.4123 170.705 34.2739 170.539 33.1531C170.353 31.4185 170.307 30.5671 169.477 30.4822C168.573 30.3901 168.312 31.4539 167.987 33.0451C167.726 34.2712 167.734 35.5391 168.008 36.7621C165.757 37.5215 164.965 39.3923 162.976 40.6703C162.079 41.2332 161.71 40.9853 161.367 40.3694C161.279 40.184 161.148 40.0223 160.985 39.8977C160.822 39.7731 160.632 39.6893 160.43 39.6533C160.228 39.6173 160.02 39.6301 159.824 39.6906C159.628 39.7511 159.45 39.8576 159.303 40.0012L158.471 39.9216C158.109 39.836 157.771 39.6699 157.482 39.4357C157.192 39.2014 156.96 38.9051 156.801 38.5685C156.642 38.232 156.56 37.864 156.563 37.4919C156.566 37.1197 156.652 36.7529 156.816 36.4187C157.166 35.9727 157.614 35.613 158.125 35.3675C158.636 35.122 159.196 34.9972 159.763 35.0027C160.072 34.9767 160.359 34.834 160.565 34.6038C160.772 34.3736 160.884 34.0732 160.877 33.7637C160.682 20.3295 173.716 17.9594 177.354 24.8819C178.439 27.5041 178.853 30.3552 178.561 33.1779C178.49 34.3178 178.384 34.608 178.789 35.0435C179.286 35.5745 179.727 35.3408 180.295 35.424C180.756 35.4862 181.178 35.7159 181.48 36.0694C181.783 36.4228 181.944 36.8752 181.934 37.3401C181.924 37.8051 181.743 38.25 181.426 38.59C181.109 38.9301 180.677 39.1413 180.214 39.1835V39.1853Z" fill="#2D2D2D"/>
<path d="M239.251 253.352C239.152 246.866 238.956 228.612 238.807 220.263C238.797 218.954 238.452 217.669 237.807 216.53C237.161 215.39 236.236 214.435 235.118 213.753C230.936 211.165 224.588 207.259 224.588 207.259C221.836 206.086 218.966 205.213 216.027 204.655C213.082 205.241 209.765 205.783 206.028 206.261C207.48 208.013 211.924 212.195 212.637 215.236C215.696 214.711 218.7 213.912 221.615 212.847C221.759 212.788 221.921 212.789 222.065 212.849C222.209 212.91 222.322 213.025 222.381 213.169C222.44 213.313 222.439 213.475 222.379 213.619C222.319 213.763 222.203 213.876 222.059 213.935C219.025 215.108 215.892 216.007 212.698 216.62C212.23 219.32 209.473 218.775 206.981 217.67C185.404 221.129 155.663 221.125 133.972 218.454C128.662 221.325 126.991 219.444 127.679 217.569C122.797 216.897 118.001 215.705 113.372 214.011C113.215 213.946 113.091 213.821 113.026 213.664C112.961 213.507 112.961 213.33 113.026 213.173C113.092 213.016 113.216 212.892 113.374 212.827C113.531 212.762 113.707 212.762 113.864 212.827C118.594 214.462 123.486 215.583 128.456 216.173C130.933 213.384 133.052 210.298 134.765 206.985C128.439 206.399 123.139 205.654 118.707 204.818C115.912 205.442 113.203 206.4 110.638 207.671C110.638 207.671 103.897 211.47 99.3698 214.013C98.175 214.703 97.1824 215.694 96.4915 216.889C95.8006 218.083 95.4357 219.438 95.4333 220.817C95.4847 229.345 95.6316 247.441 95.6794 254.215C95.6765 255.463 95.9802 256.693 96.5638 257.797C97.1474 258.9 97.9931 259.843 99.0265 260.543C104.979 264.657 121.61 270.752 167.761 270.752C214.453 270.752 230.69 263.998 236.299 259.539C237.241 258.811 237.998 257.871 238.511 256.797C239.024 255.722 239.277 254.542 239.251 253.352ZM235.444 221.492C225.723 227.524 203.795 230.258 192.293 231.227C177.252 232.4 162.147 232.504 147.091 231.536C134.444 230.704 111.942 228.239 100.676 222.354C100.531 222.27 100.425 222.134 100.379 221.974C100.333 221.813 100.351 221.641 100.43 221.494C100.508 221.346 100.641 221.236 100.8 221.185C100.959 221.134 101.132 221.147 101.281 221.221C112.385 226.846 134.706 229.009 147.151 229.768C162.128 230.642 177.147 230.528 192.109 229.426C203.329 228.564 225.121 226.258 234.835 220.499C234.965 220.42 235.121 220.397 235.268 220.434C235.415 220.47 235.542 220.563 235.621 220.693C235.697 220.825 235.721 220.98 235.688 221.128C235.656 221.276 235.568 221.406 235.444 221.493V221.492Z" fill="#FFB769"/>
<path d="M136.15 217.088C158.947 219.173 181.895 218.966 204.649 216.468C200.249 213.967 196.286 212.043 195.364 207.333C178.144 208.509 160.867 208.611 143.634 207.636C143.568 211.84 139.938 214.576 136.15 217.088Z" fill="#FFB769"/>
<path d="M128.943 218.3L128.994 218.345L128.943 218.3Z" fill="#2D2D2D"/>
<path d="M213.717 214.048C212.398 210.685 208.062 207.025 206.239 204.667C205.233 203.175 204.481 201.527 204.014 199.789C204.608 199.688 205.2 199.566 205.784 199.418C206.024 199.366 206.243 199.242 206.41 199.062C206.577 198.881 206.685 198.654 206.718 198.41C207.849 191.246 208.982 184.121 209.867 176.958C210.928 168.59 211.552 160.172 211.736 151.739C211.642 146.319 209.756 141.083 206.373 136.848C203.814 133.439 200.841 130.36 197.523 127.683C197.392 127.58 197.239 127.509 197.075 127.476L202.295 96.2266C202.329 96.0177 202.315 95.8039 202.255 95.601C202.195 95.398 202.091 95.211 201.949 95.0538C201.808 94.8966 201.633 94.7731 201.437 94.6924C201.241 94.6117 201.03 94.5759 200.819 94.5876L134.883 98.0037C134.707 98.0122 134.535 98.06 134.38 98.1437C134.225 98.2273 134.09 98.3447 133.986 98.4872C133.883 98.6297 133.812 98.7936 133.78 98.967C133.748 99.1403 133.755 99.3186 133.801 99.4887L141.678 129.434C136.049 131.873 129.585 134.439 125.925 139.395C120.215 147.289 120.748 157.412 123.121 166.82C125.801 178.625 129.337 190.219 133.7 201.512C133.823 201.77 134.007 201.994 134.236 202.166C134.465 202.338 134.731 202.451 135.014 202.497C133.828 209.45 128.351 213.248 126.576 216.48C126.232 216.992 126.045 217.593 126.035 218.209C126.026 218.826 126.196 219.431 126.524 219.953C126.853 220.475 127.325 220.89 127.885 221.149C128.444 221.407 129.067 221.498 129.677 221.41C131.843 221.079 133.909 220.274 135.729 219.054C138.975 216.854 142.278 214.551 143.796 211.54C144.418 210.356 144.75 209.042 144.768 207.704C144.785 206.367 144.486 205.044 143.896 203.844C143.432 202.811 142.018 203.49 144.131 202.959C144.434 202.877 144.703 202.699 144.898 202.452C145.093 202.205 145.203 201.902 145.212 201.588C145.487 183.888 144.016 170.738 144.081 154.169C147.833 151.211 151.853 148.609 156.087 146.397C156.381 146.371 170.207 145.542 175.127 145.24C179.936 144.942 184.508 148.081 189.052 150.373C189.641 156.683 192.004 188.959 192.592 198.858C192.601 199.171 192.728 199.468 192.946 199.691C193.165 199.914 193.46 200.046 193.772 200.06L194.341 200.092C193.785 207.062 193.606 210.636 198.902 214.638C200.023 215.439 201.189 216.174 202.394 216.842C204.686 218.457 207.307 219.545 210.069 220.027C213.535 220.19 214.951 217.004 213.717 214.048ZM142.032 204.558C144.112 210.446 139.469 213.325 134.208 216.675C132.811 217.597 131.235 218.216 129.583 218.491C129.337 218.502 129.091 218.535 128.994 218.344V218.364C128.845 218.364 129.042 218.104 129.091 217.96C129.782 216.401 133.612 212.583 135.536 208.002C136.198 206.406 136.633 204.726 136.828 203.009C138.718 203.444 140.671 203.528 142.591 203.259C142.345 203.357 142.148 203.549 142.043 203.792C141.937 204.036 141.933 204.311 142.03 204.558H142.032ZM143.349 128.568L136.467 100.328C140.796 100.151 194.574 97.7241 199.249 97.4957L194.47 126.844L143.349 128.568ZM211.306 216.537C211.06 217.38 210.225 217.197 209.389 216.99C207.431 216.344 205.562 215.452 203.828 214.335C200.741 212.478 197.596 211.05 196.645 207.579C196.178 205.138 196.024 202.647 196.187 200.166C198.125 200.256 200.068 200.216 202.001 200.046C203.66 207.811 208.297 209.108 210.963 214.592C211.296 215.184 211.417 215.872 211.304 216.542L211.306 216.537Z" fill="#2D2D2D"/>
</svg>
