<svg width="229" height="53" viewBox="0 0 229 53" fill="none" xmlns="http://www.w3.org/2000/svg">
<path d="M11.2836 42.1258C10.1776 41.019 10.1776 39.2249 11.2836 38.1184L31.0918 18.2976C32.1978 17.1908 33.9908 17.1908 35.0965 18.2976C36.2023 19.4043 36.2026 21.1985 35.0965 22.3049L15.2884 42.1258C14.1823 43.2322 12.3894 43.2322 11.2836 42.1258Z" fill="#2D2D2D"/>
<path d="M31.0901 31.6671L11.2817 11.846C10.1756 10.7392 10.1756 8.94509 11.2817 7.83863C12.3877 6.73217 14.1807 6.73217 15.2864 7.83863L35.0948 27.6598C36.2009 28.7665 36.2009 30.5606 35.0948 31.6671C33.9891 32.7736 32.1958 32.7736 31.0901 31.6671Z" fill="#2D2D2D"/>
<path d="M0.829529 31.6677C-0.27651 30.5609 -0.27651 28.7668 0.829529 27.6603L20.6377 7.83949C21.7437 6.73303 23.5367 6.73303 24.6424 7.83949C25.7484 8.94624 25.7484 10.7404 24.6424 11.8468L4.83428 31.6677C3.72853 32.7744 1.93528 32.7744 0.829529 31.6677Z" fill="#2D2D2D"/>
<path d="M20.6379 42.126L0.829529 22.3048C-0.27651 21.1984 -0.27651 19.4039 0.829529 18.2975C1.93557 17.191 3.72853 17.1907 4.83428 18.2975L24.6427 38.1186C25.7487 39.2251 25.7487 41.0195 24.6427 42.126C23.5369 43.2324 21.744 43.2324 20.6379 42.126Z" fill="#2D2D2D"/>
<path d="M11.2836 42.1262C10.1776 41.0194 10.1776 39.2253 11.2836 38.1188L18.1059 31.2921C19.212 30.1857 21.005 30.1857 22.1107 31.2921C23.2167 32.3989 23.2167 34.193 22.1107 35.2998L15.2884 42.1264C14.1823 43.2326 12.3894 43.2326 11.2836 42.1262Z" fill="#2D2D2D"/>
<path d="M52.5364 49.8824C51.6931 49.8824 50.9807 49.606 50.3991 49.0531C49.8466 48.5003 49.5703 47.8019 49.5703 46.9581V27.055C49.5703 25.2218 49.8902 23.5342 50.5299 21.992C51.1988 20.4207 52.1002 19.0676 53.2343 17.9328C54.3684 16.7689 55.7061 15.8668 57.2473 15.2267C58.8176 14.5574 60.5042 14.2228 62.3071 14.2228C64.11 14.2228 65.7821 14.5574 67.3233 15.2267C68.8936 15.8668 70.2457 16.7689 71.3798 17.9328C72.543 19.0676 73.4445 20.4207 74.0842 21.992C74.753 23.5342 75.0875 25.2218 75.0875 27.055C75.0875 28.8591 74.7821 30.5468 74.1715 32.1181C73.5899 33.6603 72.7611 35.0133 71.6852 36.1772C70.6092 37.3121 69.3443 38.2141 67.8903 38.8834C66.4654 39.5235 64.8951 39.8436 63.1795 39.8436C61.6673 39.8436 60.257 39.5963 58.9484 39.1016C57.6689 38.6069 56.5203 37.894 55.5025 36.9629V46.9581C55.5025 47.8019 55.2262 48.5003 54.6737 49.0531C54.1503 49.606 53.4379 49.8824 52.5364 49.8824ZM62.3071 34.5187C63.2958 34.5187 64.2118 34.3295 65.0551 33.9513C65.9275 33.573 66.669 33.0492 67.2796 32.38C67.9194 31.7107 68.4137 30.9251 68.7627 30.023C69.1407 29.0919 69.3297 28.1025 69.3297 27.055C69.3297 25.9784 69.1407 24.9891 68.7627 24.087C68.4137 23.1559 67.9194 22.3557 67.2796 21.6864C66.669 21.0172 65.9275 20.4934 65.0551 20.1151C64.2118 19.7369 63.2958 19.5477 62.3071 19.5477C61.3184 19.5477 60.3878 19.7369 59.5155 20.1151C58.6722 20.4934 57.9306 21.0172 57.2909 21.6864C56.6802 22.3557 56.2004 23.1559 55.8515 24.087C55.5025 24.9891 55.328 25.9784 55.328 27.055C55.328 28.1025 55.5025 29.0919 55.8515 30.023C56.2004 30.9251 56.6802 31.7107 57.2909 32.38C57.9306 33.0492 58.6722 33.573 59.5155 33.9513C60.3878 34.3295 61.3184 34.5187 62.3071 34.5187Z" fill="#2D2D2D"/>
<path d="M91.7636 39.8436C89.8443 39.8436 88.0705 39.5381 86.442 38.927C84.8427 38.2869 83.4614 37.3994 82.2982 36.2645C81.1351 35.1297 80.2191 33.7767 79.5502 32.2054C78.9105 30.6341 78.5906 28.9173 78.5906 27.055C78.5906 25.1636 78.8959 23.4323 79.5066 21.861C80.1173 20.2897 80.9751 18.9367 82.0801 17.8018C83.2142 16.667 84.5373 15.7941 86.0495 15.183C87.5907 14.5429 89.2773 14.2228 91.1093 14.2228C92.9413 14.2228 94.5697 14.5283 95.9946 15.1394C97.4195 15.7504 98.6263 16.6088 99.615 17.7145C100.633 18.8203 101.403 20.1297 101.927 21.6428C102.45 23.1559 102.712 24.829 102.712 26.6622C102.712 27.4187 102.45 28.0443 101.927 28.539C101.432 29.0337 100.778 29.281 99.964 29.281H84.3047C84.7409 30.8814 85.6278 32.1908 86.9655 33.2092C88.3031 34.1986 89.9025 34.6932 91.7636 34.6932C92.6069 34.6932 93.4502 34.5478 94.2935 34.2568C95.1368 33.9367 95.8347 33.573 96.3872 33.1656C96.9688 32.7291 97.6085 32.5109 98.3064 32.5109C99.0043 32.5109 99.6441 32.7728 100.226 33.2965C100.807 33.8203 101.098 34.4459 101.098 35.1734C101.098 35.9299 100.764 36.5555 100.095 37.0502C99.048 37.894 97.7539 38.5633 96.2127 39.058C94.6715 39.5817 93.1885 39.8436 91.7636 39.8436ZM96.867 24.3925C96.4308 22.8794 95.7329 21.6719 94.7733 20.7698C93.8137 19.8387 92.5923 19.3731 91.1093 19.3731C89.3064 19.3731 87.8379 19.8387 86.7038 20.7698C85.5697 21.6719 84.7845 22.8794 84.3483 24.3925H96.867Z" fill="#2D2D2D"/>
<path d="M116.433 32.5109C114.688 32.5109 113.176 32.249 111.896 31.7252C110.646 31.1724 109.599 30.4013 108.756 29.412C107.941 28.3935 107.331 27.186 106.924 25.7892C106.546 24.3634 106.357 22.7922 106.357 21.0754V17.3217C106.357 16.4197 106.633 15.7068 107.185 15.183C107.767 14.6593 108.479 14.3974 109.323 14.3974C110.224 14.3974 110.937 14.6593 111.46 15.183C112.012 15.7068 112.289 16.4197 112.289 17.3217V21.0754C112.289 21.9483 112.361 22.7631 112.507 23.5196C112.652 24.2471 112.899 24.8872 113.248 25.4401C113.626 25.9638 114.15 26.3858 114.819 26.7058C115.487 27.0259 116.345 27.186 117.392 27.186C118.701 27.186 119.806 26.9095 120.707 26.3567C121.638 25.8038 122.103 25.0909 122.103 24.218V17.3217C122.103 16.4197 122.379 15.7068 122.932 15.183C123.513 14.6593 124.226 14.3974 125.069 14.3974C125.971 14.3974 126.683 14.6593 127.206 15.183C127.759 15.7068 128.035 16.4197 128.035 17.3217V36.7447C128.035 37.5885 127.759 38.2869 127.206 38.8397C126.683 39.3926 125.971 39.669 125.069 39.669C124.226 39.669 123.513 39.3926 122.932 38.8397C122.379 38.2869 122.103 37.5885 122.103 36.7447V30.8523C121.26 31.4634 120.344 31.8998 119.355 32.1617C118.395 32.3945 117.421 32.5109 116.433 32.5109Z" fill="#2D2D2D"/>
<path d="M140.078 23.9124H152.073V17.3217C152.073 16.4197 152.35 15.7068 152.902 15.183C153.484 14.6593 154.196 14.3974 155.039 14.3974C155.97 14.3974 156.682 14.6593 157.177 15.183C157.671 15.7068 157.918 16.4197 157.918 17.3217V36.7447C157.918 37.5885 157.671 38.2869 157.177 38.8397C156.682 39.3926 155.97 39.669 155.039 39.669C154.196 39.669 153.484 39.3926 152.902 38.8397C152.35 38.2869 152.073 37.5885 152.073 36.7447V29.2374H140.078V36.7447C140.078 37.5885 139.802 38.2869 139.249 38.8397C138.726 39.3926 138.014 39.669 137.112 39.669C136.269 39.669 135.571 39.3926 135.018 38.8397C134.495 38.2869 134.233 37.5885 134.233 36.7447V17.3217C134.233 16.4197 134.495 15.7068 135.018 15.183C135.571 14.6593 136.269 14.3974 137.112 14.3974C138.014 14.3974 138.726 14.6593 139.249 15.183C139.802 15.7068 140.078 16.4197 140.078 17.3217V23.9124Z" fill="#2D2D2D"/>
<path d="M169.971 29.6738L182.271 16.056C182.737 15.5613 183.202 15.1685 183.667 14.8775C184.162 14.5574 184.714 14.3974 185.325 14.3974C186.168 14.3974 186.793 14.6593 187.2 15.183C187.607 15.7068 187.811 16.4197 187.811 17.3217V36.7447C187.811 37.5885 187.564 38.2869 187.07 38.8397C186.575 39.3926 185.863 39.669 184.932 39.669C184.089 39.669 183.376 39.3926 182.795 38.8397C182.242 38.2869 181.966 37.5885 181.966 36.7447V24.3925L169.665 38.0104C169.2 38.5051 168.72 38.8979 168.226 39.1889C167.761 39.509 167.223 39.669 166.612 39.669C165.769 39.669 165.144 39.4071 164.737 38.8834C164.329 38.3596 164.126 37.6467 164.126 36.7447V17.3217C164.126 16.4197 164.388 15.7068 164.911 15.183C165.464 14.6593 166.161 14.3974 167.005 14.3974C167.906 14.3974 168.619 14.6593 169.142 15.183C169.695 15.7068 169.971 16.4197 169.971 17.3217V29.6738Z" fill="#2D2D2D"/>
<path d="M205.665 25.4837L213.691 35.3916C214.185 36.0609 214.403 36.7447 214.345 37.443C214.316 38.1414 213.967 38.7524 213.298 39.2762C212.746 39.7418 212.135 39.9745 211.466 39.9745C210.594 39.9745 209.867 39.6254 209.285 38.927L201.434 29.281L199.776 30.765V36.832C199.776 37.6758 199.515 38.3596 198.991 38.8834C198.468 39.4071 197.77 39.669 196.897 39.669C196.025 39.669 195.327 39.4071 194.804 38.8834C194.28 38.3596 194.019 37.6758 194.019 36.832V17.9328C194.019 17.0889 194.28 16.4051 194.804 15.8814C195.327 15.3576 196.025 15.0957 196.897 15.0957C197.77 15.0957 198.468 15.3576 198.991 15.8814C199.515 16.4051 199.776 17.0889 199.776 17.9328V23.476L208.805 15.5758C209.387 15.0812 210.012 14.8338 210.681 14.8338C211.466 14.8338 212.12 15.1394 212.644 15.7504C213.196 16.3324 213.458 16.9871 213.429 17.7145C213.4 18.442 213.08 19.0676 212.469 19.5914L205.665 25.4837Z" fill="#2D2D2D"/>
<path d="M222.417 40.3674C221.399 40.3674 220.512 40.0036 219.756 39.2762C219.029 38.5487 218.666 37.6758 218.666 36.6574C218.666 36.1336 218.767 35.6535 218.971 35.217C219.175 34.7514 219.451 34.3441 219.8 33.9949C220.149 33.6457 220.541 33.3838 220.978 33.2092C221.443 33.0056 221.923 32.9037 222.417 32.9037C223.493 32.9037 224.38 33.2674 225.078 33.9949C225.805 34.7223 226.168 35.6098 226.168 36.6574C226.168 37.6758 225.805 38.5487 225.078 39.2762C224.38 40.0036 223.493 40.3674 222.417 40.3674Z" fill="#2D2D2D"/>
</svg>
