<svg width="25" height="26" viewBox="0 0 25 26" fill="none" xmlns="http://www.w3.org/2000/svg">
<path d="M7.8506 25.2716C7.08105 24.502 7.08105 23.254 7.8506 22.4845L21.6358 8.69923C22.4054 7.92968 23.6534 7.92968 24.4229 8.69923C25.1925 9.46877 25.1925 10.7168 24.4229 11.4863L10.6377 25.2716C9.86815 26.0411 8.62014 26.0411 7.8506 25.2716Z" fill="#2D2D2D"/>
<path d="M21.6358 17.9893L7.8506 4.2041C7.08105 3.43456 7.08105 2.18655 7.8506 1.417C8.62014 0.647458 9.86815 0.647458 10.6377 1.417L24.4229 15.2022C25.1925 15.9718 25.1925 17.2198 24.4229 17.9893C23.6534 18.7589 22.4054 18.7589 21.6358 17.9893Z" fill="#2D2D2D"/>
<path d="M0.577158 17.9893C-0.192386 17.2198 -0.192386 15.9718 0.577158 15.2022L14.3624 1.417C15.1319 0.647458 16.38 0.647458 17.1495 1.417C17.919 2.18655 17.919 3.43456 17.1495 4.2041L3.36426 17.9893C2.59472 18.7589 1.3467 18.7589 0.577158 17.9893Z" fill="#2D2D2D"/>
<path d="M14.3624 25.2716L0.577158 11.4863C-0.192386 10.7168 -0.192386 9.46877 0.577158 8.69923C1.3467 7.92968 2.59472 7.92968 3.36426 8.69923L17.1495 22.4845C17.919 23.254 17.919 24.502 17.1495 25.2716C16.38 26.0411 15.1321 26.0411 14.3624 25.2716Z" fill="#2D2D2D"/>
<path d="M7.8506 25.2641C7.08105 24.4946 7.08105 23.2465 7.8506 22.477L12.5986 17.729C13.3681 16.9595 14.6161 16.9595 15.3857 17.729C16.1552 18.4986 16.1552 19.7466 15.3857 20.5161L10.6377 25.2641C9.86816 26.0337 8.62014 26.0337 7.8506 25.2641Z" fill="#2D2D2D"/>
</svg>
