<svg width="197" height="153" viewBox="0 0 197 153" fill="none" xmlns="http://www.w3.org/2000/svg">
<path d="M55.2756 65.3896C55.8247 65.6099 56.4176 65.699 57.0072 65.6497C57.5967 65.6004 58.1667 65.4142 58.6717 65.1058C59.3041 64.7433 59.8305 64.2211 60.1982 63.5912C60.5659 62.9614 60.762 62.246 60.7671 61.5165C60.7905 61.3925 60.7639 61.2642 60.6931 61.1598C60.6223 61.0554 60.5131 60.9833 60.3894 60.9592C60.2659 60.9388 60.1393 60.9666 60.0357 61.037C59.9321 61.1073 59.8594 61.2148 59.8327 61.3373C59.6498 61.8643 59.3889 62.3608 59.0587 62.8103C58.0498 64.2605 56.9105 64.2543 55.3035 64.1144C54.7965 64.0461 54.4457 63.9342 54.2936 64.3123C54.0846 64.7774 54.8151 65.1669 55.2756 65.3896Z" fill="#2C2C2C"/>
<path d="M55.745 46.271C56.1886 45.7932 56.7455 45.4353 57.3642 45.2304C57.9829 45.0256 58.6432 44.9806 59.2839 45.0994C59.822 45.1843 60.2359 45.4599 60.4532 45.0238C60.7439 44.4644 59.7351 44.0076 59.1421 43.8056C58.333 43.6044 57.483 43.6422 56.6949 43.9142C55.9067 44.1863 55.2142 44.6811 54.7009 45.3387C54.4598 45.6598 53.9693 46.6605 54.437 46.9443C54.7878 47.1556 55.6415 46.3746 55.745 46.271Z" fill="#2C2C2C"/>
<path d="M60.4183 49.8785C60.6729 50.3965 60.022 51.2386 58.9697 51.7431C57.9121 52.2724 56.8556 52.2818 56.6011 51.7628C56.3465 51.2438 56.9974 50.4161 58.0497 49.892C59.1021 49.3678 60.1638 49.3585 60.4183 49.8785Z" fill="#2C2C2C"/>
<path d="M72.2598 55.9033C72.097 55.4322 71.8194 55.0093 71.452 54.6729C71.0847 54.3364 70.6392 54.0971 70.1561 53.9765C69.9115 53.9171 69.6622 53.8789 69.4111 53.8626C68.4339 53.7578 67.4469 53.9282 66.5613 54.3546C66.4737 54.3908 66.3952 54.4459 66.3315 54.5162C66.2678 54.5864 66.2204 54.6699 66.1929 54.7607C65.8692 55.82 65.9779 56.9646 66.4951 57.9439C66.4955 58.0226 66.5167 58.0998 66.5565 58.1676C66.5963 58.2355 66.6533 58.2916 66.7217 58.3303C67.1706 58.6604 67.6943 58.874 68.2459 58.9518C66.939 69.1034 62.7006 81.3805 56.1867 89.8861C50.7273 83.1878 47.9272 74.7094 48.3225 66.0735C48.3313 65.9545 48.2925 65.8369 48.2147 65.7466C48.1368 65.6562 48.0264 65.6006 47.9075 65.5918C47.7887 65.583 47.6712 65.6218 47.581 65.6997C47.4908 65.7776 47.4351 65.8882 47.4264 66.0072C47.2708 67.3714 47.1921 68.7434 47.1904 70.1165C47.2422 77.9352 50.5452 85.4008 55.6445 91.529C55.6719 91.5619 55.702 91.5924 55.7345 91.6201C55.6038 95.3447 55.791 99.0735 56.2943 102.766C56.508 104.131 56.7947 105.484 57.1532 106.818C57.1794 106.938 57.2511 107.042 57.353 107.109C57.4549 107.176 57.5789 107.2 57.6985 107.177C57.8181 107.153 57.9238 107.084 57.9931 106.983C58.0623 106.883 58.0895 106.76 58.069 106.639C57.2484 100.394 57.1832 93.3511 56.8976 91.3653C63.8875 82.4672 68.0866 70.5443 69.2248 58.9777C70.9653 58.8182 72.7141 57.6062 72.2598 55.9033ZM70.628 56.9039C69.6814 57.5511 68.5223 57.8086 67.3912 57.6228C67.1416 56.9324 67.1252 56.1791 67.3446 55.4785C70.1727 54.7327 71.3689 56.1622 70.628 56.9039Z" fill="#2C2C2C"/>
<path d="M6.42018 108.115C7.17142 108.362 8.66563 108.937 9.76041 109.429C14.1801 111.298 18.2169 113.969 21.6675 117.307C23.3645 118.844 24.9788 120.432 26.0135 121.519C26.0967 121.609 26.2114 121.665 26.3342 121.674C26.4569 121.682 26.5784 121.644 26.6737 121.566C26.7199 121.526 26.7576 121.476 26.7846 121.421C26.8115 121.365 26.8273 121.305 26.8308 121.244C26.8344 121.182 26.8257 121.121 26.8053 121.063C26.7849 121.004 26.7532 120.951 26.712 120.905C21.4854 114.22 15.2633 109.9 10.2747 108.115C9.09055 107.71 7.87112 107.416 6.63231 107.237C6.51727 107.211 6.39651 107.23 6.29593 107.292C6.19534 107.354 6.12293 107.453 6.09423 107.567C6.06699 107.683 6.08576 107.805 6.14657 107.907C6.20738 108.01 6.30549 108.084 6.42018 108.115Z" fill="#2C2C2C"/>
<path d="M28.5645 118.954C31.5912 115.814 35.456 113.607 39.2929 111.539C44.6965 108.667 49.5775 106.48 55.6071 105.408C55.7273 105.392 55.849 105.423 55.9474 105.494C56.0457 105.565 56.1133 105.671 56.1362 105.79C56.159 105.909 56.1355 106.033 56.0705 106.135C56.0054 106.237 55.9036 106.311 55.7861 106.341C51.5493 107.302 47.4592 108.824 43.6234 110.865C39.8893 112.687 36.296 114.784 32.8732 117.14C28.8749 120.091 29.058 121.225 28.165 121.059C28.0384 121.031 27.9209 120.971 27.8236 120.886C27.7263 120.8 27.6522 120.691 27.6083 120.568C26.7604 118.24 25.4471 116.109 23.7486 114.306C19.9367 110.385 15.5098 107.115 10.6433 104.624C10.5887 104.602 10.539 104.569 10.497 104.528C10.4551 104.486 10.4218 104.437 10.399 104.382C10.3762 104.328 10.3644 104.269 10.3643 104.21C10.3641 104.151 10.3756 104.093 10.3981 104.038C10.446 103.928 10.5354 103.842 10.6466 103.798C10.7579 103.754 10.8821 103.756 10.992 103.803C12.5973 104.433 14.1496 105.191 15.634 106.069C20.6381 108.867 26.3294 113.71 28.5645 118.954Z" fill="#2C2C2C"/>
<path d="M31.4065 121.423C32.6994 120.45 34.0547 119.563 35.4638 118.769C42.7434 114.488 52.8717 111.098 61.0443 109.115C61.1619 109.085 61.2632 109.011 61.3271 108.908C61.3909 108.804 61.4123 108.68 61.3867 108.562C61.3611 108.443 61.2905 108.339 61.1898 108.271C61.0891 108.203 60.9661 108.177 60.8467 108.199C54.7144 109.206 48.7283 110.96 43.0217 113.423C38.2846 115.494 34.1631 117.319 30.8115 120.752C30.7227 120.831 30.6689 120.942 30.6619 121.061C30.6549 121.18 30.6953 121.296 30.7742 121.385C30.8531 121.474 30.9641 121.528 31.0826 121.535C31.2012 121.542 31.3177 121.502 31.4065 121.423Z" fill="#2C2C2C"/>
<path d="M1.3331 123.273C3.02753 122.235 4.89855 121.517 6.85255 121.157C7.55723 120.994 8.04047 120.986 8.02287 120.505C7.98666 120.002 7.47548 120.014 6.73976 120.014C4.59033 119.988 2.50101 120.724 0.841581 122.092C0.324197 122.714 -0.00692973 123.116 0.294188 123.434C0.559089 123.728 0.836407 123.537 1.3331 123.273Z" fill="#2C2C2C"/>
<path d="M3.31441 125.921C5.16458 125.3 4.54682 125.016 9.33366 123.664C9.98659 123.47 10.5526 123.477 10.5133 122.946C10.4564 122.436 9.8707 122.498 9.15464 122.521C6.9365 122.678 4.8007 123.427 2.9688 124.688C2.33966 125.266 1.99094 125.611 2.24446 125.964C2.47314 126.297 2.76185 126.128 3.31441 125.921Z" fill="#2C2C2C"/>
<path d="M7.20421 128.153C7.52179 128.077 7.82918 127.963 8.11998 127.814C9.50657 127.231 10.9066 126.813 11.0732 126.756C12.4826 126.254 12.7588 126.206 12.6957 125.764C12.6254 125.285 12.1245 125.349 11.5078 125.376C9.78736 125.542 8.12566 126.09 6.6444 126.982C6.11253 127.461 5.76277 127.743 5.96559 128.087C6.15495 128.431 6.4809 128.343 7.20421 128.153Z" fill="#2C2C2C"/>
<path d="M12.0405 130.011C14.1297 129.314 14.8954 129.134 14.8147 128.584C14.735 128.155 14.3273 128.188 13.7799 128.188C12.4663 128.241 11.1889 128.634 10.0713 129.327C9.64811 129.697 9.32527 130.011 9.52394 130.346C9.83955 130.99 11.3617 130.238 12.0405 130.011Z" fill="#2C2C2C"/>
<path d="M83.6638 117.309C82.6651 116.519 81.5432 115.9 80.3433 115.476C79.0854 115.022 77.7377 114.873 76.4111 115.042C72.4186 115.535 68.6235 117.062 65.4002 119.472C65.3459 119.504 65.2989 119.548 65.2618 119.599C65.2247 119.651 65.1984 119.709 65.1844 119.771C65.1705 119.833 65.1691 119.897 65.1805 119.959C65.1919 120.021 65.2157 120.081 65.2506 120.134C65.2855 120.187 65.3308 120.232 65.3836 120.267C65.4364 120.302 65.4958 120.326 65.5581 120.337C65.6204 120.348 65.6844 120.347 65.7461 120.333C65.8079 120.319 65.8662 120.293 65.9176 120.256C69.2195 118.352 72.8439 117.075 76.6088 116.487C77.489 116.373 78.3831 116.43 79.2412 116.657C80.5979 117.05 81.9279 117.529 83.223 118.093C83.3263 118.144 83.445 118.153 83.5548 118.119C83.6647 118.085 83.7573 118.01 83.8137 117.909C83.8701 117.809 83.886 117.691 83.8582 117.579C83.8303 117.468 83.7608 117.371 83.6638 117.309Z" fill="#2C2C2C"/>
<path d="M75.369 119.911C72.8584 120.453 70.4853 121.504 68.3957 122.999C67.6465 123.562 67.2202 123.805 67.4892 124.237C67.8597 124.845 68.3677 124.153 72.3205 122.442C73.7547 121.821 75.1786 121.43 76.0757 120.997C76.5569 120.79 77.036 120.654 76.9346 120.232C76.8559 119.834 76.4638 119.792 75.369 119.911Z" fill="#2C2C2C"/>
<path d="M75.5045 125.043C74.4318 125.328 73.3915 125.723 72.4002 126.223C71.3518 126.669 70.3679 127.253 69.4749 127.961C68.8882 128.426 68.4132 128.771 68.7102 129.179C69.0072 129.587 69.2825 129.337 70.9371 128.537C74.7398 126.686 74.9571 126.797 75.9857 126.242C76.74 125.777 77.1157 125.633 76.9667 125.207C76.8177 124.78 76.2692 124.896 75.5045 125.043Z" fill="#2C2C2C"/>
<path d="M75.1614 130.824C73.4146 131.542 71.7203 132.381 70.0911 133.337C69.9919 133.408 69.8689 133.437 69.7483 133.419C69.6277 133.401 69.519 133.336 69.4452 133.239C69.3714 133.142 69.3383 133.02 69.353 132.899C69.3678 132.777 69.4291 132.667 69.524 132.59C71.1468 131.276 72.9446 130.196 74.8655 129.379C75.4118 129.132 75.0828 129.319 84.6958 133.402C84.8086 133.441 84.9025 133.521 84.9586 133.626C85.0147 133.732 85.0288 133.854 84.9979 133.97C84.9817 134.026 84.9543 134.079 84.9174 134.125C84.8805 134.171 84.8347 134.21 84.7829 134.238C84.731 134.266 84.6741 134.283 84.6154 134.289C84.5568 134.295 84.4975 134.289 84.4412 134.271C81.3659 133.757 79.8324 132.888 75.1614 130.824Z" fill="#2C2C2C"/>
<path d="M75.4227 109.634C81.2236 114.053 79.7687 112.681 84.4996 116.727C85.0946 117.238 87.0669 118.881 87.4529 119.231C87.543 119.32 87.6648 119.37 87.7914 119.369C87.9181 119.368 88.0391 119.317 88.1281 119.227C88.217 119.136 88.2664 119.014 88.2656 118.888C88.2647 118.761 88.2136 118.64 88.1234 118.551C87.2739 117.635 86.4347 116.7 85.5365 115.812C83.0315 113.385 80.2535 111.258 77.2583 109.473C76.7968 109.246 76.3436 109.059 75.8624 108.859C75.8116 108.83 75.7555 108.811 75.6974 108.803C75.6393 108.796 75.5803 108.8 75.5238 108.815C75.4672 108.831 75.4142 108.857 75.3679 108.893C75.3215 108.929 75.2826 108.973 75.2535 109.024C75.2243 109.075 75.2055 109.131 75.198 109.189C75.1905 109.248 75.1945 109.307 75.2099 109.363C75.2252 109.42 75.2515 109.473 75.2873 109.519C75.3231 109.566 75.3677 109.605 75.4185 109.634H75.4227Z" fill="#2C2C2C"/>
<path d="M55.625 104.372C55.615 104.303 55.5905 104.237 55.553 104.178C55.5156 104.12 55.466 104.07 55.4077 104.032C55.2856 102.879 55.1904 101.718 55.1149 100.556C54.9266 97.6841 54.8417 94.822 54.6534 91.9578C54.6442 91.8133 54.5797 91.6778 54.4733 91.5797C52.0072 89.1802 50.0381 86.3173 48.6786 83.155C47.3176 79.9817 46.4551 76.6168 46.1217 73.1795C46.1099 73.0566 46.0652 72.9391 45.9924 72.8394C45.9196 72.7397 45.8213 72.6614 45.7078 72.6129C45.5948 72.5618 45.4699 72.5427 45.3467 72.5577C45.2236 72.5727 45.1069 72.6211 45.0093 72.6978C44.1 73.4115 43.236 74.1813 42.4224 75.0026C41.2242 76.2312 40.1201 77.5623 39.0729 78.8664C34.9009 83.9418 31.8838 89.8663 30.2318 96.2277C28.7371 102.585 28.2483 109.139 28.7831 115.648C28.7913 115.792 28.8418 115.931 28.9283 116.046C29.0148 116.162 29.1334 116.249 29.2693 116.298C29.4052 116.346 29.5524 116.353 29.6923 116.318C29.8322 116.283 29.9587 116.208 30.0559 116.101C31.0178 115.057 32.0833 114.114 33.2358 113.286C34.4147 112.457 35.6394 111.694 36.904 111.002C38.5255 110.109 40.1916 109.299 41.8957 108.575C43.5898 107.852 45.3338 107.252 47.1141 106.78C47.22 106.754 47.3185 106.704 47.402 106.633C47.4854 106.563 47.5515 106.474 47.5952 106.374C47.6354 106.274 47.6528 106.166 47.6461 106.059C47.6395 105.951 47.609 105.847 47.5569 105.753C47.3024 105.28 47.0665 104.798 46.8492 104.317C46.6319 103.835 46.4063 103.325 46.1983 102.815C45.8807 102.118 45.6066 101.402 45.3777 100.671C45.2466 100.233 45.1735 99.7804 45.1604 99.3239C45.3328 99.38 45.4907 99.4733 45.623 99.5974C45.8014 99.8419 45.9533 100.105 46.0762 100.382C46.2831 100.863 46.4528 101.382 46.6515 101.855C47.0199 102.742 47.3686 103.65 47.7836 104.537C48.054 105.144 48.363 105.732 48.7086 106.298C48.7728 106.417 48.8794 106.508 49.0071 106.551C49.1348 106.595 49.2743 106.589 49.3978 106.535C50.3298 106.135 51.2845 105.792 52.2569 105.505C53.2324 105.231 54.2253 105.024 55.2287 104.883C55.2889 104.877 55.3471 104.859 55.4 104.83C55.4529 104.8 55.4992 104.76 55.5363 104.712C55.5733 104.665 55.6003 104.61 55.6155 104.551C55.6308 104.493 55.634 104.432 55.625 104.372Z" fill="#FFB769"/>
<path d="M59.2312 82.0616C57.7078 81.0302 56.4369 79.6676 55.5133 78.0756C55.1847 77.6001 54.9558 77.0629 54.8405 76.4963C54.7253 75.9298 54.726 75.3457 54.8427 74.7794C54.8665 74.7199 54.8764 74.6557 54.8716 74.5918C54.8667 74.5279 54.8473 74.4659 54.8148 74.4107C54.7853 74.3539 54.7438 74.3042 54.6933 74.2651C54.6427 74.2259 54.5843 74.1982 54.522 74.1838C53.6225 73.8454 52.782 73.3672 52.0313 72.7667C51.2996 72.2041 50.7031 71.4845 50.2856 70.6608C50.2085 70.5116 50.0804 70.3951 49.9246 70.3327C49.7688 70.2703 49.5957 70.2662 49.4371 70.321C49.2763 70.3736 49.1403 70.4834 49.055 70.6297C48.9697 70.776 48.9411 70.9485 48.9746 71.1145C49.0211 71.4066 49.0874 71.6998 49.1536 71.9929C49.3047 72.6352 49.4837 73.2774 49.6347 73.929C50.196 76.3352 50.9242 78.6993 51.814 81.004C52.7237 83.333 53.922 85.5384 55.3808 87.5684C55.4485 87.6651 55.5392 87.7434 55.6447 87.7962C55.7502 87.849 55.8672 87.8747 55.9851 87.8708C56.1017 87.8658 56.2154 87.8333 56.317 87.7758C56.4187 87.7184 56.5053 87.6377 56.5698 87.5404L59.4382 83.0064C59.5324 82.8527 59.5635 82.6684 59.5249 82.4922C59.4863 82.3161 59.3811 82.1617 59.2312 82.0616Z" fill="#FFB769"/>
<path d="M140.35 126.034C140.335 125.951 140.301 125.872 140.249 125.805C140.197 125.738 140.13 125.684 140.053 125.649C139.976 125.613 139.892 125.597 139.807 125.602C139.723 125.606 139.64 125.632 139.568 125.675C137.56 126.945 135.315 127.795 132.97 128.172C130.625 128.548 128.227 128.445 125.923 127.867C124.106 127.155 122.449 126.087 121.049 124.726C119.65 123.365 118.535 121.739 117.77 119.941C117.061 118.138 116.737 116.206 116.817 114.27C116.898 112.334 117.382 110.436 118.239 108.698C119.095 106.96 120.305 105.42 121.791 104.178C123.277 102.936 125.006 102.018 126.867 101.484C128.677 100.882 130.607 100.74 132.486 101.07C134.364 101.399 136.131 102.191 137.628 103.374C137.741 103.467 137.88 103.523 138.026 103.533C138.172 103.544 138.318 103.507 138.442 103.43C138.566 103.353 138.663 103.238 138.719 103.102C138.774 102.967 138.786 102.817 138.751 102.674C136.323 92.1427 123.437 80.1877 109.815 79.1715C114.122 85.1868 116.935 94.1523 119.002 100.605C119.025 100.664 119.037 100.727 119.036 100.79C119.035 100.854 119.021 100.916 118.995 100.974C118.969 101.032 118.932 101.085 118.886 101.128C118.839 101.171 118.784 101.205 118.725 101.226C118.665 101.248 118.602 101.257 118.538 101.254C118.475 101.25 118.413 101.234 118.356 101.206C118.299 101.178 118.248 101.139 118.207 101.09C118.165 101.042 118.134 100.986 118.115 100.926C115.282 93.7783 114.089 90.4697 112.293 86.5873C111.164 83.9439 109.743 81.435 108.057 79.1072C99.5821 70.4908 82.7619 62.729 71.3226 66.9129C71.1662 66.9728 71.0346 67.0837 70.949 67.2276C70.8634 67.3716 70.8287 67.5403 70.8507 67.7064C71.6465 73.2649 67.6823 78.8296 63.0279 81.9227C62.9483 81.9755 62.8799 82.0434 62.8266 82.1227C62.7733 82.202 62.7362 82.2911 62.7174 82.3847C62.0749 85.5866 60.5631 89.6276 57.6698 91.1223C57.5484 91.1868 57.4472 91.2836 57.3772 91.4021C57.3073 91.5205 57.2714 91.656 57.2735 91.7936C57.3768 95.8663 57.7773 99.926 58.4718 103.94C58.4945 104.066 58.5489 104.184 58.6298 104.283C58.7107 104.383 58.8155 104.459 58.9343 104.507C59.7042 104.797 60.5817 105.209 60.3685 106C60.3399 106.103 60.3347 106.212 60.3533 106.318C60.3719 106.424 60.4139 106.525 60.4763 106.613C60.5386 106.701 60.6197 106.773 60.7136 106.826C60.8076 106.878 60.912 106.909 61.0194 106.916C62.1939 106.989 63.6767 107.73 63.2462 108.871C63.2029 108.985 63.1889 109.107 63.2053 109.228C63.2217 109.348 63.2681 109.462 63.3403 109.56C63.4124 109.658 63.5079 109.736 63.618 109.787C63.7282 109.838 63.8494 109.861 63.9705 109.853L66.0556 109.712C66.4902 111.289 66.7737 112.905 67.169 114.492C67.5208 115.899 67.5715 116.128 67.943 116.315C68.5339 116.551 68.5328 116.062 71.6134 115.256C75.8983 114.19 76.9165 114.607 77.1235 113.745C77.3232 112.947 76.2502 112.843 75.1047 111.233C74.4186 110.258 73.9726 109.004 74.9629 108.342C75.5599 107.981 76.2711 107.86 76.9538 108.002C80.7762 108.719 83.4635 111.148 86.1446 113.944C86.2475 114.05 86.3808 114.122 86.5262 114.149C86.6715 114.176 86.8217 114.157 86.9559 114.095C87.1053 113.989 87.275 113.915 87.4543 113.878C87.6336 113.841 87.8187 113.842 87.9977 113.88C88.1768 113.918 88.346 113.993 88.4948 114.1C88.6435 114.207 88.7685 114.343 88.8619 114.501C90.5848 117.077 89.2055 124.647 88.5411 127.649C87.8822 130.605 87.0216 133.512 85.9656 136.351C85.9108 136.502 85.911 136.668 85.966 136.82C86.0211 136.971 86.1275 137.098 86.2667 137.179C93.5339 141.414 103.514 142.615 111.488 139.758C114.29 138.751 117.172 137.587 119.027 135.233C121.449 135.864 124.171 135.44 126.633 135.186C131.189 134.703 135.688 133.786 140.07 132.446C140.166 132.413 140.253 132.355 140.319 132.277C140.386 132.199 140.43 132.104 140.447 132.003C140.723 130.02 140.691 128.007 140.35 126.034ZM109.379 118.975C109.331 119.09 109.24 119.181 109.125 119.229C109.01 119.277 108.881 119.277 108.766 119.23C104.606 117.755 91.5699 113.112 87.6492 113.496C87.5909 113.507 87.5311 113.507 87.473 113.495C87.415 113.483 87.3598 113.46 87.3108 113.426C87.2617 113.393 87.2197 113.35 87.1871 113.301C87.1546 113.251 87.1321 113.196 87.1209 113.137C87.1098 113.079 87.1102 113.019 87.1222 112.961C87.1342 112.903 87.1575 112.848 87.1908 112.798C87.2241 112.749 87.2667 112.707 87.3162 112.675C87.3658 112.642 87.4212 112.62 87.4795 112.608C89.7694 111.955 91.7996 112.426 94.0275 113.008C92.8199 111.107 91.8039 109.089 90.9946 106.987C88.9799 102.006 88.8019 100.254 88.5991 98.6179C88.5706 98.5014 88.5893 98.3784 88.6512 98.2757C88.7131 98.1731 88.813 98.0991 88.9292 98.0699C88.9861 98.0559 89.0453 98.0534 89.1032 98.0625C89.1612 98.0715 89.2167 98.092 89.2667 98.1228C89.3167 98.1535 89.36 98.1939 89.3943 98.2415C89.4285 98.2892 89.453 98.3432 89.4662 98.4004C91.6641 104.142 91.7086 105.834 95.5413 113.403C100.212 114.629 104.757 116.294 109.115 118.375C109.173 118.397 109.225 118.429 109.27 118.472C109.314 118.514 109.35 118.565 109.375 118.621C109.399 118.677 109.412 118.738 109.413 118.799C109.414 118.86 109.402 118.921 109.379 118.978V118.975Z" fill="#FFB769"/>
<path d="M140.807 110.344C136.23 100.795 122.549 100.957 119.096 111.194C118.101 114.207 118.301 117.488 119.653 120.358C121.005 123.228 123.407 125.469 126.362 126.618C136.425 130.458 145.464 120.068 140.807 110.344ZM134.288 119.631C134.033 119.984 133.752 119.757 133.213 119.613C133.012 119.565 132.806 119.536 132.599 119.528C130.65 119.36 129.52 121.041 128.92 120.472C128.551 120.122 129.151 119.229 129.382 119.065C129.857 118.664 130.415 118.376 131.017 118.223C131.618 118.069 132.246 118.053 132.854 118.177C133.482 118.334 134.714 119.077 134.288 119.631ZM135.392 117.063C134.746 116.436 133.965 115.965 133.11 115.685C132.118 115.346 131.042 115.34 130.047 115.667C129.051 115.994 128.188 116.637 127.589 117.497C127.242 117.927 126.92 118.376 126.627 118.844C126.584 118.953 126.5 119.04 126.394 119.088C126.287 119.136 126.166 119.141 126.057 119.102C125.947 119.063 125.856 118.983 125.804 118.878C125.752 118.774 125.742 118.653 125.777 118.542C126.006 117.442 126.553 116.434 127.348 115.642C128.144 114.85 129.154 114.309 130.253 114.086C131.353 113.863 132.494 113.967 133.535 114.387C134.575 114.806 135.471 115.522 136.109 116.445C136.191 116.541 136.232 116.665 136.222 116.79C136.213 116.916 136.154 117.033 136.058 117.115C135.963 117.197 135.839 117.237 135.713 117.228C135.588 117.218 135.471 117.159 135.389 117.063H135.392ZM137.582 114.398C137.478 114.467 137.352 114.493 137.229 114.472C137.106 114.451 136.996 114.384 136.921 114.284C135.916 112.88 134.526 111.798 132.92 111.167C131.478 110.771 129.947 110.849 128.552 111.39C127.157 111.931 125.973 112.906 125.174 114.171C124.728 114.792 124.351 115.461 124.051 116.164C124.02 116.279 123.946 116.377 123.843 116.437C123.741 116.497 123.619 116.514 123.504 116.485C123.447 116.471 123.394 116.446 123.348 116.411C123.301 116.376 123.262 116.333 123.232 116.283C123.202 116.233 123.183 116.177 123.174 116.12C123.166 116.062 123.169 116.003 123.183 115.947C123.894 111.067 129.125 108.468 133.355 109.807C135.208 110.573 136.739 111.958 137.685 113.727C137.757 113.831 137.786 113.959 137.766 114.084C137.747 114.209 137.679 114.321 137.579 114.398H137.582Z" fill="#2C2C2C"/>
<path d="M150.331 143.328C150.318 143.232 150.285 143.139 150.235 143.055C150.186 142.971 150.12 142.898 150.041 142.84C149.963 142.782 149.874 142.741 149.78 142.718C149.685 142.695 149.587 142.691 149.491 142.707C143.368 143.754 131.109 146.88 129.893 147.136C125.325 146.028 112.147 144.443 106.115 143.499C105.931 143.468 105.743 143.512 105.59 143.62C105.438 143.728 105.335 143.892 105.303 144.076C105.046 145.487 104.876 146.913 104.793 148.345C101.437 148.394 74.0602 149.253 69.9419 149.348C67.7502 149.399 62.1945 149.107 60.3827 147.733C60.2526 147.656 60.1465 147.545 60.0764 147.411C60.0063 147.278 59.9751 147.127 59.9863 146.976C62.4118 145.941 74.2279 145.918 76.2726 145.683C78.6184 145.38 82.1946 144.535 81.5189 142.273C80.4065 138.559 65.5575 140.125 62.4584 137.163C62.3721 137.087 62.2602 137.048 62.1458 137.053C62.0315 137.058 61.9234 137.107 61.8438 137.189C61.7642 137.271 61.7192 137.381 61.718 137.496C61.7168 137.61 61.7596 137.721 61.8375 137.805C65.2647 141.189 79.5321 140.581 80.1426 142.679C80.2378 143.036 79.6045 143.343 79.2651 143.491C76.0656 144.903 70.2802 144.059 62.4698 144.983C61.5034 145.066 60.5483 145.25 59.62 145.531C59.4066 145.591 59.2084 145.696 59.039 145.839C58.8696 145.982 58.7328 146.16 58.638 146.36C58.1103 147.89 59.2144 149.08 61.2332 149.761C64.0881 150.503 67.0312 150.849 69.9801 150.791C73.518 150.696 99.3055 149.512 104.947 149.288C105.233 149.64 103.315 149.251 129.526 152.253C129.526 152.253 147.982 148.012 149.737 147.663C149.885 147.635 150.019 147.56 150.121 147.45C150.223 147.339 150.287 147.199 150.303 147.049C150.457 145.814 150.466 144.565 150.331 143.328Z" fill="#2C2C2C"/>
<path d="M145.639 142.187C141.639 141.643 140.327 140.415 123.747 138.928C123.67 138.914 123.59 138.92 123.516 138.946C123.441 138.973 123.375 139.018 123.324 139.078C121.677 139.204 120.038 139.419 118.414 139.72C115.983 140.112 113.593 140.726 111.274 141.552C110.07 142.089 109.618 142.319 109.774 142.761C109.947 143.224 110.435 143.033 111.67 142.77C111.955 142.71 112.246 142.648 112.529 142.573C118.451 141.051 117.45 141.433 120.662 140.74C120.766 140.716 123.913 139.972 124.018 139.933C128.071 141.036 130.576 141.013 135.815 141.762C138.531 142.138 141.517 142.808 145.524 143.122C145.648 143.137 145.772 143.102 145.871 143.025C145.969 142.949 146.033 142.836 146.048 142.712C146.063 142.588 146.029 142.463 145.952 142.365C145.875 142.266 145.762 142.203 145.639 142.187Z" fill="#2C2C2C"/>
<path d="M67.0715 130.351C66.7387 130.003 66.5408 129.547 66.5131 129.066C66.4854 128.585 66.6298 128.11 66.9204 127.725C66.9849 127.631 67.0246 127.522 67.0356 127.409C67.0467 127.295 67.0288 127.181 66.9836 127.076C66.9384 126.971 66.8675 126.88 66.7773 126.81C66.6872 126.74 66.5808 126.694 66.4682 126.677C64.7277 126.431 63.3836 124.968 64.0148 123.23C64.0457 123.14 64.0579 123.046 64.0506 122.952C64.0433 122.858 64.0166 122.766 63.9724 122.683C63.9281 122.599 63.8671 122.526 63.7932 122.467C63.7193 122.409 63.6341 122.366 63.5429 122.342C62.2608 121.997 61.5882 121.539 62.2505 120.395C63.3787 118.792 64.8776 117.486 66.6193 116.589C66.7579 116.519 66.8694 116.405 66.936 116.265C67.0025 116.125 67.0203 115.966 66.9866 115.815L66.0243 111.593C65.9856 111.424 65.8864 111.275 65.7456 111.174C65.6047 111.073 65.4319 111.027 65.2596 111.045C54.7784 112.179 38.8916 119.205 29.5932 124.127C29.2338 124.293 28.849 124.398 28.4549 124.437C27.9332 124.482 27.4082 124.473 26.8883 124.409C20.0102 117.78 11.6772 114.133 3.34629 109.844C3.20219 109.773 3.03898 109.752 2.88153 109.783C2.72408 109.814 2.58101 109.895 2.47413 110.015C2.36725 110.135 2.30242 110.286 2.2895 110.446C2.27658 110.606 2.31629 110.766 2.40258 110.902C3.55945 112.648 5.09298 115.3 6.07291 116.984C6.81173 118.265 8.92266 118.668 8.92266 119.639C8.92151 119.783 8.96315 119.923 9.04225 120.042C9.12135 120.162 9.23429 120.255 9.36657 120.309C10.271 120.682 11.3006 121.381 11.3006 122.359C11.294 122.509 11.3366 122.656 11.4219 122.779C11.5071 122.902 11.6303 122.993 11.7724 123.039C12.6799 123.35 14.1524 124.22 13.9516 125.165C13.9156 125.319 13.9334 125.481 14.0021 125.623C14.0709 125.766 14.1863 125.881 14.3293 125.949C15.9311 126.741 17.116 128.601 15.6745 129.781C15.5865 129.855 15.5181 129.95 15.4755 130.057C15.433 130.164 15.4176 130.279 15.4307 130.394C15.4438 130.508 15.4851 130.617 15.5507 130.712C15.6164 130.806 15.7045 130.882 15.807 130.934C22.0412 134.368 27.2342 139.423 30.838 145.565C31.1071 145.997 31.3192 145.628 32.8662 145.915C33.4035 146.005 33.9334 146.134 34.4514 146.303V146.331C34.5232 146.356 34.6006 146.362 34.6754 146.347C34.7501 146.332 34.8194 146.297 34.8757 146.246C44.5187 138.759 54.6801 137.29 64.9098 134.126C65.0102 134.094 65.1017 134.038 65.1769 133.964C65.2522 133.891 65.3092 133.8 65.3434 133.7C65.6239 132.773 66.2091 131.968 67.0042 131.415C67.091 131.359 67.1634 131.283 67.2156 131.193C67.2679 131.104 67.2985 131.003 67.305 130.9C67.3116 130.797 67.2938 130.693 67.2533 130.598C67.2127 130.503 67.1505 130.418 67.0715 130.351ZM30.2513 139.985C30.1917 139.999 30.1299 140.001 30.0696 139.991C30.0092 139.981 29.9514 139.959 29.8996 139.926C29.8477 139.894 29.8028 139.851 29.7675 139.801C29.7321 139.751 29.707 139.694 29.6936 139.635C29.4018 138.662 29.081 137.727 28.8068 136.754C28.5501 135.847 27.1811 130.116 27.0239 128.649C26.9866 128.243 26.9763 127.846 26.9576 127.44C26.9359 127.326 26.9595 127.207 27.0234 127.109C27.0874 127.012 27.1867 126.943 27.3005 126.917C27.4142 126.891 27.5336 126.911 27.6333 126.971C27.733 127.032 27.8054 127.129 27.8351 127.242C27.9769 127.638 28.1373 127.998 28.2697 128.381C28.6836 129.585 30.0143 135.698 30.1468 136.447C30.3268 137.439 30.4572 138.422 30.6093 139.423C30.6226 139.484 30.6239 139.546 30.613 139.607C30.6022 139.668 30.5795 139.726 30.5463 139.778C30.513 139.83 30.4699 139.875 30.4193 139.91C30.3687 139.946 30.3116 139.971 30.2513 139.984V139.985ZM33.9765 144.289C33.8264 143.221 33.6278 142.163 33.4487 141.096C31.7269 131.029 31.8873 134.124 31.2881 129.487C31.2702 129.429 31.2641 129.368 31.2704 129.308C31.2767 129.247 31.2951 129.189 31.3246 129.136C31.3541 129.083 31.394 129.036 31.442 128.999C31.49 128.962 31.545 128.935 31.6037 128.919C31.6624 128.904 31.7236 128.901 31.7836 128.91C31.8436 128.919 31.9012 128.94 31.9529 128.972C32.0045 129.003 32.0492 129.045 32.0841 129.095C32.1191 129.145 32.1437 129.201 32.1563 129.26C32.3633 129.761 32.5702 130.242 32.7596 130.753C34.0749 135.125 34.7984 139.655 34.9109 144.219C34.9153 144.341 34.8726 144.459 34.7916 144.55C34.7106 144.64 34.5977 144.696 34.4766 144.705C34.3555 144.714 34.2358 144.675 34.1425 144.597C34.0492 144.52 33.9897 144.409 33.9765 144.288V144.289Z" fill="#2C2C2C"/>
<path d="M148.043 96.7839C160.097 95.3844 160.586 93.4908 161.017 94.4324C161.071 94.5437 161.078 94.6717 161.037 94.7882C160.996 94.9047 160.911 95.0003 160.8 95.054C156.647 97.2365 152.549 97.6975 147.826 98.2652C147.702 98.2828 147.576 98.2676 147.46 98.221C147.344 98.1745 147.242 98.0983 147.165 98C146.035 96.6303 144.778 95.3716 143.41 94.2408C143.36 94.2105 143.316 94.1706 143.281 94.1233C143.246 94.0761 143.221 94.0225 143.207 93.9655C143.193 93.9086 143.191 93.8494 143.199 93.7914C143.208 93.7334 143.228 93.6777 143.259 93.6276C143.322 93.5267 143.422 93.4538 143.537 93.4238C143.653 93.3938 143.775 93.4089 143.88 93.466C145.508 94.23 146.934 95.3666 148.043 96.7839Z" fill="#2C2C2C"/>
<path d="M170.349 75.7636C172.798 81.7856 174.638 88.0384 175.84 94.428C176.395 98.1514 176.653 101.913 176.613 105.678C175.895 119.955 158.899 120.938 146.796 124.153C146.735 124.167 146.676 124.193 146.625 124.229C146.574 124.266 146.53 124.312 146.497 124.365C146.464 124.419 146.441 124.479 146.432 124.541C146.422 124.603 146.424 124.667 146.44 124.728C146.455 124.789 146.482 124.847 146.52 124.897C146.557 124.948 146.605 124.99 146.659 125.022C146.714 125.054 146.774 125.075 146.836 125.083C146.899 125.091 146.962 125.087 147.023 125.07C157.223 122.653 177.33 121.85 178.076 105.753C178.121 101.887 177.852 98.0238 177.274 94.2011C176.133 87.6659 174.075 81.325 171.16 75.3668C171.134 75.3135 171.098 75.2658 171.053 75.2265C171.009 75.1872 170.957 75.1571 170.901 75.1378C170.845 75.1185 170.786 75.1105 170.726 75.1141C170.667 75.1178 170.609 75.1331 170.556 75.1591C170.503 75.1852 170.455 75.2215 170.416 75.266C170.377 75.3104 170.347 75.3622 170.327 75.4183C170.308 75.4745 170.3 75.5339 170.304 75.5931C170.307 75.6523 170.323 75.7103 170.349 75.7636Z" fill="#2C2C2C"/>
<path d="M147.41 115.419C148.807 114.117 149.811 112.448 150.308 110.603C150.492 109.833 150.562 109.04 150.515 108.25C150.525 108.128 150.486 108.006 150.406 107.912C150.326 107.818 150.213 107.76 150.09 107.75C149.966 107.74 149.842 107.781 149.747 107.862C149.651 107.943 149.592 108.059 149.581 108.184C149.436 108.872 149.237 109.549 148.986 110.206C147.612 114.105 144.951 115.3 145.552 116.052C145.91 116.545 146.962 115.793 147.41 115.419Z" fill="#2C2C2C"/>
<path d="M196.528 46.7599C195.162 43.8998 190.854 41.8913 188.819 40.7518C185.066 38.6801 179.592 34.9002 175.393 35.4627C174.532 35.5875 173.716 35.9272 173.02 36.4505C172.324 36.9738 171.77 37.6639 171.41 38.4574C170.775 39.6711 170.217 40.9243 169.741 42.2093C169.214 42.3125 168.697 42.4623 168.195 42.6568C168.094 42.6952 168.011 42.7686 167.959 42.8636C167.907 42.9586 167.891 43.069 167.914 43.1747C162.105 53.867 157.953 64.3014 153.317 73.5258C151.77 76.6635 149.168 83.8845 146.325 85.6351C142.552 87.9628 134.621 86.5819 130.321 85.428C130.206 85.3942 130.082 85.4076 129.977 85.4652C129.871 85.5228 129.793 85.6199 129.759 85.7351C129.726 85.8504 129.739 85.9743 129.797 86.0797C129.854 86.1851 129.951 86.2633 130.066 86.2971C135.093 87.9141 142.558 89.6347 147.079 86.873C150.45 84.7774 152.889 77.6537 154.628 74.1867C159.922 63.5058 164.242 52.6126 168.907 43.386C169.916 43.1248 170.967 43.068 171.998 43.219C173.029 43.37 174.019 43.7257 174.911 44.2652C175.803 44.8047 176.578 45.5172 177.191 46.3608C177.804 47.2044 178.242 48.1621 178.48 49.1776C178.202 49.9721 176.021 54.5921 173.658 59.8233C167.668 73.0897 164.656 83.1439 160.684 93.4591C160.636 93.5756 160.637 93.7062 160.686 93.8223C160.734 93.9384 160.827 94.0304 160.943 94.078C161.06 94.1257 161.19 94.1251 161.306 94.0765C161.422 94.0278 161.514 93.935 161.562 93.8185C163.779 88.5097 165.428 84.2502 167.553 78.6865C173.852 62.154 172.662 65.8603 179.122 51.3312C179.489 50.5191 179.742 49.9141 179.846 49.622C179.93 49.4289 179.953 49.2143 179.911 49.0077C179.806 48.5909 179.674 48.1812 179.516 47.7813C179.699 47.3202 179.965 46.8968 180.301 46.532C180.765 46.6304 192.647 49.8054 195.05 49.4221C195.361 49.4239 195.667 49.3419 195.935 49.1848C196.204 49.0277 196.425 48.8013 196.576 48.5291C196.727 48.257 196.803 47.9492 196.794 47.638C196.786 47.3267 196.694 47.0234 196.528 46.7599Z" fill="#2C2C2C"/>
<path d="M166.086 39.5703C165.442 36.8998 159.096 37.3525 156.329 37.6819C151.738 38.233 145.613 38.8649 144.373 43.3678C143.802 45.3826 144.677 47.7361 145.185 49.6493C145.185 49.6638 145.194 49.6784 145.198 49.6929C145.059 49.9145 144.93 50.1393 144.811 50.3651C144.764 50.4459 144.735 50.5356 144.725 50.6284C144.715 50.7212 144.725 50.815 144.754 50.9038C146.627 58.0631 149.089 65.055 152.114 71.8077C152.164 71.921 152.256 72.0103 152.37 72.0562C152.485 72.1022 152.613 72.1011 152.727 72.0532C153.79 71.5622 151.899 71.1924 146.236 50.7909C147.989 47.7143 151.816 45.2262 155.274 46.1295C156.485 49.8701 157.883 53.5473 159.464 57.147C159.484 57.2025 159.515 57.2536 159.555 57.2971C159.595 57.3406 159.643 57.3757 159.696 57.4004C159.75 57.4251 159.808 57.4388 159.867 57.4408C159.926 57.4429 159.984 57.4331 160.04 57.4122C160.149 57.3685 160.238 57.2842 160.287 57.1767C160.336 57.0692 160.342 56.9469 160.303 56.8352C156.017 44.5518 156.493 45.1733 156.391 45.0563C158.545 44.4658 162.761 43.2684 164.632 42.0647C165.567 41.4794 166.335 40.6362 166.086 39.5703Z" fill="#2C2C2C"/>
<path d="M25.8297 40.8104C34.5393 27.3016 52.3456 30.8453 65.2544 24.2799C74.4007 19.6174 80.6817 11.3232 91.285 11.8971C91.4082 11.9029 91.529 11.861 91.6221 11.7799C91.7152 11.6989 91.7735 11.585 91.7848 11.462C91.79 11.4004 91.7828 11.3384 91.7636 11.2796C91.7445 11.2208 91.7137 11.1665 91.6732 11.1198C91.6327 11.0732 91.5832 11.0351 91.5277 11.008C91.4722 10.9808 91.4118 10.9651 91.3502 10.9617C80.1819 10.0356 73.3452 18.5795 64.6004 22.9861C51.493 29.6292 33.7032 25.5685 25.065 40.338C25.0024 40.4395 24.9827 40.5618 25.0101 40.6778C25.0376 40.7939 25.11 40.8943 25.2114 40.957C25.3128 41.0196 25.4349 41.0393 25.5509 41.0118C25.6668 40.9844 25.7671 40.9119 25.8297 40.8104Z" fill="#FFB769"/>
<path d="M31.1225 46.4465C31.2974 46.2797 32.2173 45.4707 32.5846 45.1144C35.1987 42.5205 38.4248 40.6296 41.9638 39.617C42.0849 39.5877 42.1895 39.5118 42.255 39.4057C42.3205 39.2996 42.3415 39.1719 42.3135 39.0504C42.2992 38.9896 42.2728 38.9323 42.2358 38.882C42.1988 38.8316 42.152 38.7893 42.0983 38.7576C42.0445 38.7258 41.9849 38.7053 41.923 38.6972C41.8612 38.6892 41.7983 38.6937 41.7382 38.7106C37.8177 39.2877 34.2207 41.2148 31.5664 44.1603C31.1275 44.6979 30.7418 45.2769 30.4147 45.8892C30.3782 45.9357 30.3511 45.989 30.3351 46.046C30.3191 46.103 30.3145 46.1625 30.3215 46.2213C30.3357 46.34 30.3964 46.4482 30.4903 46.5221C30.5841 46.596 30.7034 46.6296 30.822 46.6154C30.9406 46.6012 31.0487 46.5405 31.1225 46.4465Z" fill="#FFB769"/>
<path d="M67.836 31.2931C77.4821 29.8035 85.8575 18.008 94.8217 18.4845C94.8845 18.4927 94.9483 18.488 95.0092 18.4707C95.0701 18.4535 95.1269 18.424 95.1761 18.3841C95.2253 18.3443 95.2659 18.2948 95.2955 18.2388C95.325 18.1827 95.3429 18.1212 95.348 18.0581C95.3532 17.9949 95.3454 17.9313 95.3253 17.8712C95.3051 17.8111 95.273 17.7558 95.2309 17.7085C95.1887 17.6612 95.1374 17.623 95.0801 17.5961C95.0227 17.5692 94.9605 17.5543 94.8972 17.5522C87.2286 16.6396 80.843 23.552 73.3088 27.8664C71.5125 28.9064 69.615 29.7602 67.6456 30.4147C67.5287 30.4413 67.4268 30.5124 67.3615 30.613C67.2962 30.7135 67.2726 30.8356 67.2958 30.9533C67.3229 31.0698 67.3949 31.1708 67.4961 31.2345C67.5972 31.2981 67.7194 31.3192 67.836 31.2931Z" fill="#FFB769"/>
<path d="M35.731 55.4539C39.3289 53.0528 38.1679 53.2175 44.1664 50.3056C44.2795 50.2598 44.3705 50.1718 44.4202 50.0602C44.4699 49.9486 44.4744 49.8221 44.4329 49.7072C44.3914 49.5923 44.307 49.498 44.1975 49.444C44.088 49.3901 43.9619 49.3807 43.8456 49.4179C42.9993 49.6145 42.1669 49.8671 41.3539 50.1741C39.4016 50.9843 37.6069 52.1319 36.0518 53.5645C35.684 53.9508 35.3582 54.3751 35.0801 54.8303C34.9975 54.9167 34.9526 55.0324 34.9552 55.152C34.9578 55.2716 35.0078 55.3852 35.0941 55.4679C35.1804 55.5506 35.296 55.5956 35.4154 55.593C35.5349 55.5903 35.6484 55.5403 35.731 55.4539Z" fill="#FFB769"/>
<path d="M77.3844 38.7707C85.8788 35.1596 90.4421 30.0486 98.5971 26.567C101.734 25.1581 105.123 24.3968 108.561 24.3285C108.623 24.3298 108.684 24.3189 108.742 24.2963C108.8 24.2738 108.853 24.2401 108.897 24.1971C108.942 24.1542 108.978 24.1028 109.003 24.046C109.028 23.9892 109.041 23.928 109.043 23.866C109.044 23.804 109.033 23.7423 109.01 23.6845C108.988 23.6267 108.954 23.5739 108.911 23.5291C108.868 23.4843 108.817 23.4485 108.76 23.4235C108.704 23.3986 108.643 23.3851 108.581 23.3838C96.2492 22.7623 87.848 32.0054 76.9984 37.9585C76.8908 38.0098 76.808 38.1017 76.7681 38.2141C76.7282 38.3265 76.7346 38.4501 76.7858 38.5578C76.8369 38.6655 76.9288 38.7484 77.041 38.7883C77.1533 38.8283 77.2768 38.8219 77.3844 38.7707Z" fill="#FFB769"/>
<path d="M115.585 0.699123C112.771 2.83509 108.457 -0.088141 104.72 1.31236C104.567 1.36822 104.438 1.47453 104.354 1.61371C104.27 1.75289 104.236 1.91663 104.257 2.07787C104.635 5.12334 105.492 10.1753 105.973 12.3776C103.669 11.1925 101.479 14.8056 101.479 15.2832H101.499C101.013 17.3228 102.965 18.8155 105.244 18.6083C107.586 18.4125 108.829 16.5594 107.565 14.1406C107.264 13.5802 107.445 14.1862 107.267 12.3548C107.034 9.78269 106.233 6.03594 105.776 2.50258C108.92 1.75571 113.066 4.08746 116.184 1.41698C116.279 1.33745 116.339 1.22336 116.35 1.0998C116.361 0.976252 116.322 0.853361 116.243 0.758167C116.163 0.662973 116.05 0.603274 115.926 0.5922C115.803 0.581127 115.68 0.619589 115.585 0.699123ZM102.391 15.5007C102.921 14.6788 103.66 14.0134 104.532 13.5729C105.126 13.3565 105.702 13.6579 106.278 14.816C107.933 17.993 102.583 17.7154 102.391 15.5007Z" fill="#2C2C2C"/>
<path d="M28.944 53.073C27.2481 53.2802 22.8141 51.456 20.7135 52.2702C20.1526 50.9295 19.7208 49.5382 19.4242 48.1153C19.4107 47.9651 19.3579 47.7797 19.4438 47.7238C22.5285 45.6873 25.2789 50.532 28.7567 49.8991C28.8733 49.8717 28.9751 49.8011 29.0416 49.7015C29.1082 49.6019 29.1345 49.4807 29.1154 49.3625C29.0962 49.2442 29.0329 49.1376 28.9384 49.0642C28.8438 48.9907 28.7249 48.956 28.6057 48.9668C25.6048 49.3625 22.7851 44.063 18.6502 46.5957C17.5637 47.2172 18.1235 49.1388 18.5094 50.3456C19.6301 53.8727 23.7805 62.5689 21.2081 65.0146C20.0285 66.154 19.0123 65.7397 18.5177 64.363C18.2741 63.6798 18.2354 62.9402 18.4064 62.2353C18.5774 61.5304 18.9506 60.8909 19.48 60.3956C19.5261 60.3571 19.564 60.3098 19.5914 60.2563C19.6189 60.2029 19.6353 60.1445 19.6398 60.0846C19.6442 60.0247 19.6366 59.9645 19.6174 59.9076C19.5982 59.8507 19.5677 59.7982 19.5279 59.7533C19.488 59.7084 19.4395 59.672 19.3853 59.6462C19.3311 59.6204 19.2723 59.6058 19.2124 59.6032C19.1524 59.6005 19.0925 59.61 19.0363 59.631C18.9801 59.652 18.9287 59.6841 18.8851 59.7254C15.7632 62.2467 16.9635 67.1744 19.9892 67.1122C20.8349 67.0546 21.627 66.6768 22.2046 66.0556C24.984 63.41 22.5481 57.1564 21.1916 53.5454C23.9854 53.2647 26.5392 54.8599 29.1417 53.9918C29.2634 53.9656 29.3697 53.892 29.4372 53.7873C29.5048 53.6826 29.528 53.5554 29.5018 53.4335C29.4756 53.3117 29.4021 53.2052 29.2975 53.1376C29.1929 53.07 29.0658 53.0468 28.944 53.073Z" fill="#2C2C2C"/>
<path d="M51.6456 54.3376C51.1728 54.7507 50.8125 55.2771 50.5984 55.8676C50.5038 56.1752 50.4708 56.4984 50.5012 56.8187C50.5316 57.1391 50.6248 57.4503 50.7755 57.7346C50.9262 58.0188 51.1315 58.2705 51.3795 58.4752C51.6275 58.6799 51.9135 58.8336 52.2209 58.9276C52.9225 59.1534 54.2056 59.2052 54.127 58.4749C54.0763 58.0274 53.7027 58.1279 53.0136 57.8979C52.5231 57.6907 51.7429 57.035 51.986 56.3213C52.1964 55.874 52.4757 55.4625 52.8138 55.1021C52.9773 54.8328 53.4709 53.9409 53.0405 53.6664C52.6731 53.4416 52.1899 53.8839 51.6456 54.3376Z" fill="#2C2C2C"/>
<path d="M59.3701 76.7442C58.5423 75.1045 58.7555 71.8529 56.4459 71.8756C52.8438 71.9875 51.1561 69.2166 50.3594 65.6511C49.5204 61.321 49.0476 56.9279 48.9459 52.5183C49.7126 52.971 51.2441 53.4133 51.6042 52.6944C51.9436 52.0014 50.5446 50.6299 48.9417 50.4362C48.9583 49.0667 49.0245 47.3897 49.1632 46.0379C49.2751 46.0782 49.3891 46.1128 49.5046 46.1414C50.616 46.4191 51.1654 47.3783 51.6932 47.0105C52.074 46.7329 51.7853 46.215 51.5338 45.7727C51.2768 45.4365 50.9452 45.1648 50.5651 44.9791C50.1851 44.7933 49.7671 44.6987 49.3443 44.7026C49.3608 44.6063 49.3784 44.5099 49.397 44.4146C49.4191 44.3002 49.3961 44.1816 49.3328 44.0837C49.2696 43.9859 49.1709 43.9163 49.0576 43.8895C48.9443 43.8627 48.825 43.8809 48.7247 43.9402C48.6244 43.9994 48.5509 44.0952 48.5195 44.2075C47.7153 47.0401 47.3777 49.985 47.52 52.9264C47.6075 57.3083 48.084 61.6737 48.9438 65.9712C49.8182 69.6734 51.6125 72.8172 55.4359 73.1114C56.6135 73.1757 56.8194 72.898 57.2199 73.6294C57.9877 75.0226 58.1853 77.8588 59.1859 77.3792C59.2922 77.3173 59.3705 77.2168 59.4048 77.0986C59.4391 76.9804 59.4267 76.8535 59.3701 76.7442Z" fill="#2C2C2C"/>
<path d="M72.1419 51.3745C72.9628 48.3467 73.5509 45.2605 73.901 42.1428C74.0541 39.8763 73.3008 37.8222 71.2106 36.9096C70.3031 34.2815 67.7524 33.1006 65.1334 32.1777C59.7526 30.3131 51.5779 31.2506 46.9888 35.191C44.7785 37.0691 44.2901 40.8966 47.1212 42.0578C49.317 42.9363 51.8149 42.2205 61.1806 40.4895C61.4773 43.2422 62.2633 45.9196 63.5016 48.3953C64.3119 49.9459 65.4366 51.3102 66.8035 52.401C67.1822 52.7118 67.7348 52.3637 70.1469 52.1058C70.4413 52.075 70.7389 52.1051 71.0212 52.1942C71.3035 52.2833 71.5645 52.4295 71.788 52.6237C74.288 54.7929 73.9724 57.5866 72.1636 59.1819C72.063 59.2535 71.994 59.3614 71.9711 59.4828C71.9481 59.6043 71.973 59.7299 72.0405 59.8334C72.0741 59.8854 72.1177 59.9302 72.1688 59.9651C72.2199 60.0001 72.2774 60.0244 72.3381 60.0368C72.3987 60.0491 72.4612 60.0492 72.5218 60.0371C72.5825 60.0249 72.6401 60.0008 72.6914 59.966C76.5014 57.8808 75.1945 52.399 72.1419 51.3745ZM59.6212 33.9024C53.4664 35.4417 52.592 35.999 50.6291 37.095C50.4676 37.183 49.169 37.846 49.1287 37.8688C49.0368 37.9375 48.922 37.9682 48.8081 37.9544C48.6943 37.9406 48.5901 37.8834 48.5172 37.7948C48.4444 37.7061 48.4085 37.5927 48.4169 37.4782C48.4254 37.3637 48.4775 37.2569 48.5626 37.1799C48.8556 36.8262 49.1741 36.4945 49.5157 36.1876C51.6474 34.692 54.0874 33.6948 56.6556 33.2695C57.5868 33.1089 58.5337 33.0333 59.4774 32.967C59.5411 32.9514 59.6075 32.9492 59.6721 32.9606C59.7368 32.9721 59.7983 32.9968 59.8529 33.0334C59.9074 33.0699 59.9538 33.1175 59.989 33.1729C60.0242 33.2284 60.0475 33.2906 60.0574 33.3556C60.0673 33.4205 60.0635 33.4869 60.0464 33.5503C60.0293 33.6138 59.9991 33.6729 59.9579 33.7241C59.9167 33.7752 59.8653 33.8172 59.8069 33.8474C59.7486 33.8776 59.6847 33.8952 59.6191 33.8993L59.6212 33.9024ZM64.972 34.496C64.8395 35.1589 63.0732 34.9103 62.7069 34.7031C62.6034 34.6431 62.0322 34.179 62.0943 33.862C62.1647 33.5005 62.8993 33.3368 63.009 33.3337C63.3166 33.3669 63.6202 33.43 63.9155 33.5222C64.3428 33.6631 65.0672 34.0278 64.9741 34.496H64.972Z" fill="#2C2C2C"/>
</svg>
