<svg width="104" height="22" viewBox="0 0 104 22" fill="none" xmlns="http://www.w3.org/2000/svg">
<path d="M2.325 21.25C1.84167 21.25 1.43333 21.0917 1.1 20.775C0.783333 20.4583 0.625 20.0583 0.625 19.575V8.175C0.625 7.125 0.808333 6.15833 1.175 5.275C1.55833 4.375 2.075 3.6 2.725 2.95C3.375 2.28333 4.14167 1.76667 5.025 1.4C5.925 1.01667 6.89167 0.824999 7.925 0.824999C8.95833 0.824999 9.91667 1.01667 10.8 1.4C11.7 1.76667 12.475 2.28333 13.125 2.95C13.7917 3.6 14.3083 4.375 14.675 5.275C15.0583 6.15833 15.25 7.125 15.25 8.175C15.25 9.20833 15.075 10.175 14.725 11.075C14.3917 11.9583 13.9167 12.7333 13.3 13.4C12.6833 14.05 11.9583 14.5667 11.125 14.95C10.3083 15.3167 9.40833 15.5 8.425 15.5C7.55833 15.5 6.75 15.3583 6 15.075C5.26667 14.7917 4.60833 14.3833 4.025 13.85V19.575C4.025 20.0583 3.86667 20.4583 3.55 20.775C3.25 21.0917 2.84167 21.25 2.325 21.25ZM7.925 12.45C8.49167 12.45 9.01667 12.3417 9.5 12.125C10 11.9083 10.425 11.6083 10.775 11.225C11.1417 10.8417 11.425 10.3917 11.625 9.875C11.8417 9.34167 11.95 8.775 11.95 8.175C11.95 7.55833 11.8417 6.99167 11.625 6.475C11.425 5.94167 11.1417 5.48333 10.775 5.1C10.425 4.71667 10 4.41667 9.5 4.2C9.01667 3.98333 8.49167 3.875 7.925 3.875C7.35833 3.875 6.825 3.98333 6.325 4.2C5.84167 4.41667 5.41667 4.71667 5.05 5.1C4.7 5.48333 4.425 5.94167 4.225 6.475C4.025 6.99167 3.925 7.55833 3.925 8.175C3.925 8.775 4.025 9.34167 4.225 9.875C4.425 10.3917 4.7 10.8417 5.05 11.225C5.41667 11.6083 5.84167 11.9083 6.325 12.125C6.825 12.3417 7.35833 12.45 7.925 12.45ZM25.0578 15.5C23.9578 15.5 22.9411 15.325 22.0078 14.975C21.0911 14.6083 20.2995 14.1 19.6328 13.45C18.9661 12.8 18.4411 12.025 18.0578 11.125C17.6911 10.225 17.5078 9.24167 17.5078 8.175C17.5078 7.09167 17.6828 6.1 18.0328 5.2C18.3828 4.3 18.8745 3.525 19.5078 2.875C20.1578 2.225 20.9161 1.725 21.7828 1.375C22.6661 1.00833 23.6328 0.824999 24.6828 0.824999C25.7328 0.824999 26.6661 0.999999 27.4828 1.35C28.2995 1.7 28.9911 2.19167 29.5578 2.825C30.1411 3.45833 30.5828 4.20833 30.8828 5.075C31.1828 5.94167 31.3328 6.9 31.3328 7.95C31.3328 8.38333 31.1828 8.74167 30.8828 9.025C30.5995 9.30833 30.2245 9.45 29.7578 9.45H20.7828C21.0328 10.3667 21.5411 11.1167 22.3078 11.7C23.0745 12.2667 23.9911 12.55 25.0578 12.55C25.5411 12.55 26.0245 12.4667 26.5078 12.3C26.9911 12.1167 27.3911 11.9083 27.7078 11.675C28.0411 11.425 28.4078 11.3 28.8078 11.3C29.2078 11.3 29.5745 11.45 29.9078 11.75C30.2411 12.05 30.4078 12.4083 30.4078 12.825C30.4078 13.2583 30.2161 13.6167 29.8328 13.9C29.2328 14.3833 28.4911 14.7667 27.6078 15.05C26.7245 15.35 25.8745 15.5 25.0578 15.5ZM27.9828 6.65C27.7328 5.78333 27.3328 5.09167 26.7828 4.575C26.2328 4.04167 25.5328 3.775 24.6828 3.775C23.6495 3.775 22.8078 4.04167 22.1578 4.575C21.5078 5.09167 21.0578 5.78333 20.8078 6.65H27.9828ZM39.4467 11.3C38.4467 11.3 37.58 11.15 36.8467 10.85C36.13 10.5333 35.53 10.0917 35.0467 9.525C34.58 8.94167 34.23 8.25 33.9967 7.45C33.78 6.63333 33.6717 5.73333 33.6717 4.75V2.6C33.6717 2.08333 33.83 1.675 34.1467 1.375C34.48 1.075 34.8883 0.924999 35.3717 0.924999C35.8883 0.924999 36.2967 1.075 36.5967 1.375C36.9133 1.675 37.0717 2.08333 37.0717 2.6V4.75C37.0717 5.25 37.1133 5.71667 37.1967 6.15C37.28 6.56667 37.4217 6.93333 37.6217 7.25C37.8383 7.55 38.1383 7.79167 38.5217 7.975C38.905 8.15833 39.3967 8.25 39.9967 8.25C40.7467 8.25 41.38 8.09167 41.8967 7.775C42.43 7.45833 42.6967 7.05 42.6967 6.55V2.6C42.6967 2.08333 42.855 1.675 43.1717 1.375C43.505 1.075 43.9133 0.924999 44.3967 0.924999C44.9133 0.924999 45.3217 1.075 45.6217 1.375C45.9383 1.675 46.0967 2.08333 46.0967 2.6V13.725C46.0967 14.2083 45.9383 14.6083 45.6217 14.925C45.3217 15.2417 44.9133 15.4 44.3967 15.4C43.9133 15.4 43.505 15.2417 43.1717 14.925C42.855 14.6083 42.6967 14.2083 42.6967 13.725V10.35C42.2133 10.7 41.6883 10.95 41.1217 11.1C40.5717 11.2333 40.0133 11.3 39.4467 11.3ZM53.249 6.375H60.124V2.6C60.124 2.08333 60.2824 1.675 60.599 1.375C60.9324 1.075 61.3407 0.924999 61.824 0.924999C62.3574 0.924999 62.7657 1.075 63.049 1.375C63.3324 1.675 63.474 2.08333 63.474 2.6V13.725C63.474 14.2083 63.3324 14.6083 63.049 14.925C62.7657 15.2417 62.3574 15.4 61.824 15.4C61.3407 15.4 60.9324 15.2417 60.599 14.925C60.2824 14.6083 60.124 14.2083 60.124 13.725V9.425H53.249V13.725C53.249 14.2083 53.0907 14.6083 52.774 14.925C52.474 15.2417 52.0657 15.4 51.549 15.4C51.0657 15.4 50.6657 15.2417 50.349 14.925C50.049 14.6083 49.899 14.2083 49.899 13.725V2.6C49.899 2.08333 50.049 1.675 50.349 1.375C50.6657 1.075 51.0657 0.924999 51.549 0.924999C52.0657 0.924999 52.474 1.075 52.774 1.375C53.0907 1.675 53.249 2.08333 53.249 2.6V6.375ZM70.6318 9.675L77.6818 1.875C77.9485 1.59167 78.2152 1.36667 78.4818 1.2C78.7652 1.01667 79.0818 0.924999 79.4318 0.924999C79.9152 0.924999 80.2735 1.075 80.5068 1.375C80.7402 1.675 80.8568 2.08333 80.8568 2.6V13.725C80.8568 14.2083 80.7152 14.6083 80.4318 14.925C80.1485 15.2417 79.7402 15.4 79.2068 15.4C78.7235 15.4 78.3152 15.2417 77.9818 14.925C77.6652 14.6083 77.5068 14.2083 77.5068 13.725V6.65L70.4568 14.45C70.1902 14.7333 69.9152 14.9583 69.6318 15.125C69.3652 15.3083 69.0568 15.4 68.7068 15.4C68.2235 15.4 67.8652 15.25 67.6318 14.95C67.3985 14.65 67.2818 14.2417 67.2818 13.725V2.6C67.2818 2.08333 67.4318 1.675 67.7318 1.375C68.0485 1.075 68.4485 0.924999 68.9318 0.924999C69.4485 0.924999 69.8568 1.075 70.1568 1.375C70.4735 1.675 70.6318 2.08333 70.6318 2.6V9.675ZM91.3396 7.275L95.9396 12.95C96.223 13.3333 96.348 13.725 96.3146 14.125C96.298 14.525 96.098 14.875 95.7146 15.175C95.398 15.4417 95.048 15.575 94.6646 15.575C94.1646 15.575 93.748 15.375 93.4146 14.975L88.9146 9.45L87.9646 10.3V13.775C87.9646 14.2583 87.8146 14.65 87.5146 14.95C87.2146 15.25 86.8146 15.4 86.3146 15.4C85.8146 15.4 85.4146 15.25 85.1146 14.95C84.8146 14.65 84.6646 14.2583 84.6646 13.775V2.95C84.6646 2.46667 84.8146 2.075 85.1146 1.775C85.4146 1.475 85.8146 1.325 86.3146 1.325C86.8146 1.325 87.2146 1.475 87.5146 1.775C87.8146 2.075 87.9646 2.46667 87.9646 2.95V6.125L93.1396 1.6C93.473 1.31667 93.8313 1.175 94.2146 1.175C94.6646 1.175 95.0396 1.35 95.3396 1.7C95.6563 2.03333 95.8063 2.40833 95.7896 2.825C95.773 3.24167 95.5896 3.6 95.2396 3.9L91.3396 7.275ZM101.191 15.8C100.608 15.8 100.099 15.5917 99.666 15.175C99.2493 14.7583 99.041 14.2583 99.041 13.675C99.041 13.375 99.0993 13.1 99.216 12.85C99.3327 12.5833 99.491 12.35 99.691 12.15C99.891 11.95 100.116 11.8 100.366 11.7C100.633 11.5833 100.908 11.525 101.191 11.525C101.808 11.525 102.316 11.7333 102.716 12.15C103.133 12.5667 103.341 13.075 103.341 13.675C103.341 14.2583 103.133 14.7583 102.716 15.175C102.316 15.5917 101.808 15.8 101.191 15.8Z" fill="#2D2D2D"/>
</svg>
