<svg width="10" height="10" viewBox="0 0 10 10" fill="none" xmlns="http://www.w3.org/2000/svg">
<path d="M0.107959 1.19195L4.39367 8.65624C4.46686 8.76358 4.56176 8.8507 4.67086 8.91071C4.77996 8.97071 4.90027 9.00195 5.02224 9.00195C5.14422 9.00195 5.26453 8.97071 5.37363 8.91071C5.48273 8.8507 5.57763 8.76358 5.65082 8.65624L9.93653 1.19195C9.99922 1.07251 10.0322 0.937016 10.0322 0.799095C10.0322 0.661174 9.99922 0.525681 9.93653 0.406238C9.86835 0.288644 9.77441 0.19177 9.66334 0.124501C9.55226 0.0572328 9.42761 0.0217256 9.30082 0.0212383L0.715101 0.0212375C0.588307 0.0217248 0.463653 0.057232 0.35258 0.1245C0.241506 0.191769 0.147569 0.288643 0.0793865 0.406237C0.0209816 0.528421 -0.00712703 0.665376 -0.00211167 0.80331C0.00290464 0.941244 0.0408675 1.07529 0.107959 1.19195Z" fill="#2D2D2D"/>
</svg>
