<svg width="24" height="23" viewBox="0 0 24 23" fill="none" xmlns="http://www.w3.org/2000/svg">
<g clip-path="url(#clip0_346_17568)">
<path d="M17.9803 4.94627e-06H6.04848C4.62365 0.000317778 3.25726 0.566469 2.24975 1.57398C1.24225 2.58149 0.676094 3.94787 0.675781 5.3727L0.675781 17.3045C0.678359 18.7286 1.24524 20.0937 2.25226 21.1007C3.25927 22.1077 4.62434 22.6746 6.04848 22.6772H17.9803C19.4052 22.6768 20.7715 22.1107 21.779 21.1032C22.7865 20.0957 23.3526 18.7293 23.353 17.3045V5.3727C23.3539 4.66689 23.2156 3.96781 22.946 3.31553C22.6763 2.66326 22.2806 2.07059 21.7815 1.5715C21.2824 1.07241 20.6898 0.676692 20.0375 0.407027C19.3852 0.137362 18.6861 -0.000953415 17.9803 4.94627e-06ZM14.9941 9.35886C15.0487 9.35605 15.1034 9.36534 15.1541 9.38607C15.2048 9.4068 15.2503 9.43846 15.2873 9.4788C15.3264 9.51626 15.3563 9.56219 15.3748 9.61305C15.3933 9.66391 15.3998 9.71834 15.394 9.77213L15.314 11.4919C15.3109 11.5958 15.2673 11.6943 15.1926 11.7666C15.1179 11.8388 15.018 11.879 14.914 11.8786H12.9543V17.7578C12.9552 17.8106 12.9456 17.863 12.9258 17.912C12.906 17.9609 12.8766 18.0054 12.8393 18.0427C12.802 18.0801 12.7575 18.1095 12.7085 18.1292C12.6596 18.149 12.6071 18.1587 12.5543 18.1577H10.7012C10.6484 18.1587 10.596 18.149 10.547 18.1292C10.4981 18.1095 10.4536 18.0801 10.4163 18.0427C10.3789 18.0054 10.3495 17.9609 10.3298 17.912C10.31 17.863 10.3003 17.8106 10.3013 17.7578V11.8786H9.03478C8.98199 11.8795 8.92955 11.8698 8.88058 11.8501C8.83162 11.8303 8.78714 11.8009 8.74981 11.7636C8.71248 11.7262 8.68306 11.6817 8.6633 11.6328C8.64355 11.5838 8.63387 11.5314 8.63484 11.4786V9.75879C8.63388 9.70601 8.64356 9.65357 8.66332 9.60461C8.68307 9.55565 8.7125 9.51118 8.74983 9.47385C8.78716 9.43652 8.83164 9.40709 8.8806 9.38734C8.92956 9.36758 8.982 9.3579 9.03478 9.35886H10.3013V7.54577C10.3013 6.14588 11.1811 4.50611 13.6742 4.50611C14.2607 4.50611 14.754 4.54611 15.034 4.57275C15.1326 4.5836 15.2238 4.63035 15.2902 4.70411C15.3566 4.77786 15.3936 4.87346 15.394 4.97269L15.354 6.58586C15.3509 6.68972 15.3074 6.78827 15.2327 6.86049C15.158 6.93271 15.058 6.97289 14.9541 6.97245H13.7675C13.0743 6.97245 12.9543 7.2391 12.9543 7.83904V9.35886H14.9941Z" fill="#2C2C2C"/>
</g>
<defs>
<clipPath id="clip0_346_17568">
<rect width="22.6772" height="22.6772" fill="white" transform="translate(0.675781)"/>
</clipPath>
</defs>
</svg>
