<svg width="23" height="23" viewBox="0 0 23 23" fill="none" xmlns="http://www.w3.org/2000/svg">
<g clip-path="url(#clip0_346_17564)">
<path d="M11.3052 7.9458C10.3431 7.96459 9.42458 8.35066 8.73796 9.02489C8.05134 9.69912 7.64861 10.6104 7.6123 11.5721C7.62238 12.2082 7.79198 12.8316 8.10556 13.3851C8.20992 13.5772 8.33035 13.76 8.46556 13.9317C8.5322 14.025 8.62556 14.105 8.70556 14.1984C8.78557 14.2917 8.87888 14.3584 8.95887 14.4384C9.02226 14.4915 9.08904 14.5405 9.15879 14.5851C9.19271 14.6233 9.2334 14.6549 9.27879 14.6783C9.34544 14.7183 9.42542 14.7716 9.50541 14.8117C10.0468 15.1472 10.6684 15.3314 11.3052 15.3449C12.2964 15.3342 13.243 14.9312 13.9376 14.224C14.6323 13.5169 15.0184 12.5633 15.0114 11.5721C14.9744 10.6084 14.5696 9.6955 13.8803 9.02104C13.191 8.34658 12.2695 7.9618 11.3052 7.9458ZM11.3052 14.0117C10.6765 13.9918 10.0798 13.7295 9.64001 13.2798C9.20021 12.8301 8.95134 12.2277 8.94546 11.5987C8.95457 11.1323 9.10126 10.6791 9.36711 10.2958C9.63296 9.91259 10.0061 9.61644 10.4397 9.44458C10.8733 9.27271 11.3481 9.2328 11.8043 9.32985C12.2605 9.4269 12.6779 9.65658 13.004 9.99006C13.3301 10.3235 13.5504 10.7459 13.6373 11.2042C13.7241 11.6625 13.6736 12.1362 13.4921 12.5659C13.3106 12.9955 13.0062 13.362 12.6171 13.6192C12.228 13.8765 11.7716 14.013 11.3052 14.0117Z" fill="#2C2C2C"/>
<path d="M15.705 7.0393C15.8212 7.11872 15.9176 7.2237 15.987 7.34618C16.0563 7.46867 16.0966 7.60541 16.1049 7.74592C16.1084 7.86368 16.0883 7.98096 16.0457 8.0908C16.003 8.20064 15.9388 8.3008 15.8567 8.38535C15.7747 8.4699 15.6765 8.53712 15.568 8.58302C15.4595 8.62892 15.3428 8.65257 15.225 8.65257C15.1072 8.65257 14.9906 8.62892 14.8821 8.58302C14.7736 8.53712 14.6754 8.4699 14.5933 8.38535C14.5112 8.3008 14.447 8.20064 14.4044 8.0908C14.3617 7.98096 14.3416 7.86368 14.3451 7.74592C14.3449 7.6315 14.3699 7.51845 14.4183 7.41477C14.4667 7.31109 14.5373 7.21932 14.6251 7.14598C14.6585 7.10365 14.6991 7.06754 14.7451 7.0393C14.8858 6.94144 15.0536 6.89016 15.225 6.89267C15.2968 6.89497 15.3682 6.9039 15.4383 6.91936C15.5118 6.94479 15.5831 6.97597 15.6516 7.01261C15.6649 7.01261 15.6782 7.02596 15.705 7.0393Z" fill="#2C2C2C"/>
<path d="M17.3046 0.2002H5.37271C4.66688 0.199233 3.9678 0.337541 3.31552 0.607202C2.66323 0.876863 2.07057 1.27258 1.57147 1.77167C1.07238 2.27076 0.676667 2.86343 0.407007 3.51571C0.137346 4.168 -0.000962533 4.86708 5.04176e-06 5.5729V17.5047C0.000315223 18.9295 0.566465 20.2959 1.57397 21.3034C2.58148 22.3109 3.94787 22.8771 5.37271 22.8774H17.3046C18.7287 22.8748 20.0937 22.3079 21.1007 21.3009C22.1077 20.2939 22.6746 18.9288 22.6772 17.5047V5.5729C22.6769 4.14808 22.1107 2.7817 21.1032 1.7742C20.0957 0.766688 18.7294 0.200529 17.3046 0.2002ZM18.4244 11.6521C18.4244 12.6387 18.4244 13.6118 18.3711 14.5851C18.3968 15.1336 18.308 15.6813 18.1103 16.1935C17.9125 16.7057 17.6102 17.1711 17.2226 17.5599C16.835 17.9488 16.3707 18.2526 15.8591 18.452C15.3476 18.6513 14.8001 18.7419 14.2516 18.7179C13.265 18.7712 12.2918 18.7579 11.3186 18.7579C10.332 18.7579 9.35884 18.7713 8.3723 18.7179C7.82854 18.7239 7.28907 18.621 6.78569 18.4153C6.28231 18.2095 5.8252 17.9051 5.44129 17.52C5.05739 17.1348 4.75445 16.6767 4.55034 16.1727C4.34622 15.6687 4.24506 15.1289 4.25281 14.5851C4.19952 13.6118 4.23947 13.0519 4.23947 12.0654C4.23947 11.0922 4.19947 9.70568 4.25281 8.71915C4.25822 7.62125 4.66615 6.56346 5.39932 5.74622C5.77566 5.3424 6.23882 5.02937 6.75384 4.83074C7.26887 4.63211 7.82228 4.55309 8.37231 4.59964C9.35884 4.54634 10.332 4.54634 11.3186 4.54634C12.2918 4.54634 13.265 4.54634 14.2516 4.59964C15.3549 4.57531 16.4232 4.98735 17.2245 5.74622C17.9716 6.56459 18.3771 7.6379 18.3577 8.74584C18.4377 10.2523 18.4244 10.119 18.4244 11.6521Z" fill="#2C2C2C"/>
</g>
<defs>
<clipPath id="clip0_346_17564">
<rect width="22.6772" height="22.6772" fill="white" transform="translate(0 0.200195)"/>
</clipPath>
</defs>
</svg>
