<svg width="37" height="37" viewBox="0 0 37 37" fill="none" xmlns="http://www.w3.org/2000/svg">
<path fill-rule="evenodd" clip-rule="evenodd" d="M18.5 37C28.7173 37 37 28.7173 37 18.5C37 8.28273 28.7173 0 18.5 0C8.28273 0 0 8.28273 0 18.5C0 28.7173 8.28273 37 18.5 37ZM15.7714 18.9302C15.7714 17.1922 17.1897 15.7739 18.9277 15.7739C20.6657 15.7739 22.084 17.1922 22.084 18.9302C22.084 20.6683 20.6657 22.0866 18.9277 22.0866C17.1897 22.0866 15.7714 20.6683 15.7714 18.9302ZM28.3946 18.4521C28.3945 18.6113 28.3943 18.7707 28.3943 18.9302C28.3943 19.1086 28.3946 19.2868 28.3948 19.4649C28.3965 20.5911 28.3982 21.7106 28.3327 22.8372C28.2593 24.3527 27.916 25.6953 26.8055 26.8058C25.6973 27.914 24.3524 28.2597 22.837 28.3331C21.6915 28.3975 20.5534 28.3963 19.4081 28.395C19.2489 28.3948 19.0896 28.3946 18.9301 28.3946C18.7709 28.3946 18.6118 28.3948 18.4528 28.395C17.3091 28.3963 16.1707 28.3975 15.0231 28.3331C13.5077 28.2597 12.1652 27.9163 11.0546 26.8058C9.94649 25.6976 9.60079 24.3527 9.52738 22.8372C9.46294 21.6917 9.4642 20.5517 9.46547 19.4075C9.46564 19.2485 9.46582 19.0894 9.46582 18.9302C9.46582 18.771 9.46564 18.6119 9.46547 18.453C9.4642 17.3092 9.46294 16.1708 9.52738 15.0232C9.60079 13.5078 9.94412 12.1652 11.0546 11.0547C12.1628 9.9465 13.5077 9.60079 15.0231 9.52739C16.1686 9.46294 17.3067 9.4642 18.4519 9.46547C18.6112 9.46564 18.7705 9.46582 18.9301 9.46582C19.0893 9.46582 19.2483 9.46564 19.4073 9.46547C20.551 9.4642 21.6894 9.46294 22.837 9.52739C24.3524 9.60079 25.695 9.94413 26.8055 11.0547C27.9136 12.1628 28.2593 13.5078 28.3327 15.0232C28.3972 16.1687 28.3959 17.3068 28.3946 18.4521ZM14.0713 18.9302C14.0713 21.6178 16.2402 23.7868 18.9277 23.7868C21.6152 23.7868 23.7841 21.6178 23.7841 18.9302C23.7841 16.2427 21.6152 14.0737 18.9277 14.0737C16.2402 14.0737 14.0713 16.2427 14.0713 18.9302ZM22.8488 13.8748C22.8488 14.5023 23.3555 15.009 23.983 15.009C24.132 15.0092 24.2796 14.98 24.4173 14.9231C24.555 14.8661 24.6801 14.7826 24.7854 14.6772C24.8908 14.5719 24.9743 14.4468 25.0313 14.3091C25.0882 14.1714 25.1174 14.0238 25.1172 13.8748C25.1172 13.2473 24.6105 12.7406 23.983 12.7406C23.3555 12.7406 22.8488 13.2473 22.8488 13.8748Z" fill="#FF7800"/>
</svg>
