<svg width="19" height="23" viewBox="0 0 19 23" fill="none" xmlns="http://www.w3.org/2000/svg">
<path d="M12.9248 22.9998H6.06707C5.72605 22.9998 5.39899 22.87 5.15786 22.6388C4.91672 22.4077 4.78125 22.0943 4.78125 21.7675C4.78125 21.4406 4.91672 21.1272 5.15786 20.8961C5.39899 20.665 5.72605 20.5352 6.06707 20.5352H12.9248C13.2658 20.5352 13.5928 20.665 13.834 20.8961C14.0751 21.1272 14.2106 21.4406 14.2106 21.7675C14.2106 22.0943 14.0751 22.4077 13.834 22.6388C13.5928 22.87 13.2658 22.9998 12.9248 22.9998Z" fill="#2D2D2D"/>
<path d="M14.2104 16.8388C14.2095 17.3833 13.9834 17.9051 13.5817 18.2901C13.1801 18.675 12.6356 18.8917 12.0675 18.8925H6.92467C6.35662 18.8917 5.81211 18.675 5.41044 18.2901C5.00877 17.9051 4.78272 17.3833 4.78181 16.8388V15.973C3.11233 14.9891 1.82359 13.5099 1.11138 11.76C0.399177 10.0101 0.302444 8.0852 0.83588 6.27781C1.36932 4.47041 2.50376 2.8793 4.06685 1.74621C5.62994 0.613122 7.53624 0 9.49609 0C11.456 0 13.3622 0.613122 14.9253 1.74621C16.4884 2.8793 17.6229 4.47041 18.1563 6.27781C18.6897 8.0852 18.593 10.0101 17.8808 11.76C17.1686 13.5099 15.8799 14.9891 14.2104 15.973V16.8388ZM7.35324 16.0174C7.35324 16.1263 7.39839 16.2308 7.47876 16.3078C7.55913 16.3848 7.66814 16.4281 7.78181 16.4281H11.2104C11.324 16.4281 11.4331 16.3848 11.5134 16.3078C11.5938 16.2308 11.639 16.1263 11.639 16.0174V15.2485C11.6388 15.0191 11.7055 14.7942 11.8315 14.5991C11.9575 14.404 12.1378 14.2466 12.3521 14.1444C13.6511 13.527 14.6942 12.5069 15.312 11.2497C15.9298 9.99251 16.0859 8.57207 15.7551 7.21908C15.4243 5.86609 14.6259 4.66002 13.4897 3.79673C12.3535 2.93345 10.9461 2.46366 9.49609 2.46366C8.04612 2.46366 6.63873 2.93345 5.50248 3.79673C4.36624 4.66002 3.56788 5.86609 3.23707 7.21908C2.90626 8.57207 3.06242 9.99251 3.68019 11.2497C4.29797 12.5069 5.34107 13.527 6.64009 14.1444C6.85442 14.2466 7.03473 14.404 7.16072 14.5991C7.28671 14.7942 7.35339 15.0191 7.35324 15.2485V16.0174Z" fill="#2D2D2D"/>
</svg>
