<svg width="19" height="19" viewBox="0 0 19 19" fill="none" xmlns="http://www.w3.org/2000/svg">
<path d="M12.9562 8.13175C12.9562 6.79056 12.4795 5.6433 11.5262 4.68996C10.5728 3.73663 9.42558 3.25996 8.08439 3.25996C6.74319 3.25996 5.59593 3.73663 4.6426 4.68996C3.68926 5.6433 3.21259 6.79056 3.21259 8.13175C3.21259 9.47295 3.68926 10.6202 4.6426 11.5735C5.59593 12.5269 6.74319 13.0035 8.08439 13.0035C9.42558 13.0035 10.5728 12.5269 11.5262 11.5735C12.4795 10.6202 12.9562 9.47295 12.9562 8.13175ZM18.5239 17.1794C18.5239 17.5564 18.3862 17.8826 18.1107 18.1581C17.8352 18.4336 17.509 18.5713 17.132 18.5713C16.7405 18.5713 16.4143 18.4336 16.1533 18.1581L12.4233 14.439C11.1256 15.338 9.67932 15.7874 8.08439 15.7874C7.04768 15.7874 6.05629 15.5863 5.1102 15.1839C4.16412 14.7815 3.34853 14.2378 2.66343 13.5527C1.97833 12.8676 1.43461 12.052 1.03225 11.1059C0.62989 10.1599 0.428711 9.16846 0.428711 8.13175C0.428711 7.09505 0.62989 6.10365 1.03225 5.15757C1.43461 4.21148 1.97833 3.39589 2.66343 2.71079C3.34853 2.0257 4.16412 1.48197 5.1102 1.07961C6.05629 0.677253 7.04768 0.476074 8.08439 0.476074C9.12109 0.476074 10.1125 0.677253 11.0586 1.07961C12.0047 1.48197 12.8203 2.0257 13.5053 2.71079C14.1904 3.39589 14.7342 4.21148 15.1365 5.15757C15.5389 6.10365 15.7401 7.09505 15.7401 8.13175C15.7401 9.72669 15.2906 11.173 14.3916 12.4707L18.1216 16.2007C18.3898 16.4689 18.5239 16.7951 18.5239 17.1794Z" fill="#FF8A0A"/>
</svg>
