<svg width="23" height="23" viewBox="0 0 23 23" fill="none" xmlns="http://www.w3.org/2000/svg">
<path d="M15.7015 9.59538C15.7015 7.91438 15.1041 6.47643 13.9092 5.28155C12.7143 4.08667 11.2764 3.48923 9.59538 3.48923C7.91438 3.48923 6.47643 4.08667 5.28155 5.28155C4.08667 6.47643 3.48923 7.91438 3.48923 9.59538C3.48923 11.2764 4.08667 12.7143 5.28155 13.9092C6.47643 15.1041 7.91438 15.7015 9.59538 15.7015C11.2764 15.7015 12.7143 15.1041 13.9092 13.9092C15.1041 12.7143 15.7015 11.2764 15.7015 9.59538ZM22.68 20.9354C22.68 21.4079 22.5074 21.8168 22.1621 22.1621C21.8168 22.5074 21.4079 22.68 20.9354 22.68C20.4447 22.68 20.0358 22.5074 19.7087 22.1621L15.0337 17.5007C13.4072 18.6274 11.5944 19.1908 9.59538 19.1908C8.29601 19.1908 7.05343 18.9386 5.86763 18.4343C4.68184 17.93 3.6596 17.2485 2.80093 16.3898C1.94225 15.5312 1.26076 14.5089 0.756454 13.3231C0.252151 12.1373 0 10.8948 0 9.59538C0 8.29601 0.252151 7.05343 0.756454 5.86763C1.26076 4.68184 1.94225 3.6596 2.80093 2.80093C3.6596 1.94225 4.68184 1.26076 5.86763 0.756454C7.05343 0.252151 8.29601 0 9.59538 0C10.8948 0 12.1373 0.252151 13.3231 0.756454C14.5089 1.26076 15.5312 1.94225 16.3898 2.80093C17.2485 3.6596 17.93 4.68184 18.4343 5.86763C18.9386 7.05343 19.1908 8.29601 19.1908 9.59538C19.1908 11.5944 18.6274 13.4072 17.5007 15.0337L22.1757 19.7087C22.5119 20.0449 22.68 20.4538 22.68 20.9354Z" fill="#2D2D2D"/>
</svg>
