<svg width="23" height="23" viewBox="0 0 23 23" fill="none" xmlns="http://www.w3.org/2000/svg">
<path d="M22.9261 3.24C22.9261 2.3807 22.5847 1.55659 21.9771 0.948974C21.3695 0.341356 20.5454 0 19.6861 0L3.48609 0C2.62679 0 1.80269 0.341356 1.19507 0.948974C0.58745 1.55659 0.246094 2.3807 0.246094 3.24L0.246094 19.44C0.246094 20.2993 0.58745 21.1234 1.19507 21.731C1.80269 22.3386 2.62679 22.68 3.48609 22.68H19.6861C20.5454 22.68 21.3695 22.3386 21.9771 21.731C22.5847 21.1234 22.9261 20.2993 22.9261 19.44V3.24ZM11.5861 4.86C12.2269 4.86 12.8533 5.05002 13.3861 5.40604C13.919 5.76205 14.3342 6.26807 14.5795 6.86011C14.8247 7.45214 14.8889 8.10359 14.7638 8.73209C14.6388 9.36059 14.3302 9.9379 13.8771 10.391C13.424 10.8441 12.8467 11.1527 12.2182 11.2777C11.5897 11.4028 10.9382 11.3386 10.3462 11.0934C9.75417 10.8481 9.24815 10.4329 8.89213 9.90005C8.53612 9.36723 8.34609 8.74081 8.34609 8.1C8.34609 7.2407 8.68745 6.41659 9.29507 5.80897C9.90269 5.20136 10.7268 4.86 11.5861 4.86ZM17.3695 16.5564C17.3027 16.6927 17.1989 16.8075 17.07 16.8877C16.9411 16.9679 16.7923 17.0103 16.6405 17.01H6.53169C6.37988 17.0103 6.23104 16.9679 6.10215 16.8877C5.97325 16.8075 5.86949 16.6927 5.80269 16.5564C5.73423 16.4192 5.70698 16.2651 5.72423 16.1127C5.74148 15.9603 5.80249 15.8162 5.89989 15.6978C6.58152 14.8495 7.44479 14.165 8.42609 13.6947C9.40739 13.2244 10.4817 12.9802 11.5699 12.9802C12.6581 12.9802 13.7324 13.2244 14.7137 13.6947C15.695 14.165 16.5583 14.8495 17.2399 15.6978C17.3426 15.8129 17.4095 15.9553 17.4325 16.1078C17.4555 16.2603 17.4336 16.4162 17.3695 16.5564Z" fill="#2D2D2D"/>
</svg>
